M48
;DRILL file {KiCad 4.0.6} date 01/21/18 22:34:36
;FORMAT={2:4/ absolute / inch / suppress trailing zeros}
FMAT,2
INCH,LZ
T1C0.012
T2C0.012
T3C0.030
T4C0.028
T5C0.035
%
G90
G05
M72
T1
X052614Y-04589
X053255Y-040856
X053292Y-041354
X05367Y-041663
X053805Y-04121
X053828Y-042546
X054032Y-042078
X054077Y-038343
X054115Y-042991
X054281Y-039565
X054311Y-039045
X054341Y-040539
X054349Y-042539
X054371Y-041542
X054409Y-038592
X054424Y-040063
X054432Y-041075
X05453Y-043308
X054673Y-042863
X054794Y-041701
X054817Y-042229
X05494Y-03445
X05499Y-043693
X055077Y-046369
X055156Y-043278
X055194Y-04275
X055292Y-034192
X05533Y-039052
X055405Y-043935
X05542Y-039792
X055473Y-040486
X055496Y-042373
X05556Y-03512
X055601Y-038569
X05562Y-03438
X05562Y-03598
X055715Y-043459
X055752Y-041173
X055911Y-042871
X055941Y-039233
X056001Y-035505
X05614Y-03428
X05614Y-03746
X05616Y-03586
X05616Y-04072
X056175Y-040011
X056213Y-043942
X056303Y-03875
X056318Y-041505
X056327Y-046346
X05642Y-03504
X056477Y-043369
X056515Y-041912
X05653Y-039505
X056726Y-040878
X056771Y-040282
X056786Y-043829
X056803Y-046561
X05682Y-03832
X05688Y-03712
X0569Y-03772
X05692Y-03582
X056945Y-038992
X05696Y-03428
X05696Y-041452
X057016Y-04301
X05724Y-03552
X057277Y-040599
X057345Y-039294
X057345Y-041044
X05738Y-03592
X05745Y-041701
X05752Y-03518
X05764Y-03558
X057851Y-045871
X058016Y-036207
X058145Y-035807
X05816Y-035286
X058276Y-046095
X058508Y-034568
X058688Y-035294
X058891Y-036009
X058959Y-034571
X059156Y-035294
X059457Y-036122
X059461Y-046794
X059843Y-046515
X060076Y-042903
X06115Y-043511
X06127Y-042706
X061393Y-043876
X061443Y-043058
X061515Y-038918
T2
X05218Y-03552
X05225Y-03453
X05263Y-04628
X052821Y-035052
X05298Y-042978
X05299Y-04196
X053Y-04638
X053006Y-035539
X05305Y-043383
X053081Y-03899
X053081Y-039565
X053083Y-041666
X05309Y-04036
X053111Y-03928
X053257Y-035097
X05354Y-044089
X053551Y-045395
X053565Y-04474
X053675Y-038325
X053741Y-035008
X053802Y-040638
X05407Y-035982
X05409Y-04642
X054208Y-03558
X0544Y-03798
X0555Y-046387
X0555Y-046703
X0569Y-04218
X05737Y-04277
X05742Y-04329
X05845Y-044018
X05845Y-040859
X05846Y-04294
X058477Y-043339
X05856Y-04225
X058756Y-040249
X058763Y-039963
X05881Y-04405
X0589Y-04654
X058937Y-041343
X058942Y-039726
X058944Y-041044
X05901Y-039057
X059158Y-04225
X059187Y-034202
X059249Y-039636
X05928Y-039351
X059363Y-041868
X05943Y-04475
X05947Y-04379
X059684Y-03544
X059689Y-042089
X059901Y-044088
X06007Y-03591
X06008Y-04516
X060086Y-04234
X06018Y-04356
X060215Y-038479
X060247Y-03915
X06038Y-045106
X06051Y-03492
X0608Y-03615
X060845Y-041705
X06096Y-03482
X060972Y-041439
X06098Y-03928
X06108Y-04396
X061265Y-039259
X0613Y-041421
X06131Y-03733
X06132Y-03974
X061382Y-041147
X061565Y-04049
X061609Y-037712
X06179Y-04449
T3
X052Y-035
X052Y-046
X053Y-047
X054Y-047
X055Y-047
X056Y-047
X057Y-047
X058Y-047
X059Y-047
X06Y-047
X061Y-047
X062Y-035
X062Y-036
X062Y-037
X062Y-038
X062Y-039
X062Y-04
X062Y-041
X062Y-042
X062Y-043
X062Y-044
X062Y-045
X062Y-046
T4
X05938Y-034769
T5
X056112Y-038312
T0
M30
