G04 #@! TF.FileFunction,Copper,L4,Bot,Signal*
%FSLAX46Y46*%
G04 Gerber Fmt 4.6, Leading zero omitted, Abs format (unit mm)*
G04 Created by KiCad (PCBNEW 4.0.6) date 01/21/18 22:34:32*
%MOMM*%
%LPD*%
G01*
G04 APERTURE LIST*
%ADD10C,0.100000*%
%ADD11C,0.599440*%
%ADD12C,1.524000*%
%ADD13R,0.600000X0.500000*%
%ADD14R,1.100000X1.000000*%
%ADD15R,3.000000X1.000000*%
%ADD16R,0.400000X0.600000*%
%ADD17R,0.600000X0.400000*%
%ADD18C,0.600000*%
%ADD19C,0.127000*%
G04 APERTURE END LIST*
D10*
D11*
X149583140Y-91462860D03*
X151020780Y-91749880D03*
X144820640Y-109245400D03*
X148021040Y-117081300D03*
X146941540Y-116512340D03*
X152001220Y-118148100D03*
X156248100Y-98851720D03*
X152593040Y-108973620D03*
X155625800Y-108473240D03*
X156065220Y-109367320D03*
X155321000Y-110517940D03*
X155938220Y-111445040D03*
X151030940Y-118856760D03*
X143070580Y-117718840D03*
X139895580Y-117777260D03*
X144279620Y-118264940D03*
X133639560Y-116560600D03*
X141516100Y-110385860D03*
X140096240Y-109926120D03*
X138506200Y-110002320D03*
X139674600Y-110980220D03*
X140728700Y-111594900D03*
X142781020Y-111612680D03*
X144236440Y-111325660D03*
X143451580Y-110157260D03*
X142013940Y-108892340D03*
X140192760Y-108585000D03*
X138869420Y-108872020D03*
X140959840Y-107627420D03*
X139235180Y-107261660D03*
X138046460Y-108049060D03*
X137452100Y-109197140D03*
X136723120Y-108066840D03*
X137241280Y-106878120D03*
X139176760Y-105920540D03*
X138102340Y-105516680D03*
X136321800Y-105824020D03*
X138257280Y-104330500D03*
X136664700Y-104673400D03*
X135361680Y-105039160D03*
X135267700Y-103774240D03*
X138026140Y-102969060D03*
X143548100Y-106456480D03*
X145923000Y-105920540D03*
X144678400Y-105288080D03*
X143047720Y-105422700D03*
X141610080Y-104579420D03*
X140901420Y-102834440D03*
X142646400Y-103428800D03*
X144084040Y-103830120D03*
X145656300Y-104251760D03*
X145483580Y-103121460D03*
X144198340Y-102316280D03*
X142684500Y-101627940D03*
X140766800Y-101071680D03*
X138236960Y-101760020D03*
X137873740Y-100495100D03*
X137949940Y-99174300D03*
X138198860Y-98023680D03*
X137355580Y-97391220D03*
X140538200Y-99192080D03*
X142090140Y-99651820D03*
X143586200Y-100342700D03*
X145656300Y-99806760D03*
X144640300Y-99039680D03*
X143009620Y-98425000D03*
X141226540Y-97965260D03*
X147360640Y-91965780D03*
X147688300Y-90949780D03*
X150256240Y-89646760D03*
X149755860Y-87810340D03*
X148610320Y-87802720D03*
X149067520Y-89646760D03*
X147726400Y-89626440D03*
X142242540Y-90182700D03*
X140441680Y-86847680D03*
X144322800Y-97332800D03*
X142595600Y-95148400D03*
X144475200Y-94284800D03*
X144526000Y-95808800D03*
X146405600Y-90373200D03*
X145745200Y-91236800D03*
X141274800Y-91389200D03*
X142646400Y-91084400D03*
X141122400Y-89204800D03*
X141274800Y-87325200D03*
X143306800Y-89001600D03*
X142595600Y-87071200D03*
X144678400Y-87071200D03*
X146100800Y-89357200D03*
X145389600Y-90220800D03*
D12*
X157480000Y-116840000D03*
X157480000Y-114300000D03*
X157480000Y-111760000D03*
X157480000Y-109220000D03*
X157480000Y-106680000D03*
X132080000Y-116840000D03*
X134620000Y-119380000D03*
X137160000Y-119380000D03*
X139700000Y-119380000D03*
X142240000Y-119380000D03*
X144780000Y-119380000D03*
X147320000Y-119380000D03*
X149860000Y-119380000D03*
X152400000Y-119380000D03*
X154940000Y-119380000D03*
X157480000Y-88900000D03*
X132080000Y-88900000D03*
X157480000Y-104140000D03*
X157480000Y-101600000D03*
X157480000Y-99060000D03*
X157480000Y-96520000D03*
X157480000Y-93980000D03*
X157480000Y-91440000D03*
D11*
X139547600Y-87503000D03*
X144576800Y-90982800D03*
D13*
X152180380Y-98252280D03*
X151080380Y-98252280D03*
D14*
X140775200Y-90373200D03*
X140725200Y-92913200D03*
X140775200Y-95453200D03*
X152575200Y-95453200D03*
X152575200Y-92913200D03*
X152575200Y-90373200D03*
D15*
X146675200Y-87613200D03*
X146675200Y-98213200D03*
D13*
X151145240Y-87421720D03*
X152245240Y-87421720D03*
X138388000Y-89535000D03*
X139488000Y-89535000D03*
X138134000Y-94488000D03*
X139234000Y-94488000D03*
X138261000Y-92011500D03*
X139361000Y-92011500D03*
D16*
X139070500Y-93154500D03*
X138170500Y-93154500D03*
X139070500Y-95631000D03*
X138170500Y-95631000D03*
X151271820Y-99514660D03*
X152171820Y-99514660D03*
X139197500Y-90678000D03*
X138297500Y-90678000D03*
X135757500Y-98996500D03*
X136657500Y-98996500D03*
X135757500Y-101155500D03*
X136657500Y-101155500D03*
X135757500Y-102235000D03*
X136657500Y-102235000D03*
X135757500Y-100076000D03*
X136657500Y-100076000D03*
D17*
X134823200Y-112630800D03*
X134823200Y-113530800D03*
X142849600Y-116566100D03*
X142849600Y-115666100D03*
X141643100Y-116571600D03*
X141643100Y-115671600D03*
D18*
X137688769Y-90373658D03*
X153026226Y-99441232D03*
X132537200Y-90220800D03*
X153364846Y-114568244D03*
X136657500Y-103220100D03*
X156375100Y-102844600D03*
X137337800Y-91393998D03*
X138176000Y-96469200D03*
X152577800Y-91211400D03*
X156946600Y-113004600D03*
X149701086Y-105012376D03*
X134634645Y-90268153D03*
X136055100Y-113639600D03*
X150334211Y-86874226D03*
X151598198Y-90017600D03*
X144526000Y-107137200D03*
X154432000Y-91821000D03*
X148742400Y-107315000D03*
X154838400Y-88442800D03*
X145846800Y-109956600D03*
X153695400Y-88696800D03*
X145719800Y-108635800D03*
X134594600Y-106578400D03*
X149377400Y-111887000D03*
X134831100Y-105832373D03*
X148530597Y-110080009D03*
X132715000Y-87706200D03*
X134747000Y-110193998D03*
X140970000Y-118625202D03*
X136502140Y-88920318D03*
X136020611Y-115304398D03*
X140970000Y-117822002D03*
X135272367Y-89147327D03*
X134570069Y-109165256D03*
X134825156Y-99034600D03*
X134825156Y-100493998D03*
X134848600Y-102514400D03*
X134900958Y-99770949D03*
X135990798Y-111984910D03*
X152148250Y-111983387D03*
X133680200Y-117551200D03*
X154868981Y-105256055D03*
X155701358Y-105208945D03*
X155909989Y-104512512D03*
X150570523Y-99952220D03*
X150493233Y-100675112D03*
X149712680Y-100904040D03*
X149239164Y-102233648D03*
X149257714Y-101506873D03*
X151610619Y-106905045D03*
X134620000Y-117805200D03*
X149718660Y-104252989D03*
X137388600Y-117906800D03*
X150781352Y-106345469D03*
X151053800Y-111226600D03*
X155752808Y-100939600D03*
X154889200Y-99771200D03*
X155614320Y-99718796D03*
X156487712Y-95787723D03*
X155727400Y-94818200D03*
X152946100Y-97735802D03*
X152857200Y-110642400D03*
X152617610Y-107543600D03*
X150261610Y-107315000D03*
X149606000Y-118211600D03*
X150952200Y-113665000D03*
X152603200Y-114706400D03*
X148462012Y-103782515D03*
X134165340Y-89032080D03*
X148488400Y-109067600D03*
X148461765Y-111806806D03*
X136334500Y-97345500D03*
X154547481Y-105931590D03*
X155143200Y-111658400D03*
X149885400Y-99204780D03*
D19*
X152171820Y-99514660D02*
X152952798Y-99514660D01*
X152952798Y-99514660D02*
X153026226Y-99441232D01*
X152180380Y-98252280D02*
X152180380Y-99506100D01*
X152180380Y-99506100D02*
X152171820Y-99514660D01*
X150083520Y-87556340D02*
X150009860Y-87556340D01*
X150009860Y-87556340D02*
X149755860Y-87810340D01*
X151145240Y-87421720D02*
X150218140Y-87421720D01*
X150218140Y-87421720D02*
X150083520Y-87556340D01*
X137970500Y-90678000D02*
X137688769Y-90396269D01*
X138297500Y-90678000D02*
X137970500Y-90678000D01*
X137688769Y-90396269D02*
X137688769Y-90373658D01*
X138388000Y-89535000D02*
X138338000Y-89535000D01*
X138338000Y-89535000D02*
X137688769Y-90184231D01*
X137688769Y-90184231D02*
X137688769Y-90373658D01*
X136657500Y-102235000D02*
X136657500Y-103073200D01*
X136657500Y-103073200D02*
X136657500Y-103220100D01*
X138261000Y-92011500D02*
X137955302Y-92011500D01*
X137955302Y-92011500D02*
X137337800Y-91393998D01*
X138170500Y-95631000D02*
X138170500Y-96463700D01*
X138170500Y-96463700D02*
X138176000Y-96469200D01*
X138170500Y-93154500D02*
X138170500Y-92102000D01*
X138170500Y-92102000D02*
X138261000Y-92011500D01*
X138134000Y-94488000D02*
X138134000Y-95594500D01*
X138134000Y-95594500D02*
X138170500Y-95631000D01*
X136657500Y-103220100D02*
X136652000Y-103225600D01*
X136657500Y-102235000D02*
X136657500Y-101155500D01*
X136657500Y-101155500D02*
X136657500Y-100076000D01*
X136657500Y-98996500D02*
X136657500Y-100076000D01*
X152575200Y-90373200D02*
X152575200Y-91208800D01*
X152575200Y-91208800D02*
X152577800Y-91211400D01*
X136055100Y-113639600D02*
X137005060Y-113639600D01*
X137005060Y-113639600D02*
X137261626Y-113383034D01*
X137261626Y-113383034D02*
X148821166Y-113383034D01*
X148821166Y-113383034D02*
X150152100Y-112052100D01*
X150152100Y-112052100D02*
X150152100Y-108178600D01*
X150152100Y-108178600D02*
X149701086Y-107727586D01*
X149701086Y-107727586D02*
X149701086Y-105436640D01*
X149701086Y-105436640D02*
X149701086Y-105012376D01*
X134634645Y-90268153D02*
X134334646Y-90568152D01*
X134334646Y-90568152D02*
X134334646Y-101378146D01*
X134334646Y-101378146D02*
X134340600Y-101384100D01*
X134340600Y-101384100D02*
X134340600Y-104686100D01*
X137329101Y-111230601D02*
X137329101Y-113318099D01*
X134340600Y-104686100D02*
X133769100Y-105257600D01*
X133769100Y-105257600D02*
X133769100Y-107670600D01*
X133769100Y-107670600D02*
X137329101Y-111230601D01*
X137329101Y-113318099D02*
X137007600Y-113639600D01*
X137007600Y-113639600D02*
X136055100Y-113639600D01*
X150762161Y-86870540D02*
X151644060Y-86870540D01*
X151644060Y-86870540D02*
X152195240Y-87421720D01*
X152195240Y-87421720D02*
X152245240Y-87421720D01*
X150334211Y-86874226D02*
X150758475Y-86874226D01*
X150758475Y-86874226D02*
X150762161Y-86870540D01*
X142062200Y-96342200D02*
X142062200Y-96316800D01*
X142062200Y-96316800D02*
X142062200Y-90830400D01*
X145897600Y-96520000D02*
X142265400Y-96520000D01*
X142265400Y-96520000D02*
X142062200Y-96316800D01*
X146405600Y-96012000D02*
X145897600Y-96520000D01*
X146405600Y-91135200D02*
X146405600Y-96012000D01*
X147167600Y-90373200D02*
X146405600Y-91135200D01*
X151242598Y-90373200D02*
X147167600Y-90373200D01*
X151242598Y-90373200D02*
X151598198Y-90017600D01*
X152905400Y-92583000D02*
X152575200Y-92913200D01*
X151598198Y-90017600D02*
X151598198Y-92613198D01*
X151598198Y-92613198D02*
X151898200Y-92913200D01*
X151898200Y-92913200D02*
X152575200Y-92913200D01*
X139488000Y-89535000D02*
X140564000Y-89535000D01*
X140564000Y-89535000D02*
X140775200Y-89746200D01*
X140775200Y-89746200D02*
X140775200Y-90373200D01*
X140775200Y-90373200D02*
X139502300Y-90373200D01*
X139502300Y-90373200D02*
X139197500Y-90678000D01*
X142062200Y-90830400D02*
X141605000Y-90373200D01*
X141605000Y-90373200D02*
X140775200Y-90373200D01*
X141224000Y-97180400D02*
X142062200Y-96342200D01*
X140563600Y-97180400D02*
X141224000Y-97180400D01*
X139750800Y-97993200D02*
X140563600Y-97180400D01*
X139750800Y-104292400D02*
X139750800Y-97993200D01*
X142900400Y-107442000D02*
X139750800Y-104292400D01*
X143796936Y-107442000D02*
X142900400Y-107442000D01*
X144526000Y-107137200D02*
X144101736Y-107137200D01*
X144101736Y-107137200D02*
X143796936Y-107442000D01*
X153962100Y-94170500D02*
X153882000Y-94250600D01*
X154432000Y-93700600D02*
X153962100Y-94170500D01*
X153962100Y-94170500D02*
X153907900Y-94170500D01*
X153907900Y-94170500D02*
X152625200Y-95453200D01*
X152625200Y-95453200D02*
X152575200Y-95453200D01*
X147528271Y-100450129D02*
X149764220Y-98214180D01*
X149816820Y-98161580D02*
X149764220Y-98214180D01*
X149764220Y-98214180D02*
X152525200Y-95453200D01*
X150562680Y-98161580D02*
X149816820Y-98161580D01*
X151080380Y-98252280D02*
X150653380Y-98252280D01*
X150653380Y-98252280D02*
X150562680Y-98161580D01*
X151080380Y-98847820D02*
X151271820Y-99039260D01*
X151271820Y-99039260D02*
X151271820Y-99514660D01*
X151080380Y-98252280D02*
X151080380Y-98847820D01*
X152525200Y-95453200D02*
X152575200Y-95453200D01*
X147528271Y-106100871D02*
X147528271Y-100450129D01*
X148742400Y-107315000D02*
X147528271Y-106100871D01*
X154432000Y-91821000D02*
X154432000Y-93700600D01*
X137718800Y-93903800D02*
X136474200Y-92659200D01*
X137203518Y-89793302D02*
X137203518Y-89490661D01*
X150565759Y-88853701D02*
X151084641Y-88853701D01*
X138581590Y-88112589D02*
X143691414Y-88112589D01*
X150256447Y-88544389D02*
X150565759Y-88853701D01*
X138599800Y-93903800D02*
X137718800Y-93903800D01*
X137203518Y-89490661D02*
X138581590Y-88112589D01*
X154538401Y-88142801D02*
X154838400Y-88442800D01*
X143691414Y-88112589D02*
X144123214Y-88544389D01*
X144123214Y-88544389D02*
X150256447Y-88544389D01*
X136474200Y-90522620D02*
X137203518Y-89793302D01*
X151084641Y-88853701D02*
X151795541Y-88142801D01*
X139184000Y-94488000D02*
X138599800Y-93903800D01*
X136474200Y-92659200D02*
X136474200Y-90522620D01*
X151795541Y-88142801D02*
X154538401Y-88142801D01*
X139234000Y-94488000D02*
X139184000Y-94488000D01*
X139070500Y-95631000D02*
X139070500Y-104755100D01*
X139070500Y-104755100D02*
X144272000Y-109956600D01*
X144272000Y-109956600D02*
X145422536Y-109956600D01*
X145422536Y-109956600D02*
X145846800Y-109956600D01*
X140775200Y-95453200D02*
X139248300Y-95453200D01*
X139248300Y-95453200D02*
X139070500Y-95631000D01*
X139234000Y-94488000D02*
X139234000Y-95467500D01*
X139234000Y-95467500D02*
X139070500Y-95631000D01*
X137053668Y-90688348D02*
X137053668Y-90315073D01*
X138686804Y-88366600D02*
X143586200Y-88366600D01*
X150460545Y-89107712D02*
X153284488Y-89107712D01*
X153395401Y-88996799D02*
X153695400Y-88696800D01*
X138468001Y-91168501D02*
X137838247Y-91168501D01*
X153284488Y-89107712D02*
X153395401Y-88996799D01*
X144018000Y-88798400D02*
X150151233Y-88798400D01*
X137457525Y-89911216D02*
X137457525Y-89595879D01*
X137457525Y-89595879D02*
X138686804Y-88366600D01*
X137838247Y-91168501D02*
X137573242Y-90903496D01*
X137268816Y-90903496D02*
X137053668Y-90688348D01*
X137053668Y-90315073D02*
X137457525Y-89911216D01*
X139311000Y-92011500D02*
X138468001Y-91168501D01*
X150151233Y-88798400D02*
X150460545Y-89107712D01*
X143586200Y-88366600D02*
X144018000Y-88798400D01*
X139361000Y-92011500D02*
X139311000Y-92011500D01*
X137573242Y-90903496D02*
X137268816Y-90903496D01*
X145719800Y-108635800D02*
X143535400Y-108635800D01*
X139446000Y-104546400D02*
X139446000Y-97663000D01*
X143535400Y-108635800D02*
X139446000Y-104546400D01*
X139446000Y-97663000D02*
X140335000Y-96774000D01*
X141655800Y-96367600D02*
X141655800Y-93166800D01*
X140335000Y-96774000D02*
X141249400Y-96774000D01*
X141249400Y-96774000D02*
X141655800Y-96367600D01*
X141655800Y-93166800D02*
X141402200Y-92913200D01*
X141402200Y-92913200D02*
X140725200Y-92913200D01*
X139361000Y-92011500D02*
X139361000Y-92388500D01*
X139361000Y-92388500D02*
X139070500Y-92679000D01*
X139070500Y-92679000D02*
X139070500Y-93154500D01*
X139070500Y-93154500D02*
X140483900Y-93154500D01*
X140483900Y-93154500D02*
X140725200Y-92913200D01*
X134594600Y-107002664D02*
X134594600Y-106578400D01*
X139799024Y-113129024D02*
X135166109Y-108496109D01*
X134594600Y-107882876D02*
X134594600Y-107002664D01*
X135166109Y-108454385D02*
X134594600Y-107882876D01*
X135166109Y-108496109D02*
X135166109Y-108454385D01*
X149377400Y-111887000D02*
X148135376Y-113129024D01*
X148135376Y-113129024D02*
X139799024Y-113129024D01*
X135204200Y-106205473D02*
X135131099Y-106132372D01*
X148530597Y-110080009D02*
X145783806Y-112826800D01*
X145783806Y-112826800D02*
X140208000Y-112826800D01*
X135204200Y-107823000D02*
X135204200Y-106205473D01*
X135131099Y-106132372D02*
X134831100Y-105832373D01*
X134731027Y-105832373D02*
X134831100Y-105832373D01*
X134696200Y-105867200D02*
X134731027Y-105832373D01*
X140208000Y-112826800D02*
X135204200Y-107823000D01*
X133007067Y-108878329D02*
X133007067Y-104751459D01*
X133007067Y-104751459D02*
X133121400Y-104637126D01*
X133121400Y-104637126D02*
X133121400Y-88112600D01*
X134747000Y-110193998D02*
X134322736Y-110193998D01*
X134322736Y-110193998D02*
X133007067Y-108878329D01*
X133121400Y-88112600D02*
X133014999Y-88006199D01*
X133014999Y-88006199D02*
X132715000Y-87706200D01*
X140970000Y-118625202D02*
X141206501Y-118388701D01*
X141206501Y-118388701D02*
X141829025Y-118388701D01*
X141829025Y-118388701D02*
X142408699Y-117809027D01*
X142408699Y-117809027D02*
X142408699Y-117007001D01*
X142408699Y-117007001D02*
X142849600Y-116566100D01*
X136481299Y-111186523D02*
X134950534Y-109655758D01*
X136020611Y-115304398D02*
X135564599Y-114848386D01*
X134334627Y-109655758D02*
X133261078Y-108582209D01*
X136502140Y-88902540D02*
X136502140Y-88920318D01*
X136349740Y-88750140D02*
X136502140Y-88902540D01*
X133261078Y-108582209D02*
X133261078Y-104856673D01*
X134781866Y-89109903D02*
X134781866Y-88921530D01*
X135564599Y-114848386D02*
X135564599Y-113137051D01*
X136481299Y-112220351D02*
X136481299Y-111186523D01*
X135564599Y-113137051D02*
X136481299Y-112220351D01*
X134293990Y-89523641D02*
X134368128Y-89523641D01*
X136195658Y-88596058D02*
X136349740Y-88750140D01*
X133261078Y-104856673D02*
X133527800Y-104589951D01*
X133527800Y-90289831D02*
X134293990Y-89523641D01*
X135107338Y-88596058D02*
X136195658Y-88596058D01*
X133527800Y-104589951D02*
X133527800Y-90289831D01*
X134781866Y-88921530D02*
X135107338Y-88596058D01*
X134368128Y-89523641D02*
X134781866Y-89109903D01*
X134950534Y-109655758D02*
X134334627Y-109655758D01*
X136349740Y-88750140D02*
X136495657Y-88896057D01*
X140970000Y-117822002D02*
X141206501Y-118058503D01*
X141206501Y-118058503D02*
X141692251Y-118058503D01*
X141692251Y-118058503D02*
X142078501Y-117672253D01*
X142078501Y-117672253D02*
X142078501Y-117007001D01*
X142078501Y-117007001D02*
X141643100Y-116571600D01*
X134642042Y-89777652D02*
X134972368Y-89447326D01*
X133515089Y-108110276D02*
X133515089Y-104961887D01*
X133908800Y-90268056D02*
X134399204Y-89777652D01*
X134570069Y-109165256D02*
X133515089Y-108110276D01*
X133908800Y-104568176D02*
X133908800Y-90268056D01*
X133515089Y-104961887D02*
X133908800Y-104568176D01*
X134399204Y-89777652D02*
X134642042Y-89777652D01*
X134972368Y-89447326D02*
X135272367Y-89147327D01*
X135757500Y-98996500D02*
X134863256Y-98996500D01*
X134863256Y-98996500D02*
X134825156Y-99034600D01*
X135757500Y-101155500D02*
X135430500Y-101155500D01*
X135430500Y-101155500D02*
X134825156Y-100550156D01*
X134825156Y-100550156D02*
X134825156Y-100493998D01*
X135178800Y-102184200D02*
X135229600Y-102235000D01*
X135229600Y-102235000D02*
X135757500Y-102235000D01*
X134848600Y-102514400D02*
X135178800Y-102184200D01*
X135206009Y-100076000D02*
X135200957Y-100070948D01*
X135200957Y-100070948D02*
X134900958Y-99770949D01*
X135757500Y-100076000D02*
X135206009Y-100076000D01*
X135990798Y-111984910D02*
X135142090Y-111984910D01*
X135142090Y-111984910D02*
X134823200Y-112303800D01*
X134823200Y-112303800D02*
X134823200Y-112630800D01*
X151723986Y-111983387D02*
X152148250Y-111983387D01*
X151283989Y-111983387D02*
X151723986Y-111983387D01*
X149195998Y-114071378D02*
X151283989Y-111983387D01*
X142300328Y-114071378D02*
X149195998Y-114071378D01*
X142120002Y-113891052D02*
X142300328Y-114071378D01*
X139626348Y-113891052D02*
X142120002Y-113891052D01*
X135178800Y-118338600D02*
X139626348Y-113891052D01*
X134043336Y-118338600D02*
X135178800Y-118338600D01*
X133680200Y-117975464D02*
X134043336Y-118338600D01*
X133680200Y-117551200D02*
X133680200Y-117975464D01*
X156311600Y-108051600D02*
X157480000Y-109220000D01*
X156311600Y-106730800D02*
X156311600Y-108051600D01*
X155168980Y-105588180D02*
X156311600Y-106730800D01*
X154868981Y-105256055D02*
X155168980Y-105556054D01*
X155168980Y-105556054D02*
X155168980Y-105588180D01*
X155701358Y-105208945D02*
X156125622Y-105208945D01*
X156125622Y-105208945D02*
X157480000Y-106563323D01*
X157480000Y-106563323D02*
X157480000Y-106680000D01*
X156282501Y-104140000D02*
X156209988Y-104212513D01*
X156209988Y-104212513D02*
X155909989Y-104512512D01*
X157480000Y-104140000D02*
X156282501Y-104140000D01*
X149788482Y-102978169D02*
X148898500Y-102978169D01*
X151416638Y-114833411D02*
X153771600Y-112478449D01*
X153771600Y-112478449D02*
X153771600Y-107594400D01*
X148898500Y-102978169D02*
X148234411Y-102314080D01*
X149501180Y-99952220D02*
X150146259Y-99952220D01*
X148234411Y-101218989D02*
X149501180Y-99952220D01*
X148234411Y-102314080D02*
X148234411Y-101218989D01*
X149326589Y-114833411D02*
X151416638Y-114833411D01*
X150146259Y-99952220D02*
X150570523Y-99952220D01*
X153771600Y-107594400D02*
X153125640Y-106948440D01*
X144780000Y-119380000D02*
X149326589Y-114833411D01*
X153125640Y-106948440D02*
X153125640Y-106315327D01*
X153125640Y-106315327D02*
X149788482Y-102978169D01*
X150193234Y-100375113D02*
X150493233Y-100675112D01*
X149003714Y-102724158D02*
X148748654Y-102469098D01*
X149893696Y-102724158D02*
X149003714Y-102724158D01*
X153379651Y-106210113D02*
X149893696Y-102724158D01*
X149525823Y-100375113D02*
X150193234Y-100375113D01*
X154025611Y-107438386D02*
X153379651Y-106792426D01*
X154025611Y-112583663D02*
X154025611Y-107438386D01*
X154025589Y-112583685D02*
X154025611Y-112583663D01*
X151164476Y-117525800D02*
X154025589Y-114664687D01*
X154025589Y-114664687D02*
X154025589Y-112583685D01*
X148748654Y-101152282D02*
X149525823Y-100375113D01*
X147320000Y-119380000D02*
X149174200Y-117525800D01*
X153379651Y-106792426D02*
X153379651Y-106210113D01*
X148748654Y-102469098D02*
X148748654Y-101152282D01*
X149174200Y-117525800D02*
X151164476Y-117525800D01*
X150012679Y-101204039D02*
X149712680Y-100904040D01*
X150660275Y-101204039D02*
X150012679Y-101204039D01*
X155244800Y-100279200D02*
X154505681Y-101018319D01*
X154505681Y-101018319D02*
X150845995Y-101018319D01*
X157480000Y-99060000D02*
X156260800Y-100279200D01*
X150845995Y-101018319D02*
X150660275Y-101204039D01*
X156260800Y-100279200D02*
X155244800Y-100279200D01*
X154279622Y-107333172D02*
X153633662Y-106687212D01*
X149817987Y-102233648D02*
X149663428Y-102233648D01*
X153633662Y-106687212D02*
X153633662Y-106049323D01*
X149663428Y-102233648D02*
X149239164Y-102233648D01*
X149860000Y-119380000D02*
X149860000Y-119189500D01*
X149860000Y-119189500D02*
X154279622Y-114769878D01*
X154279622Y-114769878D02*
X154279622Y-107333172D01*
X153633662Y-106049323D02*
X149817987Y-102233648D01*
X154635200Y-106948744D02*
X154012618Y-106326162D01*
X149833361Y-101806872D02*
X149557713Y-101806872D01*
X154012618Y-106326162D02*
X154012618Y-105986129D01*
X154635200Y-117144800D02*
X154635200Y-106948744D01*
X152400000Y-119380000D02*
X154635200Y-117144800D01*
X154012618Y-105986129D02*
X149833361Y-101806872D01*
X149557713Y-101806872D02*
X149257714Y-101506873D01*
X134620000Y-117805200D02*
X138788157Y-113637043D01*
X138788157Y-113637043D02*
X142225218Y-113637043D01*
X151270874Y-111717101D02*
X151610619Y-111377356D01*
X151610619Y-107329309D02*
X151610619Y-106905045D01*
X151610619Y-111377356D02*
X151610619Y-107329309D01*
X151147499Y-111717101D02*
X151270874Y-111717101D01*
X149047233Y-113817367D02*
X151147499Y-111717101D01*
X142405542Y-113817367D02*
X149047233Y-113817367D01*
X142225218Y-113637043D02*
X142405542Y-113817367D01*
X149718660Y-104252989D02*
X149848529Y-104252989D01*
X149848529Y-104252989D02*
X152247600Y-106652060D01*
X142195114Y-114325389D02*
X142014786Y-114145061D01*
X152247600Y-106652060D02*
X152247600Y-106974640D01*
X152247600Y-106974640D02*
X152049480Y-107172760D01*
X151193500Y-112674400D02*
X149542511Y-114325389D01*
X152049480Y-107172760D02*
X152049480Y-111086900D01*
X149542511Y-114325389D02*
X142195114Y-114325389D01*
X152049480Y-111086900D02*
X152638760Y-111676180D01*
X152638760Y-111676180D02*
X152638760Y-112361980D01*
X152638760Y-112361980D02*
X152326340Y-112674400D01*
X152326340Y-112674400D02*
X151193500Y-112674400D01*
X142014786Y-114145061D02*
X140726075Y-114145061D01*
X140726075Y-114145061D02*
X137388600Y-117482536D01*
X137388600Y-117482536D02*
X137388600Y-117906800D01*
X151053800Y-111226600D02*
X151053800Y-106617917D01*
X151053800Y-106617917D02*
X150781352Y-106345469D01*
X155752808Y-100939600D02*
X156819600Y-100939600D01*
X156819600Y-100939600D02*
X157480000Y-101600000D01*
X155997211Y-97576350D02*
X155222221Y-98351340D01*
X154889200Y-99346936D02*
X154889200Y-99771200D01*
X157480000Y-93980000D02*
X155997211Y-95462789D01*
X155997211Y-95462789D02*
X155997211Y-97576350D01*
X155222221Y-98351340D02*
X155222221Y-99013915D01*
X155222221Y-99013915D02*
X154889200Y-99346936D01*
X142849600Y-115339100D02*
X142849600Y-115666100D01*
X141049131Y-114399069D02*
X141909569Y-114399069D01*
X138226808Y-118313192D02*
X138226809Y-117221391D01*
X141909569Y-114399069D02*
X142849600Y-115339100D01*
X137160000Y-119380000D02*
X138226808Y-118313192D01*
X138226809Y-117221391D02*
X141049131Y-114399069D01*
X138556999Y-118236999D02*
X138556999Y-117358161D01*
X138556999Y-117358161D02*
X141185900Y-114729260D01*
X139700000Y-119380000D02*
X138556999Y-118236999D01*
X141185900Y-114729260D02*
X141749325Y-114729260D01*
X141749325Y-114729260D02*
X142122101Y-115102036D01*
X142122101Y-115102036D02*
X142122101Y-115192599D01*
X142122101Y-115192599D02*
X141643100Y-115671600D01*
X157480000Y-96520000D02*
X155614320Y-98385680D01*
X155614320Y-98385680D02*
X155614320Y-99294532D01*
X155614320Y-99294532D02*
X155614320Y-99718796D01*
X154847480Y-106231589D02*
X154547481Y-105931590D01*
X154889211Y-106273320D02*
X154847480Y-106231589D01*
X154889211Y-109169211D02*
X154889211Y-106273320D01*
X157480000Y-111760000D02*
X154889211Y-109169211D01*
X155143200Y-111658400D02*
X155143200Y-112082664D01*
X155143200Y-112082664D02*
X157360536Y-114300000D01*
X157360536Y-114300000D02*
X157480000Y-114300000D01*
X147980400Y-101109780D02*
X149585401Y-99504779D01*
X149585401Y-99504779D02*
X149885400Y-99204780D01*
X153243572Y-111731765D02*
X152366699Y-110854892D01*
X152871629Y-106679687D02*
X149424122Y-103232180D01*
X153243572Y-112435935D02*
X153243572Y-111731765D01*
X152871629Y-107080126D02*
X152871629Y-106679687D01*
X151100107Y-114579400D02*
X153243572Y-112435935D01*
X148793286Y-103232180D02*
X147980400Y-102419294D01*
X149424122Y-103232180D02*
X148793286Y-103232180D01*
X153108120Y-107316616D02*
X152871629Y-107080126D01*
X153108120Y-109665538D02*
X153108120Y-107316616D01*
X152366699Y-110854892D02*
X152366699Y-110406959D01*
X152366699Y-110406959D02*
X153108120Y-109665538D01*
X142240000Y-119380000D02*
X147040600Y-114579400D01*
X147040600Y-114579400D02*
X151100107Y-114579400D01*
X147980400Y-102419294D02*
X147980400Y-101109780D01*
M02*
