G04 #@! TF.FileFunction,Copper,L1,Top,Signal*
%FSLAX46Y46*%
G04 Gerber Fmt 4.6, Leading zero omitted, Abs format (unit mm)*
G04 Created by KiCad (PCBNEW 4.0.6) date 01/21/18 22:34:32*
%MOMM*%
%LPD*%
G01*
G04 APERTURE LIST*
%ADD10C,0.100000*%
%ADD11C,0.599440*%
%ADD12R,0.600000X0.500000*%
%ADD13R,0.500000X0.600000*%
%ADD14C,1.524000*%
%ADD15R,1.500000X0.800000*%
%ADD16R,0.800000X1.500000*%
%ADD17R,1.100000X1.100000*%
%ADD18R,0.500000X0.900000*%
%ADD19R,0.400000X0.600000*%
%ADD20R,1.000000X1.050000*%
%ADD21R,1.050000X2.200000*%
%ADD22R,0.700000X0.600000*%
%ADD23R,0.600000X0.400000*%
%ADD24R,1.000000X1.000000*%
%ADD25R,0.500000X1.100000*%
%ADD26R,0.600000X0.700000*%
%ADD27R,1.060000X0.650000*%
%ADD28R,1.250000X1.000000*%
%ADD29R,0.533400X0.300000*%
%ADD30R,0.800000X0.750000*%
%ADD31R,0.300000X0.533400*%
%ADD32C,0.600000*%
%ADD33C,0.127000*%
%ADD34C,0.508000*%
%ADD35C,0.254000*%
G04 APERTURE END LIST*
D10*
D11*
X149583140Y-91462860D03*
X151020780Y-91749880D03*
X144820640Y-109245400D03*
X148021040Y-117081300D03*
X146941540Y-116512340D03*
X152001220Y-118148100D03*
X156248100Y-98851720D03*
X152593040Y-108973620D03*
X155625800Y-108473240D03*
X156065220Y-109367320D03*
X155321000Y-110517940D03*
X155938220Y-111445040D03*
X151030940Y-118856760D03*
X143070580Y-117718840D03*
X139895580Y-117777260D03*
X144279620Y-118264940D03*
X133639560Y-116560600D03*
X141516100Y-110385860D03*
X140096240Y-109926120D03*
X138506200Y-110002320D03*
X139674600Y-110980220D03*
X140728700Y-111594900D03*
X142781020Y-111612680D03*
X144236440Y-111325660D03*
X143451580Y-110157260D03*
X142013940Y-108892340D03*
X140192760Y-108585000D03*
X138869420Y-108872020D03*
X140959840Y-107627420D03*
X139235180Y-107261660D03*
X138046460Y-108049060D03*
X137452100Y-109197140D03*
X136723120Y-108066840D03*
X137241280Y-106878120D03*
X139176760Y-105920540D03*
X138102340Y-105516680D03*
X136321800Y-105824020D03*
X138257280Y-104330500D03*
X136664700Y-104673400D03*
X135361680Y-105039160D03*
X135267700Y-103774240D03*
X138026140Y-102969060D03*
X143548100Y-106456480D03*
X145923000Y-105920540D03*
X144678400Y-105288080D03*
X143047720Y-105422700D03*
X141610080Y-104579420D03*
X140901420Y-102834440D03*
X142646400Y-103428800D03*
X144084040Y-103830120D03*
X145656300Y-104251760D03*
X145483580Y-103121460D03*
X144198340Y-102316280D03*
X142684500Y-101627940D03*
X140766800Y-101071680D03*
X138236960Y-101760020D03*
X137873740Y-100495100D03*
X137949940Y-99174300D03*
X138198860Y-98023680D03*
X137355580Y-97391220D03*
X140538200Y-99192080D03*
X142090140Y-99651820D03*
X143586200Y-100342700D03*
X145656300Y-99806760D03*
X144640300Y-99039680D03*
X143009620Y-98425000D03*
X141226540Y-97965260D03*
X147360640Y-91965780D03*
X147688300Y-90949780D03*
X150256240Y-89646760D03*
X149755860Y-87810340D03*
X148610320Y-87802720D03*
X149067520Y-89646760D03*
X147726400Y-89626440D03*
X142242540Y-90182700D03*
X140441680Y-86847680D03*
D12*
X151076840Y-114589560D03*
X149976840Y-114589560D03*
D11*
X144322800Y-97332800D03*
X142595600Y-95148400D03*
X144475200Y-94284800D03*
X144526000Y-95808800D03*
X146405600Y-90373200D03*
X145745200Y-91236800D03*
X141274800Y-91389200D03*
X142646400Y-91084400D03*
X141122400Y-89204800D03*
X141274800Y-87325200D03*
X143306800Y-89001600D03*
X142595600Y-87071200D03*
X144678400Y-87071200D03*
X146100800Y-89357200D03*
X145389600Y-90220800D03*
D13*
X156057600Y-106485600D03*
X156057600Y-107585600D03*
D10*
G36*
X153728895Y-105887951D02*
X153552118Y-106064728D01*
X153057143Y-105569753D01*
X153233920Y-105392976D01*
X153728895Y-105887951D01*
X153728895Y-105887951D01*
G37*
G36*
X154082449Y-105534398D02*
X153905672Y-105711175D01*
X153410697Y-105216200D01*
X153587474Y-105039423D01*
X154082449Y-105534398D01*
X154082449Y-105534398D01*
G37*
G36*
X154436002Y-105180844D02*
X154259225Y-105357621D01*
X153764250Y-104862646D01*
X153941027Y-104685869D01*
X154436002Y-105180844D01*
X154436002Y-105180844D01*
G37*
G36*
X154789556Y-104827291D02*
X154612779Y-105004068D01*
X154117804Y-104509093D01*
X154294581Y-104332316D01*
X154789556Y-104827291D01*
X154789556Y-104827291D01*
G37*
G36*
X155143109Y-104473738D02*
X154966332Y-104650515D01*
X154471357Y-104155540D01*
X154648134Y-103978763D01*
X155143109Y-104473738D01*
X155143109Y-104473738D01*
G37*
G36*
X155496662Y-104120184D02*
X155319885Y-104296961D01*
X154824910Y-103801986D01*
X155001687Y-103625209D01*
X155496662Y-104120184D01*
X155496662Y-104120184D01*
G37*
G36*
X155850216Y-103766631D02*
X155673439Y-103943408D01*
X155178464Y-103448433D01*
X155355241Y-103271656D01*
X155850216Y-103766631D01*
X155850216Y-103766631D01*
G37*
G36*
X156203769Y-103413077D02*
X156026992Y-103589854D01*
X155532017Y-103094879D01*
X155708794Y-102918102D01*
X156203769Y-103413077D01*
X156203769Y-103413077D01*
G37*
G36*
X156026992Y-101998864D02*
X156203769Y-102175641D01*
X155708794Y-102670616D01*
X155532017Y-102493839D01*
X156026992Y-101998864D01*
X156026992Y-101998864D01*
G37*
G36*
X155673439Y-101645310D02*
X155850216Y-101822087D01*
X155355241Y-102317062D01*
X155178464Y-102140285D01*
X155673439Y-101645310D01*
X155673439Y-101645310D01*
G37*
G36*
X155319885Y-101291757D02*
X155496662Y-101468534D01*
X155001687Y-101963509D01*
X154824910Y-101786732D01*
X155319885Y-101291757D01*
X155319885Y-101291757D01*
G37*
G36*
X154966332Y-100938203D02*
X155143109Y-101114980D01*
X154648134Y-101609955D01*
X154471357Y-101433178D01*
X154966332Y-100938203D01*
X154966332Y-100938203D01*
G37*
G36*
X154612779Y-100584650D02*
X154789556Y-100761427D01*
X154294581Y-101256402D01*
X154117804Y-101079625D01*
X154612779Y-100584650D01*
X154612779Y-100584650D01*
G37*
G36*
X154259225Y-100231097D02*
X154436002Y-100407874D01*
X153941027Y-100902849D01*
X153764250Y-100726072D01*
X154259225Y-100231097D01*
X154259225Y-100231097D01*
G37*
G36*
X153905672Y-99877543D02*
X154082449Y-100054320D01*
X153587474Y-100549295D01*
X153410697Y-100372518D01*
X153905672Y-99877543D01*
X153905672Y-99877543D01*
G37*
G36*
X153552118Y-99523990D02*
X153728895Y-99700767D01*
X153233920Y-100195742D01*
X153057143Y-100018965D01*
X153552118Y-99523990D01*
X153552118Y-99523990D01*
G37*
G36*
X152809657Y-100018965D02*
X152632880Y-100195742D01*
X152137905Y-99700767D01*
X152314682Y-99523990D01*
X152809657Y-100018965D01*
X152809657Y-100018965D01*
G37*
G36*
X152456103Y-100372518D02*
X152279326Y-100549295D01*
X151784351Y-100054320D01*
X151961128Y-99877543D01*
X152456103Y-100372518D01*
X152456103Y-100372518D01*
G37*
G36*
X152102550Y-100726072D02*
X151925773Y-100902849D01*
X151430798Y-100407874D01*
X151607575Y-100231097D01*
X152102550Y-100726072D01*
X152102550Y-100726072D01*
G37*
G36*
X151748996Y-101079625D02*
X151572219Y-101256402D01*
X151077244Y-100761427D01*
X151254021Y-100584650D01*
X151748996Y-101079625D01*
X151748996Y-101079625D01*
G37*
G36*
X151395443Y-101433178D02*
X151218666Y-101609955D01*
X150723691Y-101114980D01*
X150900468Y-100938203D01*
X151395443Y-101433178D01*
X151395443Y-101433178D01*
G37*
G36*
X151041890Y-101786732D02*
X150865113Y-101963509D01*
X150370138Y-101468534D01*
X150546915Y-101291757D01*
X151041890Y-101786732D01*
X151041890Y-101786732D01*
G37*
G36*
X150688336Y-102140285D02*
X150511559Y-102317062D01*
X150016584Y-101822087D01*
X150193361Y-101645310D01*
X150688336Y-102140285D01*
X150688336Y-102140285D01*
G37*
G36*
X150334783Y-102493839D02*
X150158006Y-102670616D01*
X149663031Y-102175641D01*
X149839808Y-101998864D01*
X150334783Y-102493839D01*
X150334783Y-102493839D01*
G37*
G36*
X150158006Y-102918102D02*
X150334783Y-103094879D01*
X149839808Y-103589854D01*
X149663031Y-103413077D01*
X150158006Y-102918102D01*
X150158006Y-102918102D01*
G37*
G36*
X150511559Y-103271656D02*
X150688336Y-103448433D01*
X150193361Y-103943408D01*
X150016584Y-103766631D01*
X150511559Y-103271656D01*
X150511559Y-103271656D01*
G37*
G36*
X150865113Y-103625209D02*
X151041890Y-103801986D01*
X150546915Y-104296961D01*
X150370138Y-104120184D01*
X150865113Y-103625209D01*
X150865113Y-103625209D01*
G37*
G36*
X151218666Y-103978763D02*
X151395443Y-104155540D01*
X150900468Y-104650515D01*
X150723691Y-104473738D01*
X151218666Y-103978763D01*
X151218666Y-103978763D01*
G37*
G36*
X151572219Y-104332316D02*
X151748996Y-104509093D01*
X151254021Y-105004068D01*
X151077244Y-104827291D01*
X151572219Y-104332316D01*
X151572219Y-104332316D01*
G37*
G36*
X151925773Y-104685869D02*
X152102550Y-104862646D01*
X151607575Y-105357621D01*
X151430798Y-105180844D01*
X151925773Y-104685869D01*
X151925773Y-104685869D01*
G37*
G36*
X152279326Y-105039423D02*
X152456103Y-105216200D01*
X151961128Y-105711175D01*
X151784351Y-105534398D01*
X152279326Y-105039423D01*
X152279326Y-105039423D01*
G37*
G36*
X152632880Y-105392976D02*
X152809657Y-105569753D01*
X152314682Y-106064728D01*
X152137905Y-105887951D01*
X152632880Y-105392976D01*
X152632880Y-105392976D01*
G37*
G36*
X154153159Y-101574600D02*
X152933400Y-102794359D01*
X151713641Y-101574600D01*
X152933400Y-100354841D01*
X154153159Y-101574600D01*
X154153159Y-101574600D01*
G37*
G36*
X152933400Y-102794359D02*
X151713641Y-104014118D01*
X150493882Y-102794359D01*
X151713641Y-101574600D01*
X152933400Y-102794359D01*
X152933400Y-102794359D01*
G37*
G36*
X155372918Y-102794359D02*
X154153159Y-104014118D01*
X152933400Y-102794359D01*
X154153159Y-101574600D01*
X155372918Y-102794359D01*
X155372918Y-102794359D01*
G37*
G36*
X154153159Y-104014118D02*
X152933400Y-105233877D01*
X151713641Y-104014118D01*
X152933400Y-102794359D01*
X154153159Y-104014118D01*
X154153159Y-104014118D01*
G37*
D14*
X157480000Y-116840000D03*
X157480000Y-114300000D03*
X157480000Y-111760000D03*
X157480000Y-109220000D03*
X157480000Y-106680000D03*
X132080000Y-116840000D03*
X134620000Y-119380000D03*
X137160000Y-119380000D03*
X139700000Y-119380000D03*
X142240000Y-119380000D03*
X144780000Y-119380000D03*
X147320000Y-119380000D03*
X149860000Y-119380000D03*
X152400000Y-119380000D03*
X154940000Y-119380000D03*
X157480000Y-88900000D03*
X132080000Y-88900000D03*
X157480000Y-104140000D03*
X157480000Y-101600000D03*
X157480000Y-99060000D03*
X157480000Y-96520000D03*
X157480000Y-93980000D03*
X157480000Y-91440000D03*
D11*
X139547600Y-87503000D03*
X144576800Y-90982800D03*
D15*
X133385000Y-93521000D03*
X133385000Y-94621000D03*
X133385000Y-95721000D03*
X133385000Y-96821000D03*
X133385000Y-97921000D03*
X133385000Y-99021000D03*
X133385000Y-100121000D03*
X133385000Y-101221000D03*
X133385000Y-102321000D03*
X133385000Y-103421000D03*
X133385000Y-104521000D03*
X133385000Y-105621000D03*
X133385000Y-106721000D03*
X133385000Y-107821000D03*
X133385000Y-108921000D03*
X133385000Y-110021000D03*
X133385000Y-111121000D03*
X133385000Y-112221000D03*
X133385000Y-113321000D03*
X133385000Y-114421000D03*
X133385000Y-115521000D03*
D16*
X134835000Y-116471000D03*
X135935000Y-116471000D03*
X137035000Y-116471000D03*
X138135000Y-116471000D03*
X139235000Y-116471000D03*
X140335000Y-116471000D03*
X141435000Y-116471000D03*
X142535000Y-116471000D03*
X143635000Y-116471000D03*
X144735000Y-116471000D03*
X145835000Y-116471000D03*
D15*
X147285000Y-115521000D03*
X147285000Y-114421000D03*
X147285000Y-113321000D03*
X147285000Y-112221000D03*
X147285000Y-111121000D03*
X147285000Y-110021000D03*
X147285000Y-108921000D03*
X147285000Y-107821000D03*
X147285000Y-106721000D03*
X147285000Y-105621000D03*
X147285000Y-104521000D03*
X147285000Y-103421000D03*
X147285000Y-102321000D03*
X147285000Y-101221000D03*
X147285000Y-100121000D03*
X147285000Y-99021000D03*
X147285000Y-97921000D03*
X147285000Y-96821000D03*
X147285000Y-95721000D03*
X147285000Y-94621000D03*
X147285000Y-93521000D03*
D16*
X145835000Y-92571000D03*
X144735000Y-92571000D03*
X143635000Y-92571000D03*
X142535000Y-92571000D03*
X141435000Y-92571000D03*
X140335000Y-92571000D03*
X139235000Y-92571000D03*
X138135000Y-92571000D03*
X137035000Y-92571000D03*
X135935000Y-92571000D03*
X134835000Y-92571000D03*
D17*
X135085000Y-94271000D03*
X137185000Y-94271000D03*
X139285000Y-94271000D03*
X141385000Y-94271000D03*
X143485000Y-94271000D03*
X145585000Y-94271000D03*
X135085000Y-96071000D03*
X137185000Y-96071000D03*
X139285000Y-96071000D03*
X141385000Y-96071000D03*
X143485000Y-96071000D03*
X145585000Y-96071000D03*
X135085000Y-97871000D03*
X145585000Y-97871000D03*
X135085000Y-101471000D03*
X145585000Y-101471000D03*
X135085000Y-107571000D03*
X145585000Y-107571000D03*
X135085000Y-111171000D03*
X145585000Y-111171000D03*
X135085000Y-112771000D03*
X137185000Y-112771000D03*
X139285000Y-112771000D03*
X141385000Y-112771000D03*
X143485000Y-112771000D03*
X145585000Y-112771000D03*
X135085000Y-114571000D03*
X137035000Y-114571000D03*
X139185000Y-114571000D03*
X141385000Y-114571000D03*
X143485000Y-114571000D03*
X145585000Y-114571000D03*
D18*
X156305380Y-94782640D03*
X154805380Y-94782640D03*
D19*
X138912600Y-118211600D03*
X138012600Y-118211600D03*
X135186000Y-90868500D03*
X136086000Y-90868500D03*
X135186000Y-89725500D03*
X136086000Y-89725500D03*
X133408000Y-90868500D03*
X134308000Y-90868500D03*
D12*
X134281000Y-89725500D03*
X133181000Y-89725500D03*
D20*
X143662400Y-90221800D03*
D21*
X145137400Y-88696800D03*
D20*
X143662400Y-87171800D03*
D21*
X142187400Y-88696800D03*
D13*
X149021800Y-93691800D03*
X149021800Y-92591800D03*
X150114000Y-94674600D03*
X150114000Y-95774600D03*
X149047200Y-94674600D03*
X149047200Y-95774600D03*
X150114000Y-93691800D03*
X150114000Y-92591800D03*
D22*
X133593840Y-87114380D03*
X133593840Y-88214380D03*
X136070340Y-87063400D03*
X136070340Y-88163400D03*
D23*
X134749540Y-88491060D03*
X134749540Y-87591060D03*
D19*
X149725800Y-108204000D03*
X148825800Y-108204000D03*
D23*
X148971000Y-113969800D03*
X148971000Y-113069800D03*
D19*
X133673000Y-118237000D03*
X132773000Y-118237000D03*
D23*
X137358120Y-88562180D03*
X137358120Y-87662180D03*
D24*
X153741500Y-90797000D03*
D25*
X152336500Y-93197000D03*
X153606500Y-93197000D03*
X154876500Y-93197000D03*
X156146500Y-93197000D03*
X156146500Y-87397000D03*
X154876500Y-87397000D03*
X153606500Y-87397000D03*
X152336500Y-87397000D03*
D24*
X153741500Y-89797000D03*
X154741500Y-90797000D03*
X154741500Y-89797000D03*
D23*
X150723600Y-108958800D03*
X150723600Y-108058800D03*
X150901400Y-111894200D03*
X150901400Y-112794200D03*
D13*
X156133800Y-115840600D03*
X156133800Y-114740600D03*
D10*
G36*
X154727218Y-99161684D02*
X154373664Y-99515238D01*
X153949400Y-99090974D01*
X154302954Y-98737420D01*
X154727218Y-99161684D01*
X154727218Y-99161684D01*
G37*
G36*
X153949400Y-98383866D02*
X153595846Y-98737420D01*
X153171582Y-98313156D01*
X153525136Y-97959602D01*
X153949400Y-98383866D01*
X153949400Y-98383866D01*
G37*
D26*
X151781600Y-117068600D03*
X150681600Y-117068600D03*
D19*
X136263800Y-118186200D03*
X135363800Y-118186200D03*
X149776600Y-117068600D03*
X148876600Y-117068600D03*
D27*
X154803200Y-115641200D03*
X154803200Y-114691200D03*
X154803200Y-113741200D03*
X152603200Y-113741200D03*
X152603200Y-115641200D03*
D19*
X146500000Y-118211600D03*
X145600000Y-118211600D03*
X149040000Y-118211600D03*
X148140000Y-118211600D03*
D28*
X151511000Y-94834200D03*
X151511000Y-96834200D03*
X153365200Y-94808800D03*
X153365200Y-96808800D03*
D29*
X148954000Y-110532800D03*
X148954000Y-109532800D03*
X150114000Y-110032800D03*
X148924400Y-112336200D03*
X148924400Y-111336200D03*
X150084400Y-111836200D03*
D30*
X149582440Y-115811300D03*
X151082440Y-115811300D03*
X152946100Y-117195600D03*
X154446100Y-117195600D03*
D31*
X148953600Y-105693600D03*
X149953600Y-105693600D03*
X149453600Y-106853600D03*
D23*
X149047200Y-103829700D03*
X149047200Y-104729700D03*
D19*
X154221600Y-111658400D03*
X153321600Y-111658400D03*
D10*
G36*
X151677123Y-97805770D02*
X152384230Y-98512877D01*
X152030677Y-98866430D01*
X151323570Y-98159323D01*
X151677123Y-97805770D01*
X151677123Y-97805770D01*
G37*
G36*
X150899305Y-98583588D02*
X151606412Y-99290695D01*
X151252859Y-99644248D01*
X150545752Y-98937141D01*
X150899305Y-98583588D01*
X150899305Y-98583588D01*
G37*
D32*
X137688769Y-90373658D03*
X153026226Y-99441232D03*
X132537200Y-90220800D03*
X153364846Y-114568244D03*
X136657500Y-103220100D03*
X156375100Y-102844600D03*
X137337800Y-91393998D03*
X138176000Y-96469200D03*
X152577800Y-91211400D03*
X156946600Y-113004600D03*
X149701086Y-105012376D03*
X134634645Y-90268153D03*
X136055100Y-113639600D03*
X150334211Y-86874226D03*
X151598198Y-90017600D03*
X144526000Y-107137200D03*
X154432000Y-91821000D03*
X148742400Y-107315000D03*
X154838400Y-88442800D03*
X145846800Y-109956600D03*
X153695400Y-88696800D03*
X145719800Y-108635800D03*
X134594600Y-106578400D03*
X149377400Y-111887000D03*
X134831100Y-105832373D03*
X148530597Y-110080009D03*
X132715000Y-87706200D03*
X134747000Y-110193998D03*
X140970000Y-118625202D03*
X136502140Y-88920318D03*
X136020611Y-115304398D03*
X140970000Y-117822002D03*
X135272367Y-89147327D03*
X134570069Y-109165256D03*
X134825156Y-99034600D03*
X134825156Y-100493998D03*
X134848600Y-102514400D03*
X134900958Y-99770949D03*
X135990798Y-111984910D03*
X152148250Y-111983387D03*
X133680200Y-117551200D03*
X154868981Y-105256055D03*
X155701358Y-105208945D03*
X155909989Y-104512512D03*
X150570523Y-99952220D03*
X150493233Y-100675112D03*
X149712680Y-100904040D03*
X149239164Y-102233648D03*
X149257714Y-101506873D03*
X151610619Y-106905045D03*
X134620000Y-117805200D03*
X149718660Y-104252989D03*
X137388600Y-117906800D03*
X150781352Y-106345469D03*
X151053800Y-111226600D03*
X155752808Y-100939600D03*
X154889200Y-99771200D03*
X155614320Y-99718796D03*
X156487712Y-95787723D03*
X155727400Y-94818200D03*
X152946100Y-97735802D03*
X152857200Y-110642400D03*
X152617610Y-107543600D03*
X150261610Y-107315000D03*
X149606000Y-118211600D03*
X150952200Y-113665000D03*
X152603200Y-114706400D03*
X148462012Y-103782515D03*
X134165340Y-89032080D03*
X148488400Y-109067600D03*
X148461765Y-111806806D03*
X136334500Y-97345500D03*
X154547481Y-105931590D03*
X155143200Y-111658400D03*
X149885400Y-99204780D03*
D33*
X153026226Y-99493073D02*
X153026226Y-99441232D01*
X153393019Y-99859866D02*
X153026226Y-99493073D01*
X132943600Y-89814400D02*
X132943600Y-89763600D01*
X132943600Y-89763600D02*
X132080000Y-88900000D01*
X132537200Y-90220800D02*
X132943600Y-89814400D01*
X133181000Y-89725500D02*
X133032500Y-89725500D01*
X133032500Y-89725500D02*
X132537200Y-90220800D01*
D34*
X153487802Y-114691200D02*
X153364846Y-114568244D01*
X154803200Y-114691200D02*
X153487802Y-114691200D01*
D33*
X153393019Y-99859866D02*
X152933400Y-100319485D01*
X152933400Y-100319485D02*
X152933400Y-101574600D01*
X155867893Y-103253978D02*
X155965722Y-103253978D01*
X155965722Y-103253978D02*
X156375100Y-102844600D01*
D35*
X153365200Y-96808800D02*
X155127693Y-96808800D01*
X155203591Y-96732902D02*
X155503590Y-96432903D01*
X155127693Y-96808800D02*
X155203591Y-96732902D01*
D33*
X132080000Y-116840000D02*
X133045200Y-116840000D01*
D35*
X151511000Y-96834200D02*
X153339800Y-96834200D01*
X153339800Y-96834200D02*
X153365200Y-96808800D01*
X155867893Y-103253978D02*
X155857378Y-103253978D01*
X155857378Y-103253978D02*
X155397759Y-102794359D01*
X155397759Y-102794359D02*
X154153159Y-102794359D01*
D34*
X156133800Y-114740600D02*
X156083000Y-113868200D01*
X156083000Y-113868200D02*
X156946600Y-113004600D01*
X156133800Y-114740600D02*
X154852600Y-114740600D01*
X154852600Y-114740600D02*
X154803200Y-114691200D01*
D33*
X139285000Y-95690000D02*
X139285000Y-96613000D01*
X139285000Y-96613000D02*
X139319000Y-96647000D01*
X137160000Y-96392000D02*
X137160000Y-96647000D01*
X137185000Y-95690000D02*
X137185000Y-96367000D01*
X137185000Y-96367000D02*
X137160000Y-96392000D01*
D34*
X143662400Y-90221800D02*
X143662400Y-92543600D01*
X143662400Y-92543600D02*
X143635000Y-92571000D01*
D33*
X149453600Y-105257600D02*
X149698824Y-105012376D01*
X149698824Y-105012376D02*
X149701086Y-105012376D01*
X149453600Y-106853600D02*
X149453600Y-105257600D01*
X149047200Y-104742400D02*
X149047200Y-105069400D01*
X149047200Y-105069400D02*
X149235400Y-105257600D01*
X149235400Y-105257600D02*
X149453600Y-105257600D01*
X134308000Y-90868500D02*
X134308000Y-90594798D01*
X134308000Y-90594798D02*
X134634645Y-90268153D01*
X134344499Y-113452999D02*
X134531100Y-113639600D01*
X134531100Y-113639600D02*
X136055100Y-113639600D01*
X133385000Y-112221000D02*
X133735000Y-112221000D01*
X133735000Y-112221000D02*
X134344499Y-112830499D01*
X134344499Y-112830499D02*
X134344499Y-113452999D01*
X134308000Y-90868500D02*
X134308000Y-89752500D01*
X134308000Y-89752500D02*
X134281000Y-89725500D01*
X152336500Y-87397000D02*
X150856985Y-87397000D01*
X150856985Y-87397000D02*
X150334211Y-86874226D01*
X151333200Y-89077300D02*
X151333200Y-89752602D01*
X151333200Y-89752602D02*
X151598198Y-90017600D01*
X152336500Y-87397000D02*
X152336500Y-88074000D01*
X152336500Y-88074000D02*
X151333200Y-89077300D01*
X147285000Y-106721000D02*
X144942200Y-106721000D01*
X144942200Y-106721000D02*
X144526000Y-107137200D01*
X154876500Y-93197000D02*
X154876500Y-92265500D01*
X154876500Y-92265500D02*
X154432000Y-91821000D01*
X148005800Y-108559600D02*
X148435299Y-108130101D01*
X148435299Y-108130101D02*
X148435299Y-107622101D01*
X148435299Y-107622101D02*
X148742400Y-107315000D01*
X147996400Y-108559600D02*
X148005800Y-108559600D01*
X147285000Y-108921000D02*
X147635000Y-108921000D01*
X147635000Y-108921000D02*
X147996400Y-108559600D01*
X154838400Y-88442800D02*
X154838400Y-87435100D01*
X154838400Y-87435100D02*
X154876500Y-87397000D01*
X147285000Y-110021000D02*
X145911200Y-110021000D01*
X145911200Y-110021000D02*
X145846800Y-109956600D01*
X153695400Y-88696800D02*
X153695400Y-87485900D01*
X153695400Y-87485900D02*
X153606500Y-87397000D01*
X147285000Y-107821000D02*
X146935000Y-107821000D01*
X146935000Y-107821000D02*
X146120200Y-108635800D01*
X146120200Y-108635800D02*
X145719800Y-108635800D01*
D34*
X153365200Y-94808800D02*
X154779220Y-94808800D01*
X154779220Y-94808800D02*
X154805380Y-94782640D01*
X151511000Y-94834200D02*
X153339800Y-94834200D01*
X153339800Y-94834200D02*
X153365200Y-94808800D01*
X153391360Y-94782640D02*
X153365200Y-94808800D01*
X149021800Y-93691800D02*
X149021800Y-94649200D01*
X149021800Y-94649200D02*
X149047200Y-94674600D01*
X150114000Y-93691800D02*
X150114000Y-94674600D01*
X151511000Y-94834200D02*
X150612600Y-94834200D01*
X150612600Y-94834200D02*
X150453000Y-94674600D01*
X150453000Y-94674600D02*
X150114000Y-94674600D01*
X153374600Y-94818200D02*
X153365200Y-94808800D01*
X147285000Y-95721000D02*
X147285000Y-94621000D01*
X150114000Y-93691800D02*
X149021800Y-93691800D01*
X149021800Y-93691800D02*
X147455800Y-93691800D01*
X147455800Y-93691800D02*
X147285000Y-93521000D01*
X149047200Y-94674600D02*
X147338600Y-94674600D01*
X147338600Y-94674600D02*
X147285000Y-94621000D01*
X150114000Y-94674600D02*
X149047200Y-94674600D01*
D33*
X133769100Y-87492840D02*
X133769100Y-87289640D01*
X133769100Y-87289640D02*
X133593840Y-87114380D01*
X133867320Y-87591060D02*
X133769100Y-87492840D01*
X134749540Y-87591060D02*
X133867320Y-87591060D01*
X137358120Y-87662180D02*
X137358120Y-87419180D01*
X136857400Y-87373460D02*
X137312400Y-87373460D01*
X137312400Y-87373460D02*
X137358120Y-87419180D01*
X136070340Y-87063400D02*
X136547340Y-87063400D01*
X136547340Y-87063400D02*
X136857400Y-87373460D01*
X149631400Y-113284000D02*
X149631400Y-112565264D01*
X149631400Y-112565264D02*
X149377400Y-112311264D01*
X149377400Y-112311264D02*
X149377400Y-111887000D01*
X149402800Y-113512600D02*
X149631400Y-113284000D01*
X149101200Y-113512600D02*
X149402800Y-113512600D01*
X148971000Y-113969800D02*
X148971000Y-113642800D01*
X148971000Y-113642800D02*
X149101200Y-113512600D01*
X133385000Y-106721000D02*
X134262000Y-106721000D01*
X134262000Y-106721000D02*
X134348000Y-106807000D01*
X134348000Y-106807000D02*
X134366000Y-106807000D01*
X134594600Y-106578400D02*
X134366000Y-106807000D01*
X148924400Y-112336200D02*
X148928200Y-112336200D01*
X148928200Y-112336200D02*
X149377400Y-111887000D01*
X134619727Y-105621000D02*
X134831100Y-105832373D01*
X133385000Y-105621000D02*
X134619727Y-105621000D01*
X149725800Y-108204000D02*
X149725800Y-109520602D01*
X149453600Y-110426900D02*
X149347700Y-110532800D01*
X149725800Y-109520602D02*
X149453600Y-109792802D01*
X149453600Y-109792802D02*
X149453600Y-110426900D01*
X149347700Y-110532800D02*
X148954000Y-110532800D01*
X148954000Y-110532800D02*
X148954000Y-110503412D01*
X148954000Y-110503412D02*
X148530597Y-110080009D01*
X132715000Y-87706200D02*
X132939700Y-87706200D01*
X132939700Y-87706200D02*
X133604000Y-88370500D01*
X133385000Y-110021000D02*
X134574002Y-110021000D01*
X134574002Y-110021000D02*
X134747000Y-110193998D01*
X142150100Y-117638366D02*
X141399765Y-118388701D01*
X141399765Y-118388701D02*
X141206501Y-118388701D01*
X141206501Y-118388701D02*
X140970000Y-118625202D01*
X142535000Y-116471000D02*
X142535000Y-116821000D01*
X142535000Y-116821000D02*
X142150100Y-117205900D01*
X142150100Y-117205900D02*
X142150100Y-117638366D01*
X136400258Y-88920318D02*
X136502140Y-88920318D01*
X136070340Y-88590400D02*
X136400258Y-88920318D01*
X136070340Y-88163400D02*
X136070340Y-88590400D01*
X136020611Y-115304398D02*
X136020611Y-116385389D01*
X136020611Y-116385389D02*
X135935000Y-116471000D01*
X141206501Y-118058503D02*
X140970000Y-117822002D01*
X141819900Y-117501594D02*
X141262991Y-118058503D01*
X141262991Y-118058503D02*
X141206501Y-118058503D01*
X141435000Y-116821000D02*
X141819900Y-117205900D01*
X141435000Y-116471000D02*
X141435000Y-116821000D01*
X141819900Y-117205900D02*
X141819900Y-117501594D01*
X135186000Y-89233694D02*
X135272367Y-89147327D01*
X135186000Y-89725500D02*
X135186000Y-89233694D01*
X134325813Y-108921000D02*
X134570069Y-109165256D01*
X133385000Y-108921000D02*
X134325813Y-108921000D01*
X136086000Y-90868500D02*
X136086000Y-90441500D01*
X135559800Y-90220800D02*
X135559800Y-89772300D01*
X136086000Y-90441500D02*
X136043100Y-90398600D01*
X136043100Y-90398600D02*
X135737600Y-90398600D01*
X135737600Y-90398600D02*
X135559800Y-90220800D01*
X135559800Y-89772300D02*
X135513000Y-89725500D01*
X135513000Y-89725500D02*
X135186000Y-89725500D01*
X132444499Y-92294701D02*
X133408000Y-91331200D01*
X133408000Y-91331200D02*
X133408000Y-90868500D01*
X133385000Y-94621000D02*
X132992098Y-94621000D01*
X132992098Y-94621000D02*
X132444499Y-94073401D01*
X132444499Y-94073401D02*
X132444499Y-92294701D01*
X135186000Y-90868500D02*
X135186000Y-90968500D01*
X135186000Y-90968500D02*
X134795499Y-91359001D01*
X134795499Y-91359001D02*
X133798501Y-91359001D01*
X133798501Y-91359001D02*
X133408000Y-90968500D01*
X133408000Y-90968500D02*
X133408000Y-90868500D01*
X134811556Y-99021000D02*
X134825156Y-99034600D01*
X133385000Y-99021000D02*
X134811556Y-99021000D01*
X133735000Y-101221000D02*
X134462002Y-100493998D01*
X133385000Y-101221000D02*
X133735000Y-101221000D01*
X134462002Y-100493998D02*
X134825156Y-100493998D01*
X133385000Y-102321000D02*
X134655200Y-102321000D01*
X134655200Y-102321000D02*
X134848600Y-102514400D01*
X134262000Y-100121000D02*
X134612051Y-99770949D01*
X133385000Y-100121000D02*
X134262000Y-100121000D01*
X134612051Y-99770949D02*
X134900958Y-99770949D01*
X134344499Y-111873401D02*
X134456008Y-111984910D01*
X133735000Y-111121000D02*
X134344499Y-111730499D01*
X134456008Y-111984910D02*
X135990798Y-111984910D01*
X134344499Y-111730499D02*
X134344499Y-111873401D01*
X133385000Y-111121000D02*
X133735000Y-111121000D01*
D35*
X150681600Y-117068600D02*
X149776600Y-117068600D01*
D33*
X152448249Y-112283386D02*
X152148250Y-111983387D01*
X153906063Y-113741200D02*
X152448249Y-112283386D01*
X154803200Y-113741200D02*
X153906063Y-113741200D01*
X133680200Y-117551200D02*
X133680200Y-118229800D01*
X133680200Y-118229800D02*
X133673000Y-118237000D01*
X154868981Y-105083493D02*
X154868981Y-105256055D01*
X154453680Y-104668192D02*
X154868981Y-105083493D01*
X155125430Y-104766621D02*
X155163996Y-104766621D01*
X155163996Y-104766621D02*
X155606320Y-105208945D01*
X155606320Y-105208945D02*
X155701358Y-105208945D01*
X154807233Y-104314639D02*
X155125430Y-104632836D01*
X155125430Y-104632836D02*
X155125430Y-104766621D01*
X155712213Y-104512512D02*
X155909989Y-104512512D01*
X155160786Y-103961085D02*
X155712213Y-104512512D01*
X151094923Y-100476620D02*
X150570523Y-99952220D01*
X151413120Y-100920526D02*
X151094923Y-100602329D01*
X151094923Y-100602329D02*
X151094923Y-100476620D01*
X145600000Y-118211600D02*
X145273000Y-118211600D01*
X144780000Y-118719600D02*
X144780000Y-119380000D01*
X144942800Y-118556800D02*
X144780000Y-118719600D01*
X144942800Y-118541800D02*
X144942800Y-118556800D01*
X145273000Y-118211600D02*
X144942800Y-118541800D01*
X150493233Y-100707745D02*
X150493233Y-100675112D01*
X151059567Y-101274079D02*
X150493233Y-100707745D01*
X148140000Y-118211600D02*
X147410770Y-118211600D01*
X147410770Y-118211600D02*
X147320000Y-118302370D01*
X147320000Y-118302370D02*
X147320000Y-119380000D01*
X150706014Y-101627633D02*
X149982421Y-100904040D01*
X149982421Y-100904040D02*
X149712680Y-100904040D01*
X132773000Y-118237000D02*
X132773000Y-118664000D01*
X132773000Y-118664000D02*
X133031800Y-118922800D01*
X133031800Y-118922800D02*
X134162800Y-118922800D01*
X134162800Y-118922800D02*
X134620000Y-119380000D01*
X149998907Y-103253978D02*
X149239164Y-102494235D01*
X149239164Y-102494235D02*
X149239164Y-102233648D01*
X149680710Y-101929869D02*
X149557713Y-101806872D01*
X149680710Y-102016543D02*
X149680710Y-101929869D01*
X149998907Y-102334740D02*
X149680710Y-102016543D01*
X149557713Y-101806872D02*
X149257714Y-101506873D01*
X152684690Y-106255238D02*
X152034883Y-106905045D01*
X153631031Y-106255238D02*
X152684690Y-106255238D01*
X153919405Y-105966864D02*
X153631031Y-106255238D01*
X153919405Y-105548131D02*
X153919405Y-105966864D01*
X153746573Y-105375299D02*
X153919405Y-105548131D01*
X152034883Y-106905045D02*
X151610619Y-106905045D01*
X134620000Y-117805200D02*
X135001000Y-118186200D01*
X135001000Y-118186200D02*
X135363800Y-118186200D01*
X149718660Y-104252989D02*
X149718660Y-104241332D01*
X149718660Y-104241332D02*
X150352460Y-103607532D01*
X137693400Y-118211600D02*
X137388600Y-117906800D01*
X138012600Y-118211600D02*
X137693400Y-118211600D01*
X151095144Y-106726833D02*
X151774928Y-106047049D01*
X151242818Y-108539582D02*
X151242818Y-107263196D01*
X151774928Y-106047049D02*
X152155584Y-106047049D01*
X150823600Y-108958800D02*
X151242818Y-108539582D01*
X151242818Y-107263196D02*
X151095144Y-107115522D01*
X151095144Y-107115522D02*
X151095144Y-106726833D01*
X152155584Y-106047049D02*
X152473781Y-105728852D01*
X150723600Y-108958800D02*
X150823600Y-108958800D01*
X150088600Y-109166800D02*
X150114000Y-109192200D01*
X150114000Y-109192200D02*
X150114000Y-110032800D01*
X150723600Y-108958800D02*
X150296600Y-108958800D01*
X150296600Y-108958800D02*
X150088600Y-109166800D01*
X150998362Y-106345469D02*
X150781352Y-106345469D01*
X151802030Y-105693496D02*
X151650335Y-105693496D01*
X151650335Y-105693496D02*
X150998362Y-106345469D01*
X152120227Y-105375299D02*
X151802030Y-105693496D01*
X150901400Y-111379000D02*
X151053800Y-111226600D01*
X150901400Y-111894200D02*
X150901400Y-111379000D01*
X150901400Y-111894200D02*
X150142400Y-111894200D01*
X150142400Y-111894200D02*
X150084400Y-111836200D01*
X155832537Y-101019329D02*
X155752808Y-100939600D01*
X155832537Y-101662989D02*
X155832537Y-101019329D01*
X155514340Y-101981186D02*
X155832537Y-101662989D01*
X154889200Y-100195464D02*
X154889200Y-99771200D01*
X154889200Y-100485006D02*
X154889200Y-100195464D01*
X154453680Y-100920526D02*
X154889200Y-100485006D01*
X136263800Y-118286200D02*
X137160000Y-119182400D01*
X136263800Y-118186200D02*
X136263800Y-118286200D01*
X137160000Y-119182400D02*
X137160000Y-119380000D01*
X139609230Y-118211600D02*
X139700000Y-118302370D01*
X138912600Y-118211600D02*
X139609230Y-118211600D01*
X139700000Y-118302370D02*
X139700000Y-119380000D01*
X155125430Y-100955882D02*
X155125430Y-100631950D01*
X154807233Y-101274079D02*
X155125430Y-100955882D01*
X155125430Y-100631950D02*
X155614320Y-100143060D01*
X155614320Y-100143060D02*
X155614320Y-99718796D01*
D34*
X154940000Y-119380000D02*
X154940000Y-118302370D01*
X154940000Y-118302370D02*
X155030770Y-118211600D01*
X154803200Y-116164000D02*
X154594700Y-116164000D01*
X154594700Y-116164000D02*
X154446100Y-116312600D01*
X154446100Y-116312600D02*
X154446100Y-117195600D01*
X154803200Y-115641200D02*
X154803200Y-116164000D01*
X156477400Y-95777411D02*
X156487712Y-95787723D01*
X156477400Y-94818200D02*
X156477400Y-95777411D01*
X156477400Y-94818200D02*
X155727400Y-94818200D01*
X154884400Y-115722400D02*
X154803200Y-115641200D01*
D35*
X153955840Y-106485600D02*
X153041874Y-107399566D01*
X156057600Y-106485600D02*
X153955840Y-106485600D01*
X153041874Y-107399566D02*
X153041874Y-107543600D01*
X153041874Y-107543600D02*
X152617610Y-107543600D01*
D34*
X151082440Y-115811300D02*
X151130100Y-115811300D01*
X151130100Y-115811300D02*
X151781600Y-116462800D01*
X152603200Y-115641200D02*
X151781600Y-116462800D01*
X151781600Y-116462800D02*
X151781600Y-117068600D01*
X151076840Y-114589560D02*
X151076840Y-115805700D01*
X151076840Y-115805700D02*
X151082440Y-115811300D01*
X151076840Y-114589560D02*
X151076840Y-113789640D01*
X151076840Y-113789640D02*
X150952200Y-113665000D01*
D35*
X154585796Y-98512756D02*
X153778632Y-97705592D01*
X153778632Y-97705592D02*
X152976310Y-97705592D01*
X152976310Y-97705592D02*
X152946100Y-97735802D01*
X154338309Y-99126329D02*
X154585796Y-98878842D01*
X154585796Y-98878842D02*
X154585796Y-98512756D01*
X153746573Y-100213419D02*
X154064770Y-99895222D01*
X154064770Y-99895222D02*
X154064770Y-99399868D01*
X154064770Y-99399868D02*
X154338309Y-99126329D01*
D33*
X153321600Y-111658400D02*
X153321600Y-111106800D01*
X153321600Y-111106800D02*
X152857200Y-110642400D01*
D35*
X156463999Y-104238922D02*
X156150806Y-103925729D01*
X155832537Y-103925729D02*
X155514340Y-103607532D01*
X156150806Y-103925729D02*
X155832537Y-103925729D01*
X156057600Y-106485600D02*
X156057600Y-105931600D01*
X156463999Y-105525201D02*
X156463999Y-104238922D01*
X156057600Y-105931600D02*
X156463999Y-105525201D01*
D33*
X150306800Y-107315000D02*
X150261610Y-107315000D01*
X150723600Y-108058800D02*
X150723600Y-107731800D01*
X150723600Y-107731800D02*
X150306800Y-107315000D01*
X149040000Y-118211600D02*
X149606000Y-118211600D01*
X147335000Y-117703600D02*
X148632000Y-117703600D01*
X148632000Y-117703600D02*
X149040000Y-118111600D01*
X149040000Y-118111600D02*
X149040000Y-118211600D01*
X146500000Y-118211600D02*
X146827000Y-118211600D01*
X146827000Y-118211600D02*
X147335000Y-117703600D01*
X150901400Y-112794200D02*
X150901400Y-113614200D01*
X150901400Y-113614200D02*
X150952200Y-113665000D01*
D35*
X150883200Y-113596000D02*
X150952200Y-113665000D01*
D34*
X150968800Y-113681600D02*
X150952200Y-113665000D01*
X152603200Y-115641200D02*
X152603200Y-114706400D01*
X152492800Y-115751600D02*
X152603200Y-115641200D01*
D33*
X148521897Y-103842400D02*
X148462012Y-103782515D01*
X149047200Y-103842400D02*
X148521897Y-103842400D01*
X134165340Y-88975260D02*
X134165340Y-89032080D01*
X134649540Y-88491060D02*
X134165340Y-88975260D01*
X134749540Y-88491060D02*
X134649540Y-88491060D01*
X134749540Y-88491060D02*
X134849540Y-88491060D01*
X134849540Y-88491060D02*
X135333740Y-88006860D01*
X137294620Y-88237060D02*
X137358120Y-88300560D01*
X135333740Y-88006860D02*
X135333740Y-87777320D01*
X137358120Y-88300560D02*
X137358120Y-88562180D01*
X135333740Y-87777320D02*
X135483600Y-87627460D01*
X137136902Y-88237060D02*
X137294620Y-88237060D01*
X135483600Y-87627460D02*
X136527302Y-87627460D01*
X136527302Y-87627460D02*
X137136902Y-88237060D01*
X148971000Y-113069800D02*
X148544000Y-113069800D01*
X148544000Y-113069800D02*
X148461765Y-112987565D01*
X148461765Y-112987565D02*
X148461765Y-112231070D01*
X148461765Y-112231070D02*
X148461765Y-111806806D01*
X148825800Y-108204000D02*
X148825800Y-108730200D01*
X148825800Y-108730200D02*
X148488400Y-109067600D01*
X148954000Y-109532800D02*
X148953600Y-109532800D01*
X148953600Y-109532800D02*
X148488400Y-109067600D01*
X148924400Y-111336200D02*
X148924400Y-111344171D01*
X148924400Y-111344171D02*
X148461765Y-111806806D01*
D35*
X133385000Y-96821000D02*
X133439001Y-96875001D01*
X133439001Y-96875001D02*
X135864001Y-96875001D01*
X135864001Y-96875001D02*
X136334500Y-97345500D01*
D33*
X150706014Y-103961085D02*
X150500080Y-104167019D01*
X150500080Y-104167019D02*
X150500080Y-105424120D01*
X150500080Y-105424120D02*
X150230600Y-105693600D01*
X150230600Y-105693600D02*
X149953600Y-105693600D01*
X154279321Y-105663430D02*
X154547481Y-105931590D01*
X154279321Y-105200940D02*
X154279321Y-105663430D01*
X154100126Y-105021745D02*
X154279321Y-105200940D01*
X154100126Y-100566973D02*
X154100126Y-100484074D01*
X154221600Y-111658400D02*
X155143200Y-111658400D01*
X152276201Y-99097439D02*
X152155584Y-99218056D01*
X152155584Y-99218056D02*
X152155584Y-99541669D01*
X152276201Y-98747085D02*
X152276201Y-99097439D01*
X151851938Y-98322822D02*
X152276201Y-98747085D01*
X152473781Y-99859866D02*
X152155584Y-99541669D01*
X152473781Y-99859866D02*
X152463266Y-99859866D01*
X151074120Y-99100640D02*
X152120227Y-100146747D01*
X152120227Y-100146747D02*
X152120227Y-100213419D01*
X151448477Y-100248776D02*
X151766674Y-100566973D01*
X149885400Y-99204780D02*
X150543966Y-99204780D01*
X150543966Y-99204780D02*
X151448477Y-100109291D01*
X151448477Y-100109291D02*
X151448477Y-100248776D01*
D35*
G36*
X157151000Y-115457122D02*
X157151000Y-115876627D01*
X156905234Y-115978175D01*
X156619179Y-116263731D01*
X156464176Y-116637018D01*
X156463824Y-117041208D01*
X156618175Y-117414766D01*
X156903731Y-117700821D01*
X157151000Y-117803497D01*
X157151000Y-119051000D01*
X153618245Y-119051000D01*
X153606901Y-115445942D01*
X157151000Y-115457122D01*
X157151000Y-115457122D01*
G37*
X157151000Y-115457122D02*
X157151000Y-115876627D01*
X156905234Y-115978175D01*
X156619179Y-116263731D01*
X156464176Y-116637018D01*
X156463824Y-117041208D01*
X156618175Y-117414766D01*
X156903731Y-117700821D01*
X157151000Y-117803497D01*
X157151000Y-119051000D01*
X153618245Y-119051000D01*
X153606901Y-115445942D01*
X157151000Y-115457122D01*
G36*
X149780307Y-86763545D02*
X149780115Y-86983940D01*
X149864278Y-87187632D01*
X150019985Y-87343611D01*
X150223530Y-87428130D01*
X150439291Y-87428318D01*
X150632479Y-87621506D01*
X150735483Y-87690332D01*
X150830360Y-87709204D01*
X150705584Y-87709095D01*
X150483508Y-87800855D01*
X150313452Y-87970615D01*
X150221305Y-88192530D01*
X150221095Y-88432816D01*
X150312855Y-88654892D01*
X150482615Y-88824948D01*
X150704530Y-88917095D01*
X150944816Y-88917305D01*
X151114151Y-88847337D01*
X151108694Y-88852794D01*
X151039868Y-88955798D01*
X151015700Y-89077300D01*
X151015700Y-89752602D01*
X151034477Y-89847002D01*
X151039868Y-89874104D01*
X151051001Y-89890766D01*
X151044294Y-89906919D01*
X151044102Y-90127314D01*
X151128265Y-90331006D01*
X151283972Y-90486985D01*
X151487517Y-90571504D01*
X151707912Y-90571696D01*
X151911604Y-90487533D01*
X152067583Y-90331826D01*
X152152102Y-90128281D01*
X152152294Y-89907886D01*
X152068131Y-89704194D01*
X151912424Y-89548215D01*
X151708879Y-89463696D01*
X151650700Y-89463645D01*
X151650700Y-89208812D01*
X152561006Y-88298507D01*
X152628058Y-88198156D01*
X152680627Y-88188265D01*
X152767076Y-88132636D01*
X152825072Y-88047756D01*
X152845476Y-87947000D01*
X152845476Y-86847000D01*
X152827765Y-86752873D01*
X152786663Y-86689000D01*
X153157041Y-86689000D01*
X153117928Y-86746244D01*
X153097524Y-86847000D01*
X153097524Y-87947000D01*
X153115235Y-88041127D01*
X153170864Y-88127576D01*
X153255744Y-88185572D01*
X153356500Y-88205976D01*
X153377900Y-88205976D01*
X153377900Y-88230954D01*
X153226015Y-88382574D01*
X153141496Y-88586119D01*
X153141304Y-88806514D01*
X153225467Y-89010206D01*
X153253236Y-89038024D01*
X153241500Y-89038024D01*
X153147373Y-89055735D01*
X153060924Y-89111364D01*
X153002928Y-89196244D01*
X152982524Y-89297000D01*
X152982524Y-91297000D01*
X153000235Y-91391127D01*
X153055864Y-91477576D01*
X153140744Y-91535572D01*
X153241500Y-91555976D01*
X153942185Y-91555976D01*
X153878096Y-91710319D01*
X153877904Y-91930714D01*
X153962067Y-92134406D01*
X154117774Y-92290385D01*
X154321319Y-92374904D01*
X154537080Y-92375092D01*
X154559000Y-92397012D01*
X154559000Y-92400725D01*
X154532373Y-92405735D01*
X154445924Y-92461364D01*
X154387928Y-92546244D01*
X154367524Y-92647000D01*
X154367524Y-93747000D01*
X154385235Y-93841127D01*
X154440864Y-93927576D01*
X154525744Y-93985572D01*
X154626500Y-94005976D01*
X155126500Y-94005976D01*
X155220627Y-93988265D01*
X155307076Y-93932636D01*
X155365072Y-93847756D01*
X155385476Y-93747000D01*
X155385476Y-92647000D01*
X155367765Y-92552873D01*
X155312136Y-92466424D01*
X155227256Y-92408428D01*
X155194000Y-92401693D01*
X155194000Y-92265500D01*
X155169832Y-92143998D01*
X155101006Y-92040994D01*
X154985909Y-91925897D01*
X154986096Y-91711286D01*
X154921924Y-91555976D01*
X155241500Y-91555976D01*
X155335627Y-91538265D01*
X155422076Y-91482636D01*
X155480072Y-91397756D01*
X155500476Y-91297000D01*
X155500476Y-89297000D01*
X155482765Y-89202873D01*
X155427136Y-89116424D01*
X155342256Y-89058428D01*
X155241500Y-89038024D01*
X154137740Y-89038024D01*
X154164785Y-89011026D01*
X154249304Y-88807481D01*
X154249496Y-88587086D01*
X154165333Y-88383394D01*
X154012900Y-88230695D01*
X154012900Y-88148193D01*
X154037076Y-88132636D01*
X154095072Y-88047756D01*
X154115476Y-87947000D01*
X154115476Y-86847000D01*
X154097765Y-86752873D01*
X154056663Y-86689000D01*
X154427041Y-86689000D01*
X154387928Y-86746244D01*
X154367524Y-86847000D01*
X154367524Y-87947000D01*
X154385235Y-88041127D01*
X154413153Y-88084513D01*
X154369015Y-88128574D01*
X154284496Y-88332119D01*
X154284304Y-88552514D01*
X154368467Y-88756206D01*
X154524174Y-88912185D01*
X154727719Y-88996704D01*
X154948114Y-88996896D01*
X155151806Y-88912733D01*
X155307785Y-88757026D01*
X155392304Y-88553481D01*
X155392496Y-88333086D01*
X155308694Y-88130268D01*
X155365072Y-88047756D01*
X155385476Y-87947000D01*
X155385476Y-86847000D01*
X155367765Y-86752873D01*
X155326663Y-86689000D01*
X155697041Y-86689000D01*
X155657928Y-86746244D01*
X155637524Y-86847000D01*
X155637524Y-87947000D01*
X155655235Y-88041127D01*
X155710864Y-88127576D01*
X155795744Y-88185572D01*
X155896500Y-88205976D01*
X156396500Y-88205976D01*
X156490627Y-88188265D01*
X156577076Y-88132636D01*
X156635072Y-88047756D01*
X156655476Y-87947000D01*
X156655476Y-86847000D01*
X156637765Y-86752873D01*
X156596663Y-86689000D01*
X157151000Y-86689000D01*
X157151000Y-90476627D01*
X156905234Y-90578175D01*
X156619179Y-90863731D01*
X156464176Y-91237018D01*
X156463824Y-91641208D01*
X156618175Y-92014766D01*
X156903731Y-92300821D01*
X157151000Y-92403497D01*
X157151000Y-93016627D01*
X156905234Y-93118175D01*
X156655476Y-93367497D01*
X156655476Y-92647000D01*
X156637765Y-92552873D01*
X156582136Y-92466424D01*
X156497256Y-92408428D01*
X156396500Y-92388024D01*
X155896500Y-92388024D01*
X155802373Y-92405735D01*
X155715924Y-92461364D01*
X155657928Y-92546244D01*
X155637524Y-92647000D01*
X155637524Y-93747000D01*
X155655235Y-93841127D01*
X155710864Y-93927576D01*
X155795744Y-93985572D01*
X155896500Y-94005976D01*
X156396500Y-94005976D01*
X156463988Y-93993277D01*
X156463918Y-94073664D01*
X156055380Y-94073664D01*
X155961253Y-94091375D01*
X155874804Y-94147004D01*
X155816808Y-94231884D01*
X155810249Y-94264272D01*
X155617686Y-94264104D01*
X155413994Y-94348267D01*
X155314356Y-94447731D01*
X155314356Y-94332640D01*
X155296645Y-94238513D01*
X155241016Y-94152064D01*
X155156136Y-94094068D01*
X155055380Y-94073664D01*
X154555380Y-94073664D01*
X154461253Y-94091375D01*
X154374804Y-94147004D01*
X154316808Y-94231884D01*
X154302852Y-94300800D01*
X154247671Y-94300800D01*
X154231465Y-94214673D01*
X154175836Y-94128224D01*
X154090956Y-94070228D01*
X153990200Y-94049824D01*
X152740200Y-94049824D01*
X152646073Y-94067535D01*
X152559624Y-94123164D01*
X152501628Y-94208044D01*
X152481224Y-94308800D01*
X152481224Y-94326200D01*
X152393471Y-94326200D01*
X152377265Y-94240073D01*
X152321636Y-94153624D01*
X152236756Y-94095628D01*
X152136000Y-94075224D01*
X150886000Y-94075224D01*
X150791873Y-94092935D01*
X150705424Y-94148564D01*
X150660637Y-94214112D01*
X150647403Y-94205269D01*
X150622000Y-94200216D01*
X150622000Y-93996620D01*
X150622976Y-93991800D01*
X150622976Y-93391800D01*
X150605265Y-93297673D01*
X150549636Y-93211224D01*
X150464756Y-93153228D01*
X150364000Y-93132824D01*
X149864000Y-93132824D01*
X149769873Y-93150535D01*
X149718178Y-93183800D01*
X149417300Y-93183800D01*
X149372556Y-93153228D01*
X149271800Y-93132824D01*
X148771800Y-93132824D01*
X148677673Y-93150535D01*
X148625978Y-93183800D01*
X148293976Y-93183800D01*
X148293976Y-93121000D01*
X148276265Y-93026873D01*
X148220636Y-92940424D01*
X148135756Y-92882428D01*
X148035000Y-92862024D01*
X146535000Y-92862024D01*
X146440873Y-92879735D01*
X146354424Y-92935364D01*
X146296428Y-93020244D01*
X146276024Y-93121000D01*
X146276024Y-93921000D01*
X146293735Y-94015127D01*
X146329876Y-94071291D01*
X146296428Y-94120244D01*
X146276024Y-94221000D01*
X146276024Y-95021000D01*
X146293735Y-95115127D01*
X146329876Y-95171291D01*
X146296428Y-95220244D01*
X146276024Y-95321000D01*
X146276024Y-96121000D01*
X146293735Y-96215127D01*
X146349364Y-96301576D01*
X146434244Y-96359572D01*
X146535000Y-96379976D01*
X148035000Y-96379976D01*
X148129127Y-96362265D01*
X148215576Y-96306636D01*
X148273572Y-96221756D01*
X148293976Y-96121000D01*
X148293976Y-95321000D01*
X148276265Y-95226873D01*
X148247776Y-95182600D01*
X148651700Y-95182600D01*
X148696444Y-95213172D01*
X148797200Y-95233576D01*
X149297200Y-95233576D01*
X149391327Y-95215865D01*
X149443022Y-95182600D01*
X149718500Y-95182600D01*
X149763244Y-95213172D01*
X149864000Y-95233576D01*
X150313502Y-95233576D01*
X150313866Y-95233819D01*
X150418197Y-95303531D01*
X150612600Y-95342200D01*
X150628529Y-95342200D01*
X150644735Y-95428327D01*
X150700364Y-95514776D01*
X150785244Y-95572772D01*
X150886000Y-95593176D01*
X152136000Y-95593176D01*
X152230127Y-95575465D01*
X152316576Y-95519836D01*
X152374572Y-95434956D01*
X152393356Y-95342200D01*
X152487509Y-95342200D01*
X152498935Y-95402927D01*
X152554564Y-95489376D01*
X152639444Y-95547372D01*
X152740200Y-95567776D01*
X153990200Y-95567776D01*
X154084327Y-95550065D01*
X154170776Y-95494436D01*
X154228772Y-95409556D01*
X154247556Y-95316800D01*
X154312240Y-95316800D01*
X154314115Y-95326767D01*
X154369744Y-95413216D01*
X154454624Y-95471212D01*
X154555380Y-95491616D01*
X155055380Y-95491616D01*
X155149507Y-95473905D01*
X155235956Y-95418276D01*
X155293952Y-95333396D01*
X155314356Y-95232640D01*
X155314356Y-95188594D01*
X155413174Y-95287585D01*
X155616719Y-95372104D01*
X155837114Y-95372296D01*
X155842090Y-95370240D01*
X155869744Y-95413216D01*
X155954624Y-95471212D01*
X155969400Y-95474204D01*
X155969400Y-95591327D01*
X155933808Y-95677042D01*
X155933616Y-95897437D01*
X156017779Y-96101129D01*
X156173486Y-96257108D01*
X156377031Y-96341627D01*
X156464155Y-96341703D01*
X156463824Y-96721208D01*
X156618175Y-97094766D01*
X156903731Y-97380821D01*
X157151000Y-97483497D01*
X157151000Y-98096627D01*
X156905234Y-98198175D01*
X156619179Y-98483731D01*
X156464176Y-98857018D01*
X156463824Y-99261208D01*
X156618175Y-99634766D01*
X156903731Y-99920821D01*
X157151000Y-100023497D01*
X157151000Y-100636627D01*
X156905234Y-100738175D01*
X156619179Y-101023731D01*
X156464176Y-101397018D01*
X156463824Y-101801208D01*
X156618175Y-102174766D01*
X156903731Y-102460821D01*
X157151000Y-102563497D01*
X157151000Y-103176627D01*
X156905234Y-103278175D01*
X156619179Y-103563731D01*
X156533635Y-103769742D01*
X156420214Y-103656321D01*
X156296609Y-103573731D01*
X156150806Y-103544729D01*
X155994562Y-103544729D01*
X155538365Y-103088532D01*
X155459283Y-103034498D01*
X155358819Y-103012705D01*
X155257790Y-103031715D01*
X155172117Y-103088532D01*
X154995340Y-103265309D01*
X154941306Y-103344391D01*
X154933639Y-103379735D01*
X154904236Y-103385268D01*
X154818563Y-103442085D01*
X154641786Y-103618862D01*
X154587752Y-103697944D01*
X154580085Y-103733290D01*
X154550683Y-103738822D01*
X154465010Y-103795639D01*
X154288233Y-103972416D01*
X154234199Y-104051498D01*
X154226532Y-104086843D01*
X154197130Y-104092375D01*
X154111457Y-104149192D01*
X153934680Y-104325969D01*
X153880646Y-104405051D01*
X153872979Y-104440395D01*
X153843576Y-104445928D01*
X153757903Y-104502745D01*
X153581126Y-104679522D01*
X153527092Y-104758604D01*
X153519425Y-104793950D01*
X153490023Y-104799482D01*
X153404350Y-104856299D01*
X153227573Y-105033076D01*
X153173539Y-105112158D01*
X153165872Y-105147502D01*
X153136469Y-105153035D01*
X153050796Y-105209852D01*
X152933400Y-105327248D01*
X152816004Y-105209852D01*
X152736922Y-105155818D01*
X152701576Y-105148151D01*
X152696044Y-105118749D01*
X152639227Y-105033076D01*
X152462450Y-104856299D01*
X152383368Y-104802265D01*
X152348024Y-104794598D01*
X152342491Y-104765195D01*
X152285674Y-104679522D01*
X152108897Y-104502745D01*
X152029815Y-104448711D01*
X151994469Y-104441044D01*
X151988937Y-104411642D01*
X151932120Y-104325969D01*
X151755343Y-104149192D01*
X151676261Y-104095158D01*
X151640916Y-104087491D01*
X151635384Y-104058089D01*
X151578567Y-103972416D01*
X151401790Y-103795639D01*
X151322708Y-103741605D01*
X151287364Y-103733938D01*
X151281831Y-103704535D01*
X151225014Y-103618862D01*
X151048237Y-103442085D01*
X150969155Y-103388051D01*
X150933809Y-103380384D01*
X150928277Y-103350982D01*
X150871460Y-103265309D01*
X150694683Y-103088532D01*
X150615601Y-103034498D01*
X150580257Y-103026831D01*
X150574724Y-102997428D01*
X150517907Y-102911755D01*
X150400511Y-102794359D01*
X150517907Y-102676963D01*
X150571941Y-102597881D01*
X150579608Y-102562535D01*
X150609010Y-102557003D01*
X150694683Y-102500186D01*
X150871460Y-102323409D01*
X150925494Y-102244327D01*
X150933161Y-102208983D01*
X150962564Y-102203450D01*
X151048237Y-102146633D01*
X151225014Y-101969856D01*
X151279048Y-101890774D01*
X151286715Y-101855428D01*
X151316117Y-101849896D01*
X151401790Y-101793079D01*
X151578567Y-101616302D01*
X151632601Y-101537220D01*
X151640268Y-101501875D01*
X151669670Y-101496343D01*
X151755343Y-101439526D01*
X151932120Y-101262749D01*
X151986154Y-101183667D01*
X151993821Y-101148323D01*
X152023224Y-101142790D01*
X152108897Y-101085973D01*
X152285674Y-100909196D01*
X152339708Y-100830114D01*
X152347375Y-100794768D01*
X152376777Y-100789236D01*
X152462450Y-100732419D01*
X152639227Y-100555642D01*
X152693261Y-100476560D01*
X152700928Y-100441216D01*
X152730331Y-100435683D01*
X152816004Y-100378866D01*
X152992781Y-100202089D01*
X153046815Y-100123007D01*
X153068608Y-100022543D01*
X153049598Y-99921514D01*
X152992781Y-99835841D01*
X152497806Y-99340866D01*
X152488289Y-99334364D01*
X152500707Y-99321946D01*
X152569533Y-99218941D01*
X152580210Y-99165262D01*
X152593701Y-99097439D01*
X152593701Y-98747085D01*
X152579890Y-98677653D01*
X152621388Y-98616919D01*
X152643181Y-98516455D01*
X152624171Y-98415426D01*
X152567354Y-98329753D01*
X152083117Y-97845516D01*
X152392004Y-97845516D01*
X152476167Y-98049208D01*
X152631874Y-98205187D01*
X152835419Y-98289706D01*
X153055814Y-98289898D01*
X153259506Y-98205735D01*
X153378857Y-98086592D01*
X153620816Y-98086592D01*
X154104175Y-98569951D01*
X153766276Y-98907850D01*
X153712242Y-98986932D01*
X153690449Y-99087396D01*
X153709459Y-99188425D01*
X153732957Y-99223857D01*
X153712772Y-99254065D01*
X153709178Y-99272132D01*
X153683770Y-99399868D01*
X153683770Y-99733197D01*
X153227573Y-100189394D01*
X153173539Y-100268476D01*
X153151746Y-100368940D01*
X153170756Y-100469969D01*
X153227573Y-100555642D01*
X153404350Y-100732419D01*
X153483432Y-100786453D01*
X153518776Y-100794120D01*
X153524309Y-100823523D01*
X153581126Y-100909196D01*
X153757903Y-101085973D01*
X153836985Y-101140007D01*
X153872331Y-101147674D01*
X153877863Y-101177076D01*
X153934680Y-101262749D01*
X154111457Y-101439526D01*
X154190539Y-101493560D01*
X154225884Y-101501227D01*
X154231416Y-101530629D01*
X154288233Y-101616302D01*
X154465010Y-101793079D01*
X154544092Y-101847113D01*
X154579436Y-101854780D01*
X154584969Y-101884183D01*
X154641786Y-101969856D01*
X154818563Y-102146633D01*
X154897645Y-102200667D01*
X154932991Y-102208334D01*
X154938523Y-102237736D01*
X154995340Y-102323409D01*
X155172117Y-102500186D01*
X155251199Y-102554220D01*
X155286543Y-102561887D01*
X155292076Y-102591290D01*
X155348893Y-102676963D01*
X155525670Y-102853740D01*
X155604752Y-102907774D01*
X155705216Y-102929567D01*
X155806245Y-102910557D01*
X155891918Y-102853740D01*
X156386893Y-102358765D01*
X156440927Y-102279683D01*
X156462720Y-102179219D01*
X156443710Y-102078190D01*
X156386893Y-101992517D01*
X156210116Y-101815740D01*
X156131034Y-101761706D01*
X156130427Y-101761574D01*
X156150037Y-101662989D01*
X156150037Y-101325856D01*
X156222193Y-101253826D01*
X156306712Y-101050281D01*
X156306904Y-100829886D01*
X156222741Y-100626194D01*
X156067034Y-100470215D01*
X155863489Y-100385696D01*
X155820733Y-100385659D01*
X155838826Y-100367566D01*
X155907652Y-100264562D01*
X155922289Y-100190975D01*
X155927726Y-100188729D01*
X156083705Y-100033022D01*
X156168224Y-99829477D01*
X156168416Y-99609082D01*
X156084253Y-99405390D01*
X155928546Y-99249411D01*
X155725001Y-99164892D01*
X155504606Y-99164700D01*
X155300914Y-99248863D01*
X155225609Y-99324037D01*
X155203426Y-99301815D01*
X154999881Y-99217296D01*
X154974886Y-99217274D01*
X154986169Y-99165262D01*
X154967159Y-99064233D01*
X154938512Y-99021036D01*
X154966796Y-98878842D01*
X154966796Y-98512756D01*
X154937794Y-98366954D01*
X154937794Y-98366953D01*
X154886179Y-98289706D01*
X154855204Y-98243348D01*
X154855201Y-98243346D01*
X154048040Y-97436184D01*
X153924435Y-97353594D01*
X153778632Y-97324592D01*
X153318400Y-97324592D01*
X153260326Y-97266417D01*
X153056781Y-97181898D01*
X152836386Y-97181706D01*
X152632694Y-97265869D01*
X152476715Y-97421576D01*
X152392196Y-97625121D01*
X152392004Y-97845516D01*
X152083117Y-97845516D01*
X151860247Y-97622646D01*
X151781165Y-97568612D01*
X151680701Y-97546819D01*
X151579672Y-97565829D01*
X151493999Y-97622646D01*
X151140446Y-97976199D01*
X151086412Y-98055281D01*
X151064619Y-98155745D01*
X151083629Y-98256774D01*
X151140446Y-98342447D01*
X151847553Y-99049554D01*
X151879206Y-99071181D01*
X151862252Y-99096554D01*
X151843789Y-99189377D01*
X151789536Y-99107571D01*
X151082429Y-98400464D01*
X151003347Y-98346430D01*
X150902883Y-98324637D01*
X150801854Y-98343647D01*
X150716181Y-98400464D01*
X150362628Y-98754017D01*
X150308594Y-98833099D01*
X150306553Y-98842509D01*
X150199626Y-98735395D01*
X149996081Y-98650876D01*
X149775686Y-98650684D01*
X149571994Y-98734847D01*
X149416015Y-98890554D01*
X149331496Y-99094099D01*
X149331304Y-99314494D01*
X149415467Y-99518186D01*
X149571174Y-99674165D01*
X149774719Y-99758684D01*
X149995114Y-99758876D01*
X150062506Y-99731030D01*
X150016619Y-99841539D01*
X150016427Y-100061934D01*
X150100590Y-100265626D01*
X150109916Y-100274968D01*
X150023848Y-100360886D01*
X149998171Y-100422723D01*
X149823361Y-100350136D01*
X149602966Y-100349944D01*
X149399274Y-100434107D01*
X149243295Y-100589814D01*
X149158776Y-100793359D01*
X149158637Y-100952786D01*
X149148000Y-100952777D01*
X148944308Y-101036940D01*
X148788329Y-101192647D01*
X148703810Y-101396192D01*
X148703618Y-101616587D01*
X148787781Y-101820279D01*
X148828367Y-101860936D01*
X148769779Y-101919422D01*
X148685260Y-102122967D01*
X148685068Y-102343362D01*
X148769231Y-102547054D01*
X148924938Y-102703033D01*
X149051505Y-102755588D01*
X149502888Y-103206972D01*
X149479907Y-103229953D01*
X149425873Y-103309035D01*
X149409744Y-103383390D01*
X149347200Y-103370724D01*
X148833732Y-103370724D01*
X148776238Y-103313130D01*
X148572693Y-103228611D01*
X148352298Y-103228419D01*
X148293976Y-103252517D01*
X148293976Y-103021000D01*
X148276265Y-102926873D01*
X148240124Y-102870709D01*
X148273572Y-102821756D01*
X148293976Y-102721000D01*
X148293976Y-101921000D01*
X148276265Y-101826873D01*
X148240124Y-101770709D01*
X148273572Y-101721756D01*
X148293976Y-101621000D01*
X148293976Y-100821000D01*
X148276265Y-100726873D01*
X148240124Y-100670709D01*
X148273572Y-100621756D01*
X148293976Y-100521000D01*
X148293976Y-99721000D01*
X148276265Y-99626873D01*
X148240124Y-99570709D01*
X148273572Y-99521756D01*
X148293976Y-99421000D01*
X148293976Y-98621000D01*
X148276265Y-98526873D01*
X148240124Y-98470709D01*
X148273572Y-98421756D01*
X148293976Y-98321000D01*
X148293976Y-97521000D01*
X148276265Y-97426873D01*
X148220636Y-97340424D01*
X148135756Y-97282428D01*
X148035000Y-97262024D01*
X146535000Y-97262024D01*
X146440873Y-97279735D01*
X146354424Y-97335364D01*
X146296428Y-97420244D01*
X146276024Y-97521000D01*
X146276024Y-98321000D01*
X146293735Y-98415127D01*
X146329876Y-98471291D01*
X146296428Y-98520244D01*
X146276024Y-98621000D01*
X146276024Y-99421000D01*
X146293735Y-99515127D01*
X146329876Y-99571291D01*
X146296428Y-99620244D01*
X146276024Y-99721000D01*
X146276024Y-100521000D01*
X146293735Y-100615127D01*
X146329876Y-100671291D01*
X146296428Y-100720244D01*
X146276024Y-100821000D01*
X146276024Y-101621000D01*
X146293735Y-101715127D01*
X146329876Y-101771291D01*
X146296428Y-101820244D01*
X146276024Y-101921000D01*
X146276024Y-102721000D01*
X146293735Y-102815127D01*
X146329876Y-102871291D01*
X146296428Y-102920244D01*
X146276024Y-103021000D01*
X146276024Y-103821000D01*
X146293735Y-103915127D01*
X146349364Y-104001576D01*
X146434244Y-104059572D01*
X146535000Y-104079976D01*
X147985491Y-104079976D01*
X147992079Y-104095921D01*
X148147786Y-104251900D01*
X148351331Y-104336419D01*
X148571726Y-104336611D01*
X148589832Y-104329130D01*
X148566624Y-104344064D01*
X148508628Y-104428944D01*
X148488224Y-104529700D01*
X148488224Y-104929700D01*
X148505935Y-105023827D01*
X148561564Y-105110276D01*
X148646444Y-105168272D01*
X148747200Y-105188676D01*
X148753425Y-105188676D01*
X148753868Y-105190902D01*
X148822694Y-105293906D01*
X149010894Y-105482106D01*
X149113898Y-105550932D01*
X149136100Y-105555348D01*
X149136100Y-106392850D01*
X149123024Y-106401264D01*
X149065028Y-106486144D01*
X149044624Y-106586900D01*
X149044624Y-106840631D01*
X148853081Y-106761096D01*
X148632686Y-106760904D01*
X148428994Y-106845067D01*
X148293976Y-106979850D01*
X148293976Y-106321000D01*
X148276265Y-106226873D01*
X148240124Y-106170709D01*
X148273572Y-106121756D01*
X148293976Y-106021000D01*
X148293976Y-105221000D01*
X148276265Y-105126873D01*
X148220636Y-105040424D01*
X148135756Y-104982428D01*
X148035000Y-104962024D01*
X146535000Y-104962024D01*
X146440873Y-104979735D01*
X146354424Y-105035364D01*
X146296428Y-105120244D01*
X146276024Y-105221000D01*
X146276024Y-106021000D01*
X146293735Y-106115127D01*
X146329876Y-106171291D01*
X146296428Y-106220244D01*
X146276024Y-106321000D01*
X146276024Y-106403500D01*
X144942200Y-106403500D01*
X144820698Y-106427668D01*
X144717694Y-106496493D01*
X144630896Y-106583291D01*
X144416286Y-106583104D01*
X144212594Y-106667267D01*
X144056615Y-106822974D01*
X143972096Y-107026519D01*
X143971904Y-107246914D01*
X144056067Y-107450606D01*
X144211774Y-107606585D01*
X144415319Y-107691104D01*
X144635714Y-107691296D01*
X144839406Y-107607133D01*
X144995385Y-107451426D01*
X145079904Y-107247881D01*
X145080086Y-107038500D01*
X146276024Y-107038500D01*
X146276024Y-107121000D01*
X146293735Y-107215127D01*
X146329876Y-107271291D01*
X146296428Y-107320244D01*
X146276024Y-107421000D01*
X146276024Y-108030964D01*
X146087253Y-108219735D01*
X146034026Y-108166415D01*
X145830481Y-108081896D01*
X145610086Y-108081704D01*
X145406394Y-108165867D01*
X145250415Y-108321574D01*
X145165896Y-108525119D01*
X145165704Y-108745514D01*
X145249867Y-108949206D01*
X145405574Y-109105185D01*
X145609119Y-109189704D01*
X145829514Y-109189896D01*
X146033206Y-109105733D01*
X146189185Y-108950026D01*
X146193914Y-108938638D01*
X146241702Y-108929132D01*
X146276024Y-108906198D01*
X146276024Y-109321000D01*
X146293735Y-109415127D01*
X146329876Y-109471291D01*
X146296428Y-109520244D01*
X146279153Y-109605548D01*
X146161026Y-109487215D01*
X145957481Y-109402696D01*
X145737086Y-109402504D01*
X145533394Y-109486667D01*
X145377415Y-109642374D01*
X145292896Y-109845919D01*
X145292704Y-110066314D01*
X145376867Y-110270006D01*
X145532574Y-110425985D01*
X145736119Y-110510504D01*
X145956514Y-110510696D01*
X146160206Y-110426533D01*
X146248393Y-110338500D01*
X146276024Y-110338500D01*
X146276024Y-110421000D01*
X146293735Y-110515127D01*
X146329876Y-110571291D01*
X146296428Y-110620244D01*
X146276024Y-110721000D01*
X146276024Y-111521000D01*
X146293735Y-111615127D01*
X146329876Y-111671291D01*
X146296428Y-111720244D01*
X146276024Y-111821000D01*
X146276024Y-112621000D01*
X146293735Y-112715127D01*
X146329876Y-112771291D01*
X146296428Y-112820244D01*
X146276024Y-112921000D01*
X146276024Y-113721000D01*
X146293735Y-113815127D01*
X146329876Y-113871291D01*
X146296428Y-113920244D01*
X146276024Y-114021000D01*
X146276024Y-114821000D01*
X146293735Y-114915127D01*
X146349364Y-115001576D01*
X146434244Y-115059572D01*
X146535000Y-115079976D01*
X148035000Y-115079976D01*
X148129127Y-115062265D01*
X148215576Y-115006636D01*
X148273572Y-114921756D01*
X148293976Y-114821000D01*
X148293976Y-114021000D01*
X148276265Y-113926873D01*
X148240124Y-113870709D01*
X148273572Y-113821756D01*
X148293976Y-113721000D01*
X148293976Y-113268789D01*
X148319494Y-113294307D01*
X148422498Y-113363132D01*
X148430211Y-113364666D01*
X148485364Y-113450376D01*
X148570244Y-113508372D01*
X148625048Y-113519470D01*
X148576873Y-113528535D01*
X148490424Y-113584164D01*
X148432428Y-113669044D01*
X148412024Y-113769800D01*
X148412024Y-114169800D01*
X148429735Y-114263927D01*
X148485364Y-114350376D01*
X148570244Y-114408372D01*
X148671000Y-114428776D01*
X149271000Y-114428776D01*
X149365127Y-114411065D01*
X149451576Y-114355436D01*
X149509572Y-114270556D01*
X149529976Y-114169800D01*
X149529976Y-113802141D01*
X149627306Y-113737106D01*
X149855906Y-113508507D01*
X149924732Y-113405502D01*
X149927876Y-113389694D01*
X149948900Y-113284000D01*
X149948900Y-112565264D01*
X149924732Y-112443762D01*
X149898757Y-112404888D01*
X149855906Y-112340757D01*
X149781523Y-112266374D01*
X149805278Y-112242660D01*
X149817700Y-112245176D01*
X150351100Y-112245176D01*
X150391790Y-112237520D01*
X150415764Y-112274776D01*
X150500644Y-112332772D01*
X150555448Y-112343870D01*
X150507273Y-112352935D01*
X150420824Y-112408564D01*
X150362828Y-112493444D01*
X150342424Y-112594200D01*
X150342424Y-112994200D01*
X150360135Y-113088327D01*
X150415764Y-113174776D01*
X150500644Y-113232772D01*
X150583900Y-113249632D01*
X150583900Y-113249865D01*
X150482815Y-113350774D01*
X150398296Y-113554319D01*
X150398104Y-113774714D01*
X150482267Y-113978406D01*
X150568840Y-114065130D01*
X150568840Y-114194060D01*
X150538268Y-114238804D01*
X150517864Y-114339560D01*
X150517864Y-114839560D01*
X150535575Y-114933687D01*
X150568840Y-114985382D01*
X150568840Y-115207566D01*
X150501864Y-115250664D01*
X150443868Y-115335544D01*
X150423464Y-115436300D01*
X150423464Y-116186300D01*
X150441175Y-116280427D01*
X150496804Y-116366876D01*
X150581684Y-116424872D01*
X150682440Y-116445276D01*
X151045656Y-116445276D01*
X151079913Y-116479533D01*
X150981600Y-116459624D01*
X150381600Y-116459624D01*
X150287473Y-116477335D01*
X150201024Y-116532964D01*
X150162802Y-116588904D01*
X150162236Y-116588024D01*
X150077356Y-116530028D01*
X149976600Y-116509624D01*
X149576600Y-116509624D01*
X149482473Y-116527335D01*
X149396024Y-116582964D01*
X149338028Y-116667844D01*
X149317624Y-116768600D01*
X149317624Y-117368600D01*
X149335335Y-117462727D01*
X149390964Y-117549176D01*
X149475844Y-117607172D01*
X149576600Y-117627576D01*
X149976600Y-117627576D01*
X150070727Y-117609865D01*
X150157176Y-117554236D01*
X150162259Y-117546797D01*
X150195964Y-117599176D01*
X150280844Y-117657172D01*
X150381600Y-117677576D01*
X150981600Y-117677576D01*
X151075727Y-117659865D01*
X151162176Y-117604236D01*
X151220172Y-117519356D01*
X151231270Y-117464552D01*
X151240335Y-117512727D01*
X151295964Y-117599176D01*
X151380844Y-117657172D01*
X151481600Y-117677576D01*
X152081600Y-117677576D01*
X152175727Y-117659865D01*
X152262176Y-117604236D01*
X152320172Y-117519356D01*
X152340576Y-117418600D01*
X152340576Y-116718600D01*
X152325317Y-116637503D01*
X152737644Y-116225176D01*
X153009600Y-116225176D01*
X153009600Y-118552568D01*
X152976269Y-118519179D01*
X152602982Y-118364176D01*
X152198792Y-118363824D01*
X151825234Y-118518175D01*
X151539179Y-118803731D01*
X151436503Y-119051000D01*
X150823373Y-119051000D01*
X150721825Y-118805234D01*
X150436269Y-118519179D01*
X150130812Y-118392342D01*
X150159904Y-118322281D01*
X150160096Y-118101886D01*
X150075933Y-117898194D01*
X149920226Y-117742215D01*
X149716681Y-117657696D01*
X149496286Y-117657504D01*
X149385207Y-117703400D01*
X149340756Y-117673028D01*
X149240000Y-117652624D01*
X149030036Y-117652624D01*
X148856506Y-117479094D01*
X148753502Y-117410268D01*
X148632000Y-117386100D01*
X147335000Y-117386100D01*
X147233655Y-117406258D01*
X147213497Y-117410268D01*
X147110493Y-117479094D01*
X146869553Y-117720035D01*
X146800756Y-117673028D01*
X146700000Y-117652624D01*
X146300000Y-117652624D01*
X146205873Y-117670335D01*
X146119424Y-117725964D01*
X146061428Y-117810844D01*
X146050330Y-117865648D01*
X146041265Y-117817473D01*
X145985636Y-117731024D01*
X145900756Y-117673028D01*
X145800000Y-117652624D01*
X145400000Y-117652624D01*
X145305873Y-117670335D01*
X145219424Y-117725964D01*
X145161428Y-117810844D01*
X145141024Y-117911600D01*
X145141024Y-117925267D01*
X145048493Y-117987094D01*
X144718294Y-118317294D01*
X144688088Y-118362500D01*
X144686670Y-118363918D01*
X144578792Y-118363824D01*
X144205234Y-118518175D01*
X143919179Y-118803731D01*
X143816503Y-119051000D01*
X143203373Y-119051000D01*
X143101825Y-118805234D01*
X142816269Y-118519179D01*
X142442982Y-118364176D01*
X142038792Y-118363824D01*
X141757375Y-118480103D01*
X142374606Y-117862872D01*
X142443432Y-117759868D01*
X142444154Y-117756236D01*
X142467600Y-117638366D01*
X142467600Y-117479976D01*
X142935000Y-117479976D01*
X143029127Y-117462265D01*
X143115576Y-117406636D01*
X143173572Y-117321756D01*
X143193976Y-117221000D01*
X143193976Y-115721000D01*
X144076024Y-115721000D01*
X144076024Y-117221000D01*
X144093735Y-117315127D01*
X144149364Y-117401576D01*
X144234244Y-117459572D01*
X144335000Y-117479976D01*
X145135000Y-117479976D01*
X145229127Y-117462265D01*
X145315576Y-117406636D01*
X145373572Y-117321756D01*
X145393976Y-117221000D01*
X145393976Y-115721000D01*
X145376265Y-115626873D01*
X145320636Y-115540424D01*
X145235756Y-115482428D01*
X145135000Y-115462024D01*
X144335000Y-115462024D01*
X144240873Y-115479735D01*
X144154424Y-115535364D01*
X144096428Y-115620244D01*
X144076024Y-115721000D01*
X143193976Y-115721000D01*
X143176265Y-115626873D01*
X143120636Y-115540424D01*
X143035756Y-115482428D01*
X142935000Y-115462024D01*
X142135000Y-115462024D01*
X142040873Y-115479735D01*
X141984709Y-115515876D01*
X141935756Y-115482428D01*
X141835000Y-115462024D01*
X141035000Y-115462024D01*
X140940873Y-115479735D01*
X140884709Y-115515876D01*
X140835756Y-115482428D01*
X140735000Y-115462024D01*
X139935000Y-115462024D01*
X139840873Y-115479735D01*
X139784709Y-115515876D01*
X139735756Y-115482428D01*
X139635000Y-115462024D01*
X138835000Y-115462024D01*
X138740873Y-115479735D01*
X138684709Y-115515876D01*
X138635756Y-115482428D01*
X138535000Y-115462024D01*
X137735000Y-115462024D01*
X137640873Y-115479735D01*
X137584709Y-115515876D01*
X137535756Y-115482428D01*
X137435000Y-115462024D01*
X136635000Y-115462024D01*
X136548243Y-115478348D01*
X136574515Y-115415079D01*
X136574707Y-115194684D01*
X136490544Y-114990992D01*
X136334837Y-114835013D01*
X136131292Y-114750494D01*
X135910897Y-114750302D01*
X135707205Y-114834465D01*
X135551226Y-114990172D01*
X135466707Y-115193717D01*
X135466515Y-115414112D01*
X135489824Y-115470524D01*
X135440873Y-115479735D01*
X135354424Y-115535364D01*
X135296428Y-115620244D01*
X135276024Y-115721000D01*
X135276024Y-117221000D01*
X135293735Y-117315127D01*
X135349364Y-117401576D01*
X135434244Y-117459572D01*
X135535000Y-117479976D01*
X136335000Y-117479976D01*
X136429127Y-117462265D01*
X136485291Y-117426124D01*
X136534244Y-117459572D01*
X136635000Y-117479976D01*
X137032010Y-117479976D01*
X136919215Y-117592574D01*
X136834696Y-117796119D01*
X136834504Y-118016514D01*
X136918667Y-118220206D01*
X137062124Y-118363914D01*
X136958792Y-118363824D01*
X136839661Y-118413048D01*
X136722776Y-118296164D01*
X136722776Y-117886200D01*
X136705065Y-117792073D01*
X136649436Y-117705624D01*
X136564556Y-117647628D01*
X136463800Y-117627224D01*
X136063800Y-117627224D01*
X135969673Y-117644935D01*
X135883224Y-117700564D01*
X135825228Y-117785444D01*
X135814130Y-117840248D01*
X135805065Y-117792073D01*
X135749436Y-117705624D01*
X135664556Y-117647628D01*
X135563800Y-117627224D01*
X135163800Y-117627224D01*
X135147183Y-117630351D01*
X135089933Y-117491794D01*
X134934226Y-117335815D01*
X134730681Y-117251296D01*
X134510286Y-117251104D01*
X134306594Y-117335267D01*
X134224336Y-117417381D01*
X134150133Y-117237794D01*
X133994426Y-117081815D01*
X133790881Y-116997296D01*
X133570486Y-116997104D01*
X133366794Y-117081267D01*
X133210815Y-117236974D01*
X133126296Y-117440519D01*
X133126104Y-117660914D01*
X133178004Y-117786522D01*
X133158636Y-117756424D01*
X133073756Y-117698428D01*
X132973000Y-117678024D01*
X132573000Y-117678024D01*
X132478873Y-117695735D01*
X132409000Y-117740698D01*
X132409000Y-113838849D01*
X132449364Y-113901576D01*
X132534244Y-113959572D01*
X132635000Y-113979976D01*
X134135000Y-113979976D01*
X134229127Y-113962265D01*
X134315576Y-113906636D01*
X134332711Y-113881558D01*
X134409598Y-113932932D01*
X134531100Y-113957100D01*
X135589254Y-113957100D01*
X135740874Y-114108985D01*
X135944419Y-114193504D01*
X136164814Y-114193696D01*
X136368506Y-114109533D01*
X136524485Y-113953826D01*
X136609004Y-113750281D01*
X136609196Y-113529886D01*
X136525033Y-113326194D01*
X136369326Y-113170215D01*
X136165781Y-113085696D01*
X135945386Y-113085504D01*
X135741694Y-113169667D01*
X135588995Y-113322100D01*
X134662613Y-113322100D01*
X134661999Y-113321487D01*
X134661999Y-112830499D01*
X134637831Y-112708997D01*
X134620078Y-112682428D01*
X134569006Y-112605993D01*
X134393976Y-112430963D01*
X134393976Y-112290071D01*
X134456008Y-112302410D01*
X135524952Y-112302410D01*
X135676572Y-112454295D01*
X135880117Y-112538814D01*
X136100512Y-112539006D01*
X136304204Y-112454843D01*
X136460183Y-112299136D01*
X136544702Y-112095591D01*
X136544894Y-111875196D01*
X136460731Y-111671504D01*
X136305024Y-111515525D01*
X136101479Y-111431006D01*
X135881084Y-111430814D01*
X135677392Y-111514977D01*
X135524693Y-111667410D01*
X134649450Y-111667410D01*
X134637831Y-111608997D01*
X134631868Y-111600073D01*
X134569006Y-111505993D01*
X134393976Y-111330963D01*
X134393976Y-110721000D01*
X134376265Y-110626873D01*
X134340124Y-110570709D01*
X134340180Y-110570627D01*
X134432774Y-110663383D01*
X134636319Y-110747902D01*
X134856714Y-110748094D01*
X135060406Y-110663931D01*
X135216385Y-110508224D01*
X135300904Y-110304679D01*
X135301096Y-110084284D01*
X135216933Y-109880592D01*
X135061226Y-109724613D01*
X134864625Y-109642977D01*
X134883475Y-109635189D01*
X135039454Y-109479482D01*
X135123973Y-109275937D01*
X135124165Y-109055542D01*
X135040002Y-108851850D01*
X134884295Y-108695871D01*
X134680750Y-108611352D01*
X134460355Y-108611160D01*
X134429148Y-108624054D01*
X134393976Y-108617058D01*
X134393976Y-108521000D01*
X134376265Y-108426873D01*
X134320636Y-108340424D01*
X134235756Y-108282428D01*
X134135000Y-108262024D01*
X132635000Y-108262024D01*
X132540873Y-108279735D01*
X132454424Y-108335364D01*
X132409000Y-108401844D01*
X132409000Y-107238849D01*
X132449364Y-107301576D01*
X132534244Y-107359572D01*
X132635000Y-107379976D01*
X134135000Y-107379976D01*
X134229127Y-107362265D01*
X134315576Y-107306636D01*
X134373572Y-107221756D01*
X134393976Y-107121000D01*
X134393976Y-107118935D01*
X134433020Y-107111169D01*
X134483919Y-107132304D01*
X134704314Y-107132496D01*
X134908006Y-107048333D01*
X135063985Y-106892626D01*
X135148504Y-106689081D01*
X135148696Y-106468686D01*
X135089364Y-106325090D01*
X135144506Y-106302306D01*
X135300485Y-106146599D01*
X135385004Y-105943054D01*
X135385196Y-105722659D01*
X135301033Y-105518967D01*
X135145326Y-105362988D01*
X134941781Y-105278469D01*
X134721386Y-105278277D01*
X134647143Y-105308953D01*
X134619727Y-105303500D01*
X134393976Y-105303500D01*
X134393976Y-105221000D01*
X134376265Y-105126873D01*
X134340124Y-105070709D01*
X134373572Y-105021756D01*
X134393976Y-104921000D01*
X134393976Y-104121000D01*
X134376265Y-104026873D01*
X134320636Y-103940424D01*
X134235756Y-103882428D01*
X134135000Y-103862024D01*
X132635000Y-103862024D01*
X132540873Y-103879735D01*
X132454424Y-103935364D01*
X132409000Y-104001844D01*
X132409000Y-102838849D01*
X132449364Y-102901576D01*
X132534244Y-102959572D01*
X132635000Y-102979976D01*
X134135000Y-102979976D01*
X134229127Y-102962265D01*
X134315576Y-102906636D01*
X134373572Y-102821756D01*
X134374426Y-102817541D01*
X134378667Y-102827806D01*
X134534374Y-102983785D01*
X134737919Y-103068304D01*
X134958314Y-103068496D01*
X135162006Y-102984333D01*
X135317985Y-102828626D01*
X135402504Y-102625081D01*
X135402696Y-102404686D01*
X135318533Y-102200994D01*
X135162826Y-102045015D01*
X134959281Y-101960496D01*
X134738886Y-101960304D01*
X134634343Y-102003500D01*
X134393976Y-102003500D01*
X134393976Y-101921000D01*
X134376265Y-101826873D01*
X134340124Y-101770709D01*
X134373572Y-101721756D01*
X134393976Y-101621000D01*
X134393976Y-101011036D01*
X134476310Y-100928702D01*
X134510930Y-100963383D01*
X134714475Y-101047902D01*
X134934870Y-101048094D01*
X135138562Y-100963931D01*
X135294541Y-100808224D01*
X135379060Y-100604679D01*
X135379252Y-100384284D01*
X135295089Y-100180592D01*
X135284942Y-100170427D01*
X135370343Y-100085175D01*
X135454862Y-99881630D01*
X135455054Y-99661235D01*
X135370891Y-99457543D01*
X135278424Y-99364915D01*
X135294541Y-99348826D01*
X135379060Y-99145281D01*
X135379252Y-98924886D01*
X135295089Y-98721194D01*
X135139382Y-98565215D01*
X134935837Y-98480696D01*
X134715442Y-98480504D01*
X134511750Y-98564667D01*
X134393976Y-98682236D01*
X134393976Y-98621000D01*
X134376265Y-98526873D01*
X134320636Y-98440424D01*
X134235756Y-98382428D01*
X134135000Y-98362024D01*
X132635000Y-98362024D01*
X132540873Y-98379735D01*
X132454424Y-98435364D01*
X132409000Y-98501844D01*
X132409000Y-97338849D01*
X132449364Y-97401576D01*
X132534244Y-97459572D01*
X132635000Y-97479976D01*
X134135000Y-97479976D01*
X134229127Y-97462265D01*
X134315576Y-97406636D01*
X134373572Y-97321756D01*
X134386888Y-97256001D01*
X135706185Y-97256001D01*
X135780513Y-97330329D01*
X135780404Y-97455214D01*
X135864567Y-97658906D01*
X136020274Y-97814885D01*
X136223819Y-97899404D01*
X136444214Y-97899596D01*
X136647906Y-97815433D01*
X136803885Y-97659726D01*
X136888404Y-97456181D01*
X136888407Y-97452620D01*
X141821078Y-97452620D01*
X141928030Y-97711463D01*
X142125895Y-97909674D01*
X142384551Y-98017077D01*
X142664620Y-98017322D01*
X142923463Y-97910370D01*
X143121674Y-97712505D01*
X143229077Y-97453849D01*
X143229322Y-97173780D01*
X143122370Y-96914937D01*
X142924505Y-96716726D01*
X142665849Y-96609323D01*
X142385780Y-96609078D01*
X142126937Y-96716030D01*
X141928726Y-96913895D01*
X141821323Y-97172551D01*
X141821078Y-97452620D01*
X136888407Y-97452620D01*
X136888596Y-97235786D01*
X136804433Y-97032094D01*
X136648726Y-96876115D01*
X136445181Y-96791596D01*
X136319302Y-96791486D01*
X136133409Y-96605593D01*
X136009804Y-96523003D01*
X135864001Y-96494001D01*
X134393976Y-96494001D01*
X134393976Y-96421000D01*
X134376265Y-96326873D01*
X134320636Y-96240424D01*
X134235756Y-96182428D01*
X134135000Y-96162024D01*
X132635000Y-96162024D01*
X132540873Y-96179735D01*
X132454424Y-96235364D01*
X132409000Y-96301844D01*
X132409000Y-95138849D01*
X132449364Y-95201576D01*
X132534244Y-95259572D01*
X132635000Y-95279976D01*
X134135000Y-95279976D01*
X134229127Y-95262265D01*
X134315576Y-95206636D01*
X134373572Y-95121756D01*
X134393976Y-95021000D01*
X134393976Y-94221000D01*
X134376265Y-94126873D01*
X134320636Y-94040424D01*
X134235756Y-93982428D01*
X134135000Y-93962024D01*
X132782134Y-93962024D01*
X132761999Y-93941889D01*
X132761999Y-92426213D01*
X133367212Y-91821000D01*
X136376024Y-91821000D01*
X136376024Y-93321000D01*
X136393735Y-93415127D01*
X136449364Y-93501576D01*
X136534244Y-93559572D01*
X136635000Y-93579976D01*
X137435000Y-93579976D01*
X137529127Y-93562265D01*
X137615576Y-93506636D01*
X137673572Y-93421756D01*
X137693976Y-93321000D01*
X137693976Y-91821000D01*
X137676265Y-91726873D01*
X137620636Y-91640424D01*
X137535756Y-91582428D01*
X137435000Y-91562024D01*
X136635000Y-91562024D01*
X136540873Y-91579735D01*
X136454424Y-91635364D01*
X136396428Y-91720244D01*
X136376024Y-91821000D01*
X133367212Y-91821000D01*
X133592404Y-91595809D01*
X133635392Y-91624532D01*
X133676999Y-91652333D01*
X133798501Y-91676501D01*
X134795499Y-91676501D01*
X134917001Y-91652333D01*
X135020005Y-91583507D01*
X135176036Y-91427476D01*
X135386000Y-91427476D01*
X135480127Y-91409765D01*
X135566576Y-91354136D01*
X135624572Y-91269256D01*
X135635670Y-91214452D01*
X135644735Y-91262627D01*
X135700364Y-91349076D01*
X135785244Y-91407072D01*
X135886000Y-91427476D01*
X136286000Y-91427476D01*
X136380127Y-91409765D01*
X136466576Y-91354136D01*
X136524572Y-91269256D01*
X136544976Y-91168500D01*
X136544976Y-90568500D01*
X136527265Y-90474373D01*
X136471636Y-90387924D01*
X136386756Y-90329928D01*
X136381078Y-90328778D01*
X136379332Y-90319998D01*
X136373274Y-90310932D01*
X136310507Y-90216994D01*
X136267606Y-90174094D01*
X136164602Y-90105268D01*
X136043100Y-90081100D01*
X135877300Y-90081100D01*
X135877300Y-89772300D01*
X135862283Y-89696800D01*
X142903424Y-89696800D01*
X142903424Y-90746800D01*
X142921135Y-90840927D01*
X142976764Y-90927376D01*
X143061644Y-90985372D01*
X143154400Y-91004156D01*
X143154400Y-91577190D01*
X143140873Y-91579735D01*
X143054424Y-91635364D01*
X142996428Y-91720244D01*
X142976024Y-91821000D01*
X142976024Y-93321000D01*
X142993735Y-93415127D01*
X143049364Y-93501576D01*
X143134244Y-93559572D01*
X143235000Y-93579976D01*
X144035000Y-93579976D01*
X144129127Y-93562265D01*
X144215576Y-93506636D01*
X144273572Y-93421756D01*
X144293976Y-93321000D01*
X144293976Y-92647000D01*
X153097524Y-92647000D01*
X153097524Y-93747000D01*
X153115235Y-93841127D01*
X153170864Y-93927576D01*
X153255744Y-93985572D01*
X153356500Y-94005976D01*
X153856500Y-94005976D01*
X153950627Y-93988265D01*
X154037076Y-93932636D01*
X154095072Y-93847756D01*
X154115476Y-93747000D01*
X154115476Y-92647000D01*
X154097765Y-92552873D01*
X154042136Y-92466424D01*
X153957256Y-92408428D01*
X153856500Y-92388024D01*
X153356500Y-92388024D01*
X153262373Y-92405735D01*
X153175924Y-92461364D01*
X153117928Y-92546244D01*
X153097524Y-92647000D01*
X144293976Y-92647000D01*
X144293976Y-91821000D01*
X144276265Y-91726873D01*
X144220636Y-91640424D01*
X144170400Y-91606099D01*
X144170400Y-91004271D01*
X144256527Y-90988065D01*
X144342976Y-90932436D01*
X144400972Y-90847556D01*
X144421376Y-90746800D01*
X144421376Y-89696800D01*
X144403665Y-89602673D01*
X144348036Y-89516224D01*
X144263156Y-89458228D01*
X144162400Y-89437824D01*
X143162400Y-89437824D01*
X143068273Y-89455535D01*
X142981824Y-89511164D01*
X142923828Y-89596044D01*
X142903424Y-89696800D01*
X135862283Y-89696800D01*
X135853132Y-89650798D01*
X135839902Y-89630998D01*
X135784306Y-89547793D01*
X135737506Y-89500994D01*
X135716382Y-89486879D01*
X135741752Y-89461553D01*
X135826271Y-89258008D01*
X135826463Y-89037613D01*
X135742300Y-88833921D01*
X135591266Y-88682623D01*
X135619584Y-88701972D01*
X135720340Y-88722376D01*
X135784007Y-88722376D01*
X135845834Y-88814906D01*
X135948142Y-88917215D01*
X135948044Y-89030032D01*
X136032207Y-89233724D01*
X136187914Y-89389703D01*
X136391459Y-89474222D01*
X136611854Y-89474414D01*
X136815546Y-89390251D01*
X136971525Y-89234544D01*
X137056044Y-89030999D01*
X137056053Y-89020737D01*
X137058120Y-89021156D01*
X137658120Y-89021156D01*
X137752247Y-89003445D01*
X137838696Y-88947816D01*
X137896692Y-88862936D01*
X137917096Y-88762180D01*
X137917096Y-88362180D01*
X137899385Y-88268053D01*
X137843756Y-88181604D01*
X137758876Y-88123608D01*
X137704072Y-88112510D01*
X137752247Y-88103445D01*
X137838696Y-88047816D01*
X137896692Y-87962936D01*
X137917096Y-87862180D01*
X137917096Y-87462180D01*
X137899385Y-87368053D01*
X137843756Y-87281604D01*
X137758876Y-87223608D01*
X137658120Y-87203204D01*
X137588327Y-87203204D01*
X137582627Y-87194674D01*
X137536906Y-87148954D01*
X137433902Y-87080128D01*
X137430745Y-87079500D01*
X137312400Y-87055960D01*
X136988912Y-87055960D01*
X136771846Y-86838894D01*
X136679316Y-86777067D01*
X136679316Y-86763400D01*
X136665317Y-86689000D01*
X149811261Y-86689000D01*
X149780307Y-86763545D01*
X149780307Y-86763545D01*
G37*
X149780307Y-86763545D02*
X149780115Y-86983940D01*
X149864278Y-87187632D01*
X150019985Y-87343611D01*
X150223530Y-87428130D01*
X150439291Y-87428318D01*
X150632479Y-87621506D01*
X150735483Y-87690332D01*
X150830360Y-87709204D01*
X150705584Y-87709095D01*
X150483508Y-87800855D01*
X150313452Y-87970615D01*
X150221305Y-88192530D01*
X150221095Y-88432816D01*
X150312855Y-88654892D01*
X150482615Y-88824948D01*
X150704530Y-88917095D01*
X150944816Y-88917305D01*
X151114151Y-88847337D01*
X151108694Y-88852794D01*
X151039868Y-88955798D01*
X151015700Y-89077300D01*
X151015700Y-89752602D01*
X151034477Y-89847002D01*
X151039868Y-89874104D01*
X151051001Y-89890766D01*
X151044294Y-89906919D01*
X151044102Y-90127314D01*
X151128265Y-90331006D01*
X151283972Y-90486985D01*
X151487517Y-90571504D01*
X151707912Y-90571696D01*
X151911604Y-90487533D01*
X152067583Y-90331826D01*
X152152102Y-90128281D01*
X152152294Y-89907886D01*
X152068131Y-89704194D01*
X151912424Y-89548215D01*
X151708879Y-89463696D01*
X151650700Y-89463645D01*
X151650700Y-89208812D01*
X152561006Y-88298507D01*
X152628058Y-88198156D01*
X152680627Y-88188265D01*
X152767076Y-88132636D01*
X152825072Y-88047756D01*
X152845476Y-87947000D01*
X152845476Y-86847000D01*
X152827765Y-86752873D01*
X152786663Y-86689000D01*
X153157041Y-86689000D01*
X153117928Y-86746244D01*
X153097524Y-86847000D01*
X153097524Y-87947000D01*
X153115235Y-88041127D01*
X153170864Y-88127576D01*
X153255744Y-88185572D01*
X153356500Y-88205976D01*
X153377900Y-88205976D01*
X153377900Y-88230954D01*
X153226015Y-88382574D01*
X153141496Y-88586119D01*
X153141304Y-88806514D01*
X153225467Y-89010206D01*
X153253236Y-89038024D01*
X153241500Y-89038024D01*
X153147373Y-89055735D01*
X153060924Y-89111364D01*
X153002928Y-89196244D01*
X152982524Y-89297000D01*
X152982524Y-91297000D01*
X153000235Y-91391127D01*
X153055864Y-91477576D01*
X153140744Y-91535572D01*
X153241500Y-91555976D01*
X153942185Y-91555976D01*
X153878096Y-91710319D01*
X153877904Y-91930714D01*
X153962067Y-92134406D01*
X154117774Y-92290385D01*
X154321319Y-92374904D01*
X154537080Y-92375092D01*
X154559000Y-92397012D01*
X154559000Y-92400725D01*
X154532373Y-92405735D01*
X154445924Y-92461364D01*
X154387928Y-92546244D01*
X154367524Y-92647000D01*
X154367524Y-93747000D01*
X154385235Y-93841127D01*
X154440864Y-93927576D01*
X154525744Y-93985572D01*
X154626500Y-94005976D01*
X155126500Y-94005976D01*
X155220627Y-93988265D01*
X155307076Y-93932636D01*
X155365072Y-93847756D01*
X155385476Y-93747000D01*
X155385476Y-92647000D01*
X155367765Y-92552873D01*
X155312136Y-92466424D01*
X155227256Y-92408428D01*
X155194000Y-92401693D01*
X155194000Y-92265500D01*
X155169832Y-92143998D01*
X155101006Y-92040994D01*
X154985909Y-91925897D01*
X154986096Y-91711286D01*
X154921924Y-91555976D01*
X155241500Y-91555976D01*
X155335627Y-91538265D01*
X155422076Y-91482636D01*
X155480072Y-91397756D01*
X155500476Y-91297000D01*
X155500476Y-89297000D01*
X155482765Y-89202873D01*
X155427136Y-89116424D01*
X155342256Y-89058428D01*
X155241500Y-89038024D01*
X154137740Y-89038024D01*
X154164785Y-89011026D01*
X154249304Y-88807481D01*
X154249496Y-88587086D01*
X154165333Y-88383394D01*
X154012900Y-88230695D01*
X154012900Y-88148193D01*
X154037076Y-88132636D01*
X154095072Y-88047756D01*
X154115476Y-87947000D01*
X154115476Y-86847000D01*
X154097765Y-86752873D01*
X154056663Y-86689000D01*
X154427041Y-86689000D01*
X154387928Y-86746244D01*
X154367524Y-86847000D01*
X154367524Y-87947000D01*
X154385235Y-88041127D01*
X154413153Y-88084513D01*
X154369015Y-88128574D01*
X154284496Y-88332119D01*
X154284304Y-88552514D01*
X154368467Y-88756206D01*
X154524174Y-88912185D01*
X154727719Y-88996704D01*
X154948114Y-88996896D01*
X155151806Y-88912733D01*
X155307785Y-88757026D01*
X155392304Y-88553481D01*
X155392496Y-88333086D01*
X155308694Y-88130268D01*
X155365072Y-88047756D01*
X155385476Y-87947000D01*
X155385476Y-86847000D01*
X155367765Y-86752873D01*
X155326663Y-86689000D01*
X155697041Y-86689000D01*
X155657928Y-86746244D01*
X155637524Y-86847000D01*
X155637524Y-87947000D01*
X155655235Y-88041127D01*
X155710864Y-88127576D01*
X155795744Y-88185572D01*
X155896500Y-88205976D01*
X156396500Y-88205976D01*
X156490627Y-88188265D01*
X156577076Y-88132636D01*
X156635072Y-88047756D01*
X156655476Y-87947000D01*
X156655476Y-86847000D01*
X156637765Y-86752873D01*
X156596663Y-86689000D01*
X157151000Y-86689000D01*
X157151000Y-90476627D01*
X156905234Y-90578175D01*
X156619179Y-90863731D01*
X156464176Y-91237018D01*
X156463824Y-91641208D01*
X156618175Y-92014766D01*
X156903731Y-92300821D01*
X157151000Y-92403497D01*
X157151000Y-93016627D01*
X156905234Y-93118175D01*
X156655476Y-93367497D01*
X156655476Y-92647000D01*
X156637765Y-92552873D01*
X156582136Y-92466424D01*
X156497256Y-92408428D01*
X156396500Y-92388024D01*
X155896500Y-92388024D01*
X155802373Y-92405735D01*
X155715924Y-92461364D01*
X155657928Y-92546244D01*
X155637524Y-92647000D01*
X155637524Y-93747000D01*
X155655235Y-93841127D01*
X155710864Y-93927576D01*
X155795744Y-93985572D01*
X155896500Y-94005976D01*
X156396500Y-94005976D01*
X156463988Y-93993277D01*
X156463918Y-94073664D01*
X156055380Y-94073664D01*
X155961253Y-94091375D01*
X155874804Y-94147004D01*
X155816808Y-94231884D01*
X155810249Y-94264272D01*
X155617686Y-94264104D01*
X155413994Y-94348267D01*
X155314356Y-94447731D01*
X155314356Y-94332640D01*
X155296645Y-94238513D01*
X155241016Y-94152064D01*
X155156136Y-94094068D01*
X155055380Y-94073664D01*
X154555380Y-94073664D01*
X154461253Y-94091375D01*
X154374804Y-94147004D01*
X154316808Y-94231884D01*
X154302852Y-94300800D01*
X154247671Y-94300800D01*
X154231465Y-94214673D01*
X154175836Y-94128224D01*
X154090956Y-94070228D01*
X153990200Y-94049824D01*
X152740200Y-94049824D01*
X152646073Y-94067535D01*
X152559624Y-94123164D01*
X152501628Y-94208044D01*
X152481224Y-94308800D01*
X152481224Y-94326200D01*
X152393471Y-94326200D01*
X152377265Y-94240073D01*
X152321636Y-94153624D01*
X152236756Y-94095628D01*
X152136000Y-94075224D01*
X150886000Y-94075224D01*
X150791873Y-94092935D01*
X150705424Y-94148564D01*
X150660637Y-94214112D01*
X150647403Y-94205269D01*
X150622000Y-94200216D01*
X150622000Y-93996620D01*
X150622976Y-93991800D01*
X150622976Y-93391800D01*
X150605265Y-93297673D01*
X150549636Y-93211224D01*
X150464756Y-93153228D01*
X150364000Y-93132824D01*
X149864000Y-93132824D01*
X149769873Y-93150535D01*
X149718178Y-93183800D01*
X149417300Y-93183800D01*
X149372556Y-93153228D01*
X149271800Y-93132824D01*
X148771800Y-93132824D01*
X148677673Y-93150535D01*
X148625978Y-93183800D01*
X148293976Y-93183800D01*
X148293976Y-93121000D01*
X148276265Y-93026873D01*
X148220636Y-92940424D01*
X148135756Y-92882428D01*
X148035000Y-92862024D01*
X146535000Y-92862024D01*
X146440873Y-92879735D01*
X146354424Y-92935364D01*
X146296428Y-93020244D01*
X146276024Y-93121000D01*
X146276024Y-93921000D01*
X146293735Y-94015127D01*
X146329876Y-94071291D01*
X146296428Y-94120244D01*
X146276024Y-94221000D01*
X146276024Y-95021000D01*
X146293735Y-95115127D01*
X146329876Y-95171291D01*
X146296428Y-95220244D01*
X146276024Y-95321000D01*
X146276024Y-96121000D01*
X146293735Y-96215127D01*
X146349364Y-96301576D01*
X146434244Y-96359572D01*
X146535000Y-96379976D01*
X148035000Y-96379976D01*
X148129127Y-96362265D01*
X148215576Y-96306636D01*
X148273572Y-96221756D01*
X148293976Y-96121000D01*
X148293976Y-95321000D01*
X148276265Y-95226873D01*
X148247776Y-95182600D01*
X148651700Y-95182600D01*
X148696444Y-95213172D01*
X148797200Y-95233576D01*
X149297200Y-95233576D01*
X149391327Y-95215865D01*
X149443022Y-95182600D01*
X149718500Y-95182600D01*
X149763244Y-95213172D01*
X149864000Y-95233576D01*
X150313502Y-95233576D01*
X150313866Y-95233819D01*
X150418197Y-95303531D01*
X150612600Y-95342200D01*
X150628529Y-95342200D01*
X150644735Y-95428327D01*
X150700364Y-95514776D01*
X150785244Y-95572772D01*
X150886000Y-95593176D01*
X152136000Y-95593176D01*
X152230127Y-95575465D01*
X152316576Y-95519836D01*
X152374572Y-95434956D01*
X152393356Y-95342200D01*
X152487509Y-95342200D01*
X152498935Y-95402927D01*
X152554564Y-95489376D01*
X152639444Y-95547372D01*
X152740200Y-95567776D01*
X153990200Y-95567776D01*
X154084327Y-95550065D01*
X154170776Y-95494436D01*
X154228772Y-95409556D01*
X154247556Y-95316800D01*
X154312240Y-95316800D01*
X154314115Y-95326767D01*
X154369744Y-95413216D01*
X154454624Y-95471212D01*
X154555380Y-95491616D01*
X155055380Y-95491616D01*
X155149507Y-95473905D01*
X155235956Y-95418276D01*
X155293952Y-95333396D01*
X155314356Y-95232640D01*
X155314356Y-95188594D01*
X155413174Y-95287585D01*
X155616719Y-95372104D01*
X155837114Y-95372296D01*
X155842090Y-95370240D01*
X155869744Y-95413216D01*
X155954624Y-95471212D01*
X155969400Y-95474204D01*
X155969400Y-95591327D01*
X155933808Y-95677042D01*
X155933616Y-95897437D01*
X156017779Y-96101129D01*
X156173486Y-96257108D01*
X156377031Y-96341627D01*
X156464155Y-96341703D01*
X156463824Y-96721208D01*
X156618175Y-97094766D01*
X156903731Y-97380821D01*
X157151000Y-97483497D01*
X157151000Y-98096627D01*
X156905234Y-98198175D01*
X156619179Y-98483731D01*
X156464176Y-98857018D01*
X156463824Y-99261208D01*
X156618175Y-99634766D01*
X156903731Y-99920821D01*
X157151000Y-100023497D01*
X157151000Y-100636627D01*
X156905234Y-100738175D01*
X156619179Y-101023731D01*
X156464176Y-101397018D01*
X156463824Y-101801208D01*
X156618175Y-102174766D01*
X156903731Y-102460821D01*
X157151000Y-102563497D01*
X157151000Y-103176627D01*
X156905234Y-103278175D01*
X156619179Y-103563731D01*
X156533635Y-103769742D01*
X156420214Y-103656321D01*
X156296609Y-103573731D01*
X156150806Y-103544729D01*
X155994562Y-103544729D01*
X155538365Y-103088532D01*
X155459283Y-103034498D01*
X155358819Y-103012705D01*
X155257790Y-103031715D01*
X155172117Y-103088532D01*
X154995340Y-103265309D01*
X154941306Y-103344391D01*
X154933639Y-103379735D01*
X154904236Y-103385268D01*
X154818563Y-103442085D01*
X154641786Y-103618862D01*
X154587752Y-103697944D01*
X154580085Y-103733290D01*
X154550683Y-103738822D01*
X154465010Y-103795639D01*
X154288233Y-103972416D01*
X154234199Y-104051498D01*
X154226532Y-104086843D01*
X154197130Y-104092375D01*
X154111457Y-104149192D01*
X153934680Y-104325969D01*
X153880646Y-104405051D01*
X153872979Y-104440395D01*
X153843576Y-104445928D01*
X153757903Y-104502745D01*
X153581126Y-104679522D01*
X153527092Y-104758604D01*
X153519425Y-104793950D01*
X153490023Y-104799482D01*
X153404350Y-104856299D01*
X153227573Y-105033076D01*
X153173539Y-105112158D01*
X153165872Y-105147502D01*
X153136469Y-105153035D01*
X153050796Y-105209852D01*
X152933400Y-105327248D01*
X152816004Y-105209852D01*
X152736922Y-105155818D01*
X152701576Y-105148151D01*
X152696044Y-105118749D01*
X152639227Y-105033076D01*
X152462450Y-104856299D01*
X152383368Y-104802265D01*
X152348024Y-104794598D01*
X152342491Y-104765195D01*
X152285674Y-104679522D01*
X152108897Y-104502745D01*
X152029815Y-104448711D01*
X151994469Y-104441044D01*
X151988937Y-104411642D01*
X151932120Y-104325969D01*
X151755343Y-104149192D01*
X151676261Y-104095158D01*
X151640916Y-104087491D01*
X151635384Y-104058089D01*
X151578567Y-103972416D01*
X151401790Y-103795639D01*
X151322708Y-103741605D01*
X151287364Y-103733938D01*
X151281831Y-103704535D01*
X151225014Y-103618862D01*
X151048237Y-103442085D01*
X150969155Y-103388051D01*
X150933809Y-103380384D01*
X150928277Y-103350982D01*
X150871460Y-103265309D01*
X150694683Y-103088532D01*
X150615601Y-103034498D01*
X150580257Y-103026831D01*
X150574724Y-102997428D01*
X150517907Y-102911755D01*
X150400511Y-102794359D01*
X150517907Y-102676963D01*
X150571941Y-102597881D01*
X150579608Y-102562535D01*
X150609010Y-102557003D01*
X150694683Y-102500186D01*
X150871460Y-102323409D01*
X150925494Y-102244327D01*
X150933161Y-102208983D01*
X150962564Y-102203450D01*
X151048237Y-102146633D01*
X151225014Y-101969856D01*
X151279048Y-101890774D01*
X151286715Y-101855428D01*
X151316117Y-101849896D01*
X151401790Y-101793079D01*
X151578567Y-101616302D01*
X151632601Y-101537220D01*
X151640268Y-101501875D01*
X151669670Y-101496343D01*
X151755343Y-101439526D01*
X151932120Y-101262749D01*
X151986154Y-101183667D01*
X151993821Y-101148323D01*
X152023224Y-101142790D01*
X152108897Y-101085973D01*
X152285674Y-100909196D01*
X152339708Y-100830114D01*
X152347375Y-100794768D01*
X152376777Y-100789236D01*
X152462450Y-100732419D01*
X152639227Y-100555642D01*
X152693261Y-100476560D01*
X152700928Y-100441216D01*
X152730331Y-100435683D01*
X152816004Y-100378866D01*
X152992781Y-100202089D01*
X153046815Y-100123007D01*
X153068608Y-100022543D01*
X153049598Y-99921514D01*
X152992781Y-99835841D01*
X152497806Y-99340866D01*
X152488289Y-99334364D01*
X152500707Y-99321946D01*
X152569533Y-99218941D01*
X152580210Y-99165262D01*
X152593701Y-99097439D01*
X152593701Y-98747085D01*
X152579890Y-98677653D01*
X152621388Y-98616919D01*
X152643181Y-98516455D01*
X152624171Y-98415426D01*
X152567354Y-98329753D01*
X152083117Y-97845516D01*
X152392004Y-97845516D01*
X152476167Y-98049208D01*
X152631874Y-98205187D01*
X152835419Y-98289706D01*
X153055814Y-98289898D01*
X153259506Y-98205735D01*
X153378857Y-98086592D01*
X153620816Y-98086592D01*
X154104175Y-98569951D01*
X153766276Y-98907850D01*
X153712242Y-98986932D01*
X153690449Y-99087396D01*
X153709459Y-99188425D01*
X153732957Y-99223857D01*
X153712772Y-99254065D01*
X153709178Y-99272132D01*
X153683770Y-99399868D01*
X153683770Y-99733197D01*
X153227573Y-100189394D01*
X153173539Y-100268476D01*
X153151746Y-100368940D01*
X153170756Y-100469969D01*
X153227573Y-100555642D01*
X153404350Y-100732419D01*
X153483432Y-100786453D01*
X153518776Y-100794120D01*
X153524309Y-100823523D01*
X153581126Y-100909196D01*
X153757903Y-101085973D01*
X153836985Y-101140007D01*
X153872331Y-101147674D01*
X153877863Y-101177076D01*
X153934680Y-101262749D01*
X154111457Y-101439526D01*
X154190539Y-101493560D01*
X154225884Y-101501227D01*
X154231416Y-101530629D01*
X154288233Y-101616302D01*
X154465010Y-101793079D01*
X154544092Y-101847113D01*
X154579436Y-101854780D01*
X154584969Y-101884183D01*
X154641786Y-101969856D01*
X154818563Y-102146633D01*
X154897645Y-102200667D01*
X154932991Y-102208334D01*
X154938523Y-102237736D01*
X154995340Y-102323409D01*
X155172117Y-102500186D01*
X155251199Y-102554220D01*
X155286543Y-102561887D01*
X155292076Y-102591290D01*
X155348893Y-102676963D01*
X155525670Y-102853740D01*
X155604752Y-102907774D01*
X155705216Y-102929567D01*
X155806245Y-102910557D01*
X155891918Y-102853740D01*
X156386893Y-102358765D01*
X156440927Y-102279683D01*
X156462720Y-102179219D01*
X156443710Y-102078190D01*
X156386893Y-101992517D01*
X156210116Y-101815740D01*
X156131034Y-101761706D01*
X156130427Y-101761574D01*
X156150037Y-101662989D01*
X156150037Y-101325856D01*
X156222193Y-101253826D01*
X156306712Y-101050281D01*
X156306904Y-100829886D01*
X156222741Y-100626194D01*
X156067034Y-100470215D01*
X155863489Y-100385696D01*
X155820733Y-100385659D01*
X155838826Y-100367566D01*
X155907652Y-100264562D01*
X155922289Y-100190975D01*
X155927726Y-100188729D01*
X156083705Y-100033022D01*
X156168224Y-99829477D01*
X156168416Y-99609082D01*
X156084253Y-99405390D01*
X155928546Y-99249411D01*
X155725001Y-99164892D01*
X155504606Y-99164700D01*
X155300914Y-99248863D01*
X155225609Y-99324037D01*
X155203426Y-99301815D01*
X154999881Y-99217296D01*
X154974886Y-99217274D01*
X154986169Y-99165262D01*
X154967159Y-99064233D01*
X154938512Y-99021036D01*
X154966796Y-98878842D01*
X154966796Y-98512756D01*
X154937794Y-98366954D01*
X154937794Y-98366953D01*
X154886179Y-98289706D01*
X154855204Y-98243348D01*
X154855201Y-98243346D01*
X154048040Y-97436184D01*
X153924435Y-97353594D01*
X153778632Y-97324592D01*
X153318400Y-97324592D01*
X153260326Y-97266417D01*
X153056781Y-97181898D01*
X152836386Y-97181706D01*
X152632694Y-97265869D01*
X152476715Y-97421576D01*
X152392196Y-97625121D01*
X152392004Y-97845516D01*
X152083117Y-97845516D01*
X151860247Y-97622646D01*
X151781165Y-97568612D01*
X151680701Y-97546819D01*
X151579672Y-97565829D01*
X151493999Y-97622646D01*
X151140446Y-97976199D01*
X151086412Y-98055281D01*
X151064619Y-98155745D01*
X151083629Y-98256774D01*
X151140446Y-98342447D01*
X151847553Y-99049554D01*
X151879206Y-99071181D01*
X151862252Y-99096554D01*
X151843789Y-99189377D01*
X151789536Y-99107571D01*
X151082429Y-98400464D01*
X151003347Y-98346430D01*
X150902883Y-98324637D01*
X150801854Y-98343647D01*
X150716181Y-98400464D01*
X150362628Y-98754017D01*
X150308594Y-98833099D01*
X150306553Y-98842509D01*
X150199626Y-98735395D01*
X149996081Y-98650876D01*
X149775686Y-98650684D01*
X149571994Y-98734847D01*
X149416015Y-98890554D01*
X149331496Y-99094099D01*
X149331304Y-99314494D01*
X149415467Y-99518186D01*
X149571174Y-99674165D01*
X149774719Y-99758684D01*
X149995114Y-99758876D01*
X150062506Y-99731030D01*
X150016619Y-99841539D01*
X150016427Y-100061934D01*
X150100590Y-100265626D01*
X150109916Y-100274968D01*
X150023848Y-100360886D01*
X149998171Y-100422723D01*
X149823361Y-100350136D01*
X149602966Y-100349944D01*
X149399274Y-100434107D01*
X149243295Y-100589814D01*
X149158776Y-100793359D01*
X149158637Y-100952786D01*
X149148000Y-100952777D01*
X148944308Y-101036940D01*
X148788329Y-101192647D01*
X148703810Y-101396192D01*
X148703618Y-101616587D01*
X148787781Y-101820279D01*
X148828367Y-101860936D01*
X148769779Y-101919422D01*
X148685260Y-102122967D01*
X148685068Y-102343362D01*
X148769231Y-102547054D01*
X148924938Y-102703033D01*
X149051505Y-102755588D01*
X149502888Y-103206972D01*
X149479907Y-103229953D01*
X149425873Y-103309035D01*
X149409744Y-103383390D01*
X149347200Y-103370724D01*
X148833732Y-103370724D01*
X148776238Y-103313130D01*
X148572693Y-103228611D01*
X148352298Y-103228419D01*
X148293976Y-103252517D01*
X148293976Y-103021000D01*
X148276265Y-102926873D01*
X148240124Y-102870709D01*
X148273572Y-102821756D01*
X148293976Y-102721000D01*
X148293976Y-101921000D01*
X148276265Y-101826873D01*
X148240124Y-101770709D01*
X148273572Y-101721756D01*
X148293976Y-101621000D01*
X148293976Y-100821000D01*
X148276265Y-100726873D01*
X148240124Y-100670709D01*
X148273572Y-100621756D01*
X148293976Y-100521000D01*
X148293976Y-99721000D01*
X148276265Y-99626873D01*
X148240124Y-99570709D01*
X148273572Y-99521756D01*
X148293976Y-99421000D01*
X148293976Y-98621000D01*
X148276265Y-98526873D01*
X148240124Y-98470709D01*
X148273572Y-98421756D01*
X148293976Y-98321000D01*
X148293976Y-97521000D01*
X148276265Y-97426873D01*
X148220636Y-97340424D01*
X148135756Y-97282428D01*
X148035000Y-97262024D01*
X146535000Y-97262024D01*
X146440873Y-97279735D01*
X146354424Y-97335364D01*
X146296428Y-97420244D01*
X146276024Y-97521000D01*
X146276024Y-98321000D01*
X146293735Y-98415127D01*
X146329876Y-98471291D01*
X146296428Y-98520244D01*
X146276024Y-98621000D01*
X146276024Y-99421000D01*
X146293735Y-99515127D01*
X146329876Y-99571291D01*
X146296428Y-99620244D01*
X146276024Y-99721000D01*
X146276024Y-100521000D01*
X146293735Y-100615127D01*
X146329876Y-100671291D01*
X146296428Y-100720244D01*
X146276024Y-100821000D01*
X146276024Y-101621000D01*
X146293735Y-101715127D01*
X146329876Y-101771291D01*
X146296428Y-101820244D01*
X146276024Y-101921000D01*
X146276024Y-102721000D01*
X146293735Y-102815127D01*
X146329876Y-102871291D01*
X146296428Y-102920244D01*
X146276024Y-103021000D01*
X146276024Y-103821000D01*
X146293735Y-103915127D01*
X146349364Y-104001576D01*
X146434244Y-104059572D01*
X146535000Y-104079976D01*
X147985491Y-104079976D01*
X147992079Y-104095921D01*
X148147786Y-104251900D01*
X148351331Y-104336419D01*
X148571726Y-104336611D01*
X148589832Y-104329130D01*
X148566624Y-104344064D01*
X148508628Y-104428944D01*
X148488224Y-104529700D01*
X148488224Y-104929700D01*
X148505935Y-105023827D01*
X148561564Y-105110276D01*
X148646444Y-105168272D01*
X148747200Y-105188676D01*
X148753425Y-105188676D01*
X148753868Y-105190902D01*
X148822694Y-105293906D01*
X149010894Y-105482106D01*
X149113898Y-105550932D01*
X149136100Y-105555348D01*
X149136100Y-106392850D01*
X149123024Y-106401264D01*
X149065028Y-106486144D01*
X149044624Y-106586900D01*
X149044624Y-106840631D01*
X148853081Y-106761096D01*
X148632686Y-106760904D01*
X148428994Y-106845067D01*
X148293976Y-106979850D01*
X148293976Y-106321000D01*
X148276265Y-106226873D01*
X148240124Y-106170709D01*
X148273572Y-106121756D01*
X148293976Y-106021000D01*
X148293976Y-105221000D01*
X148276265Y-105126873D01*
X148220636Y-105040424D01*
X148135756Y-104982428D01*
X148035000Y-104962024D01*
X146535000Y-104962024D01*
X146440873Y-104979735D01*
X146354424Y-105035364D01*
X146296428Y-105120244D01*
X146276024Y-105221000D01*
X146276024Y-106021000D01*
X146293735Y-106115127D01*
X146329876Y-106171291D01*
X146296428Y-106220244D01*
X146276024Y-106321000D01*
X146276024Y-106403500D01*
X144942200Y-106403500D01*
X144820698Y-106427668D01*
X144717694Y-106496493D01*
X144630896Y-106583291D01*
X144416286Y-106583104D01*
X144212594Y-106667267D01*
X144056615Y-106822974D01*
X143972096Y-107026519D01*
X143971904Y-107246914D01*
X144056067Y-107450606D01*
X144211774Y-107606585D01*
X144415319Y-107691104D01*
X144635714Y-107691296D01*
X144839406Y-107607133D01*
X144995385Y-107451426D01*
X145079904Y-107247881D01*
X145080086Y-107038500D01*
X146276024Y-107038500D01*
X146276024Y-107121000D01*
X146293735Y-107215127D01*
X146329876Y-107271291D01*
X146296428Y-107320244D01*
X146276024Y-107421000D01*
X146276024Y-108030964D01*
X146087253Y-108219735D01*
X146034026Y-108166415D01*
X145830481Y-108081896D01*
X145610086Y-108081704D01*
X145406394Y-108165867D01*
X145250415Y-108321574D01*
X145165896Y-108525119D01*
X145165704Y-108745514D01*
X145249867Y-108949206D01*
X145405574Y-109105185D01*
X145609119Y-109189704D01*
X145829514Y-109189896D01*
X146033206Y-109105733D01*
X146189185Y-108950026D01*
X146193914Y-108938638D01*
X146241702Y-108929132D01*
X146276024Y-108906198D01*
X146276024Y-109321000D01*
X146293735Y-109415127D01*
X146329876Y-109471291D01*
X146296428Y-109520244D01*
X146279153Y-109605548D01*
X146161026Y-109487215D01*
X145957481Y-109402696D01*
X145737086Y-109402504D01*
X145533394Y-109486667D01*
X145377415Y-109642374D01*
X145292896Y-109845919D01*
X145292704Y-110066314D01*
X145376867Y-110270006D01*
X145532574Y-110425985D01*
X145736119Y-110510504D01*
X145956514Y-110510696D01*
X146160206Y-110426533D01*
X146248393Y-110338500D01*
X146276024Y-110338500D01*
X146276024Y-110421000D01*
X146293735Y-110515127D01*
X146329876Y-110571291D01*
X146296428Y-110620244D01*
X146276024Y-110721000D01*
X146276024Y-111521000D01*
X146293735Y-111615127D01*
X146329876Y-111671291D01*
X146296428Y-111720244D01*
X146276024Y-111821000D01*
X146276024Y-112621000D01*
X146293735Y-112715127D01*
X146329876Y-112771291D01*
X146296428Y-112820244D01*
X146276024Y-112921000D01*
X146276024Y-113721000D01*
X146293735Y-113815127D01*
X146329876Y-113871291D01*
X146296428Y-113920244D01*
X146276024Y-114021000D01*
X146276024Y-114821000D01*
X146293735Y-114915127D01*
X146349364Y-115001576D01*
X146434244Y-115059572D01*
X146535000Y-115079976D01*
X148035000Y-115079976D01*
X148129127Y-115062265D01*
X148215576Y-115006636D01*
X148273572Y-114921756D01*
X148293976Y-114821000D01*
X148293976Y-114021000D01*
X148276265Y-113926873D01*
X148240124Y-113870709D01*
X148273572Y-113821756D01*
X148293976Y-113721000D01*
X148293976Y-113268789D01*
X148319494Y-113294307D01*
X148422498Y-113363132D01*
X148430211Y-113364666D01*
X148485364Y-113450376D01*
X148570244Y-113508372D01*
X148625048Y-113519470D01*
X148576873Y-113528535D01*
X148490424Y-113584164D01*
X148432428Y-113669044D01*
X148412024Y-113769800D01*
X148412024Y-114169800D01*
X148429735Y-114263927D01*
X148485364Y-114350376D01*
X148570244Y-114408372D01*
X148671000Y-114428776D01*
X149271000Y-114428776D01*
X149365127Y-114411065D01*
X149451576Y-114355436D01*
X149509572Y-114270556D01*
X149529976Y-114169800D01*
X149529976Y-113802141D01*
X149627306Y-113737106D01*
X149855906Y-113508507D01*
X149924732Y-113405502D01*
X149927876Y-113389694D01*
X149948900Y-113284000D01*
X149948900Y-112565264D01*
X149924732Y-112443762D01*
X149898757Y-112404888D01*
X149855906Y-112340757D01*
X149781523Y-112266374D01*
X149805278Y-112242660D01*
X149817700Y-112245176D01*
X150351100Y-112245176D01*
X150391790Y-112237520D01*
X150415764Y-112274776D01*
X150500644Y-112332772D01*
X150555448Y-112343870D01*
X150507273Y-112352935D01*
X150420824Y-112408564D01*
X150362828Y-112493444D01*
X150342424Y-112594200D01*
X150342424Y-112994200D01*
X150360135Y-113088327D01*
X150415764Y-113174776D01*
X150500644Y-113232772D01*
X150583900Y-113249632D01*
X150583900Y-113249865D01*
X150482815Y-113350774D01*
X150398296Y-113554319D01*
X150398104Y-113774714D01*
X150482267Y-113978406D01*
X150568840Y-114065130D01*
X150568840Y-114194060D01*
X150538268Y-114238804D01*
X150517864Y-114339560D01*
X150517864Y-114839560D01*
X150535575Y-114933687D01*
X150568840Y-114985382D01*
X150568840Y-115207566D01*
X150501864Y-115250664D01*
X150443868Y-115335544D01*
X150423464Y-115436300D01*
X150423464Y-116186300D01*
X150441175Y-116280427D01*
X150496804Y-116366876D01*
X150581684Y-116424872D01*
X150682440Y-116445276D01*
X151045656Y-116445276D01*
X151079913Y-116479533D01*
X150981600Y-116459624D01*
X150381600Y-116459624D01*
X150287473Y-116477335D01*
X150201024Y-116532964D01*
X150162802Y-116588904D01*
X150162236Y-116588024D01*
X150077356Y-116530028D01*
X149976600Y-116509624D01*
X149576600Y-116509624D01*
X149482473Y-116527335D01*
X149396024Y-116582964D01*
X149338028Y-116667844D01*
X149317624Y-116768600D01*
X149317624Y-117368600D01*
X149335335Y-117462727D01*
X149390964Y-117549176D01*
X149475844Y-117607172D01*
X149576600Y-117627576D01*
X149976600Y-117627576D01*
X150070727Y-117609865D01*
X150157176Y-117554236D01*
X150162259Y-117546797D01*
X150195964Y-117599176D01*
X150280844Y-117657172D01*
X150381600Y-117677576D01*
X150981600Y-117677576D01*
X151075727Y-117659865D01*
X151162176Y-117604236D01*
X151220172Y-117519356D01*
X151231270Y-117464552D01*
X151240335Y-117512727D01*
X151295964Y-117599176D01*
X151380844Y-117657172D01*
X151481600Y-117677576D01*
X152081600Y-117677576D01*
X152175727Y-117659865D01*
X152262176Y-117604236D01*
X152320172Y-117519356D01*
X152340576Y-117418600D01*
X152340576Y-116718600D01*
X152325317Y-116637503D01*
X152737644Y-116225176D01*
X153009600Y-116225176D01*
X153009600Y-118552568D01*
X152976269Y-118519179D01*
X152602982Y-118364176D01*
X152198792Y-118363824D01*
X151825234Y-118518175D01*
X151539179Y-118803731D01*
X151436503Y-119051000D01*
X150823373Y-119051000D01*
X150721825Y-118805234D01*
X150436269Y-118519179D01*
X150130812Y-118392342D01*
X150159904Y-118322281D01*
X150160096Y-118101886D01*
X150075933Y-117898194D01*
X149920226Y-117742215D01*
X149716681Y-117657696D01*
X149496286Y-117657504D01*
X149385207Y-117703400D01*
X149340756Y-117673028D01*
X149240000Y-117652624D01*
X149030036Y-117652624D01*
X148856506Y-117479094D01*
X148753502Y-117410268D01*
X148632000Y-117386100D01*
X147335000Y-117386100D01*
X147233655Y-117406258D01*
X147213497Y-117410268D01*
X147110493Y-117479094D01*
X146869553Y-117720035D01*
X146800756Y-117673028D01*
X146700000Y-117652624D01*
X146300000Y-117652624D01*
X146205873Y-117670335D01*
X146119424Y-117725964D01*
X146061428Y-117810844D01*
X146050330Y-117865648D01*
X146041265Y-117817473D01*
X145985636Y-117731024D01*
X145900756Y-117673028D01*
X145800000Y-117652624D01*
X145400000Y-117652624D01*
X145305873Y-117670335D01*
X145219424Y-117725964D01*
X145161428Y-117810844D01*
X145141024Y-117911600D01*
X145141024Y-117925267D01*
X145048493Y-117987094D01*
X144718294Y-118317294D01*
X144688088Y-118362500D01*
X144686670Y-118363918D01*
X144578792Y-118363824D01*
X144205234Y-118518175D01*
X143919179Y-118803731D01*
X143816503Y-119051000D01*
X143203373Y-119051000D01*
X143101825Y-118805234D01*
X142816269Y-118519179D01*
X142442982Y-118364176D01*
X142038792Y-118363824D01*
X141757375Y-118480103D01*
X142374606Y-117862872D01*
X142443432Y-117759868D01*
X142444154Y-117756236D01*
X142467600Y-117638366D01*
X142467600Y-117479976D01*
X142935000Y-117479976D01*
X143029127Y-117462265D01*
X143115576Y-117406636D01*
X143173572Y-117321756D01*
X143193976Y-117221000D01*
X143193976Y-115721000D01*
X144076024Y-115721000D01*
X144076024Y-117221000D01*
X144093735Y-117315127D01*
X144149364Y-117401576D01*
X144234244Y-117459572D01*
X144335000Y-117479976D01*
X145135000Y-117479976D01*
X145229127Y-117462265D01*
X145315576Y-117406636D01*
X145373572Y-117321756D01*
X145393976Y-117221000D01*
X145393976Y-115721000D01*
X145376265Y-115626873D01*
X145320636Y-115540424D01*
X145235756Y-115482428D01*
X145135000Y-115462024D01*
X144335000Y-115462024D01*
X144240873Y-115479735D01*
X144154424Y-115535364D01*
X144096428Y-115620244D01*
X144076024Y-115721000D01*
X143193976Y-115721000D01*
X143176265Y-115626873D01*
X143120636Y-115540424D01*
X143035756Y-115482428D01*
X142935000Y-115462024D01*
X142135000Y-115462024D01*
X142040873Y-115479735D01*
X141984709Y-115515876D01*
X141935756Y-115482428D01*
X141835000Y-115462024D01*
X141035000Y-115462024D01*
X140940873Y-115479735D01*
X140884709Y-115515876D01*
X140835756Y-115482428D01*
X140735000Y-115462024D01*
X139935000Y-115462024D01*
X139840873Y-115479735D01*
X139784709Y-115515876D01*
X139735756Y-115482428D01*
X139635000Y-115462024D01*
X138835000Y-115462024D01*
X138740873Y-115479735D01*
X138684709Y-115515876D01*
X138635756Y-115482428D01*
X138535000Y-115462024D01*
X137735000Y-115462024D01*
X137640873Y-115479735D01*
X137584709Y-115515876D01*
X137535756Y-115482428D01*
X137435000Y-115462024D01*
X136635000Y-115462024D01*
X136548243Y-115478348D01*
X136574515Y-115415079D01*
X136574707Y-115194684D01*
X136490544Y-114990992D01*
X136334837Y-114835013D01*
X136131292Y-114750494D01*
X135910897Y-114750302D01*
X135707205Y-114834465D01*
X135551226Y-114990172D01*
X135466707Y-115193717D01*
X135466515Y-115414112D01*
X135489824Y-115470524D01*
X135440873Y-115479735D01*
X135354424Y-115535364D01*
X135296428Y-115620244D01*
X135276024Y-115721000D01*
X135276024Y-117221000D01*
X135293735Y-117315127D01*
X135349364Y-117401576D01*
X135434244Y-117459572D01*
X135535000Y-117479976D01*
X136335000Y-117479976D01*
X136429127Y-117462265D01*
X136485291Y-117426124D01*
X136534244Y-117459572D01*
X136635000Y-117479976D01*
X137032010Y-117479976D01*
X136919215Y-117592574D01*
X136834696Y-117796119D01*
X136834504Y-118016514D01*
X136918667Y-118220206D01*
X137062124Y-118363914D01*
X136958792Y-118363824D01*
X136839661Y-118413048D01*
X136722776Y-118296164D01*
X136722776Y-117886200D01*
X136705065Y-117792073D01*
X136649436Y-117705624D01*
X136564556Y-117647628D01*
X136463800Y-117627224D01*
X136063800Y-117627224D01*
X135969673Y-117644935D01*
X135883224Y-117700564D01*
X135825228Y-117785444D01*
X135814130Y-117840248D01*
X135805065Y-117792073D01*
X135749436Y-117705624D01*
X135664556Y-117647628D01*
X135563800Y-117627224D01*
X135163800Y-117627224D01*
X135147183Y-117630351D01*
X135089933Y-117491794D01*
X134934226Y-117335815D01*
X134730681Y-117251296D01*
X134510286Y-117251104D01*
X134306594Y-117335267D01*
X134224336Y-117417381D01*
X134150133Y-117237794D01*
X133994426Y-117081815D01*
X133790881Y-116997296D01*
X133570486Y-116997104D01*
X133366794Y-117081267D01*
X133210815Y-117236974D01*
X133126296Y-117440519D01*
X133126104Y-117660914D01*
X133178004Y-117786522D01*
X133158636Y-117756424D01*
X133073756Y-117698428D01*
X132973000Y-117678024D01*
X132573000Y-117678024D01*
X132478873Y-117695735D01*
X132409000Y-117740698D01*
X132409000Y-113838849D01*
X132449364Y-113901576D01*
X132534244Y-113959572D01*
X132635000Y-113979976D01*
X134135000Y-113979976D01*
X134229127Y-113962265D01*
X134315576Y-113906636D01*
X134332711Y-113881558D01*
X134409598Y-113932932D01*
X134531100Y-113957100D01*
X135589254Y-113957100D01*
X135740874Y-114108985D01*
X135944419Y-114193504D01*
X136164814Y-114193696D01*
X136368506Y-114109533D01*
X136524485Y-113953826D01*
X136609004Y-113750281D01*
X136609196Y-113529886D01*
X136525033Y-113326194D01*
X136369326Y-113170215D01*
X136165781Y-113085696D01*
X135945386Y-113085504D01*
X135741694Y-113169667D01*
X135588995Y-113322100D01*
X134662613Y-113322100D01*
X134661999Y-113321487D01*
X134661999Y-112830499D01*
X134637831Y-112708997D01*
X134620078Y-112682428D01*
X134569006Y-112605993D01*
X134393976Y-112430963D01*
X134393976Y-112290071D01*
X134456008Y-112302410D01*
X135524952Y-112302410D01*
X135676572Y-112454295D01*
X135880117Y-112538814D01*
X136100512Y-112539006D01*
X136304204Y-112454843D01*
X136460183Y-112299136D01*
X136544702Y-112095591D01*
X136544894Y-111875196D01*
X136460731Y-111671504D01*
X136305024Y-111515525D01*
X136101479Y-111431006D01*
X135881084Y-111430814D01*
X135677392Y-111514977D01*
X135524693Y-111667410D01*
X134649450Y-111667410D01*
X134637831Y-111608997D01*
X134631868Y-111600073D01*
X134569006Y-111505993D01*
X134393976Y-111330963D01*
X134393976Y-110721000D01*
X134376265Y-110626873D01*
X134340124Y-110570709D01*
X134340180Y-110570627D01*
X134432774Y-110663383D01*
X134636319Y-110747902D01*
X134856714Y-110748094D01*
X135060406Y-110663931D01*
X135216385Y-110508224D01*
X135300904Y-110304679D01*
X135301096Y-110084284D01*
X135216933Y-109880592D01*
X135061226Y-109724613D01*
X134864625Y-109642977D01*
X134883475Y-109635189D01*
X135039454Y-109479482D01*
X135123973Y-109275937D01*
X135124165Y-109055542D01*
X135040002Y-108851850D01*
X134884295Y-108695871D01*
X134680750Y-108611352D01*
X134460355Y-108611160D01*
X134429148Y-108624054D01*
X134393976Y-108617058D01*
X134393976Y-108521000D01*
X134376265Y-108426873D01*
X134320636Y-108340424D01*
X134235756Y-108282428D01*
X134135000Y-108262024D01*
X132635000Y-108262024D01*
X132540873Y-108279735D01*
X132454424Y-108335364D01*
X132409000Y-108401844D01*
X132409000Y-107238849D01*
X132449364Y-107301576D01*
X132534244Y-107359572D01*
X132635000Y-107379976D01*
X134135000Y-107379976D01*
X134229127Y-107362265D01*
X134315576Y-107306636D01*
X134373572Y-107221756D01*
X134393976Y-107121000D01*
X134393976Y-107118935D01*
X134433020Y-107111169D01*
X134483919Y-107132304D01*
X134704314Y-107132496D01*
X134908006Y-107048333D01*
X135063985Y-106892626D01*
X135148504Y-106689081D01*
X135148696Y-106468686D01*
X135089364Y-106325090D01*
X135144506Y-106302306D01*
X135300485Y-106146599D01*
X135385004Y-105943054D01*
X135385196Y-105722659D01*
X135301033Y-105518967D01*
X135145326Y-105362988D01*
X134941781Y-105278469D01*
X134721386Y-105278277D01*
X134647143Y-105308953D01*
X134619727Y-105303500D01*
X134393976Y-105303500D01*
X134393976Y-105221000D01*
X134376265Y-105126873D01*
X134340124Y-105070709D01*
X134373572Y-105021756D01*
X134393976Y-104921000D01*
X134393976Y-104121000D01*
X134376265Y-104026873D01*
X134320636Y-103940424D01*
X134235756Y-103882428D01*
X134135000Y-103862024D01*
X132635000Y-103862024D01*
X132540873Y-103879735D01*
X132454424Y-103935364D01*
X132409000Y-104001844D01*
X132409000Y-102838849D01*
X132449364Y-102901576D01*
X132534244Y-102959572D01*
X132635000Y-102979976D01*
X134135000Y-102979976D01*
X134229127Y-102962265D01*
X134315576Y-102906636D01*
X134373572Y-102821756D01*
X134374426Y-102817541D01*
X134378667Y-102827806D01*
X134534374Y-102983785D01*
X134737919Y-103068304D01*
X134958314Y-103068496D01*
X135162006Y-102984333D01*
X135317985Y-102828626D01*
X135402504Y-102625081D01*
X135402696Y-102404686D01*
X135318533Y-102200994D01*
X135162826Y-102045015D01*
X134959281Y-101960496D01*
X134738886Y-101960304D01*
X134634343Y-102003500D01*
X134393976Y-102003500D01*
X134393976Y-101921000D01*
X134376265Y-101826873D01*
X134340124Y-101770709D01*
X134373572Y-101721756D01*
X134393976Y-101621000D01*
X134393976Y-101011036D01*
X134476310Y-100928702D01*
X134510930Y-100963383D01*
X134714475Y-101047902D01*
X134934870Y-101048094D01*
X135138562Y-100963931D01*
X135294541Y-100808224D01*
X135379060Y-100604679D01*
X135379252Y-100384284D01*
X135295089Y-100180592D01*
X135284942Y-100170427D01*
X135370343Y-100085175D01*
X135454862Y-99881630D01*
X135455054Y-99661235D01*
X135370891Y-99457543D01*
X135278424Y-99364915D01*
X135294541Y-99348826D01*
X135379060Y-99145281D01*
X135379252Y-98924886D01*
X135295089Y-98721194D01*
X135139382Y-98565215D01*
X134935837Y-98480696D01*
X134715442Y-98480504D01*
X134511750Y-98564667D01*
X134393976Y-98682236D01*
X134393976Y-98621000D01*
X134376265Y-98526873D01*
X134320636Y-98440424D01*
X134235756Y-98382428D01*
X134135000Y-98362024D01*
X132635000Y-98362024D01*
X132540873Y-98379735D01*
X132454424Y-98435364D01*
X132409000Y-98501844D01*
X132409000Y-97338849D01*
X132449364Y-97401576D01*
X132534244Y-97459572D01*
X132635000Y-97479976D01*
X134135000Y-97479976D01*
X134229127Y-97462265D01*
X134315576Y-97406636D01*
X134373572Y-97321756D01*
X134386888Y-97256001D01*
X135706185Y-97256001D01*
X135780513Y-97330329D01*
X135780404Y-97455214D01*
X135864567Y-97658906D01*
X136020274Y-97814885D01*
X136223819Y-97899404D01*
X136444214Y-97899596D01*
X136647906Y-97815433D01*
X136803885Y-97659726D01*
X136888404Y-97456181D01*
X136888407Y-97452620D01*
X141821078Y-97452620D01*
X141928030Y-97711463D01*
X142125895Y-97909674D01*
X142384551Y-98017077D01*
X142664620Y-98017322D01*
X142923463Y-97910370D01*
X143121674Y-97712505D01*
X143229077Y-97453849D01*
X143229322Y-97173780D01*
X143122370Y-96914937D01*
X142924505Y-96716726D01*
X142665849Y-96609323D01*
X142385780Y-96609078D01*
X142126937Y-96716030D01*
X141928726Y-96913895D01*
X141821323Y-97172551D01*
X141821078Y-97452620D01*
X136888407Y-97452620D01*
X136888596Y-97235786D01*
X136804433Y-97032094D01*
X136648726Y-96876115D01*
X136445181Y-96791596D01*
X136319302Y-96791486D01*
X136133409Y-96605593D01*
X136009804Y-96523003D01*
X135864001Y-96494001D01*
X134393976Y-96494001D01*
X134393976Y-96421000D01*
X134376265Y-96326873D01*
X134320636Y-96240424D01*
X134235756Y-96182428D01*
X134135000Y-96162024D01*
X132635000Y-96162024D01*
X132540873Y-96179735D01*
X132454424Y-96235364D01*
X132409000Y-96301844D01*
X132409000Y-95138849D01*
X132449364Y-95201576D01*
X132534244Y-95259572D01*
X132635000Y-95279976D01*
X134135000Y-95279976D01*
X134229127Y-95262265D01*
X134315576Y-95206636D01*
X134373572Y-95121756D01*
X134393976Y-95021000D01*
X134393976Y-94221000D01*
X134376265Y-94126873D01*
X134320636Y-94040424D01*
X134235756Y-93982428D01*
X134135000Y-93962024D01*
X132782134Y-93962024D01*
X132761999Y-93941889D01*
X132761999Y-92426213D01*
X133367212Y-91821000D01*
X136376024Y-91821000D01*
X136376024Y-93321000D01*
X136393735Y-93415127D01*
X136449364Y-93501576D01*
X136534244Y-93559572D01*
X136635000Y-93579976D01*
X137435000Y-93579976D01*
X137529127Y-93562265D01*
X137615576Y-93506636D01*
X137673572Y-93421756D01*
X137693976Y-93321000D01*
X137693976Y-91821000D01*
X137676265Y-91726873D01*
X137620636Y-91640424D01*
X137535756Y-91582428D01*
X137435000Y-91562024D01*
X136635000Y-91562024D01*
X136540873Y-91579735D01*
X136454424Y-91635364D01*
X136396428Y-91720244D01*
X136376024Y-91821000D01*
X133367212Y-91821000D01*
X133592404Y-91595809D01*
X133635392Y-91624532D01*
X133676999Y-91652333D01*
X133798501Y-91676501D01*
X134795499Y-91676501D01*
X134917001Y-91652333D01*
X135020005Y-91583507D01*
X135176036Y-91427476D01*
X135386000Y-91427476D01*
X135480127Y-91409765D01*
X135566576Y-91354136D01*
X135624572Y-91269256D01*
X135635670Y-91214452D01*
X135644735Y-91262627D01*
X135700364Y-91349076D01*
X135785244Y-91407072D01*
X135886000Y-91427476D01*
X136286000Y-91427476D01*
X136380127Y-91409765D01*
X136466576Y-91354136D01*
X136524572Y-91269256D01*
X136544976Y-91168500D01*
X136544976Y-90568500D01*
X136527265Y-90474373D01*
X136471636Y-90387924D01*
X136386756Y-90329928D01*
X136381078Y-90328778D01*
X136379332Y-90319998D01*
X136373274Y-90310932D01*
X136310507Y-90216994D01*
X136267606Y-90174094D01*
X136164602Y-90105268D01*
X136043100Y-90081100D01*
X135877300Y-90081100D01*
X135877300Y-89772300D01*
X135862283Y-89696800D01*
X142903424Y-89696800D01*
X142903424Y-90746800D01*
X142921135Y-90840927D01*
X142976764Y-90927376D01*
X143061644Y-90985372D01*
X143154400Y-91004156D01*
X143154400Y-91577190D01*
X143140873Y-91579735D01*
X143054424Y-91635364D01*
X142996428Y-91720244D01*
X142976024Y-91821000D01*
X142976024Y-93321000D01*
X142993735Y-93415127D01*
X143049364Y-93501576D01*
X143134244Y-93559572D01*
X143235000Y-93579976D01*
X144035000Y-93579976D01*
X144129127Y-93562265D01*
X144215576Y-93506636D01*
X144273572Y-93421756D01*
X144293976Y-93321000D01*
X144293976Y-92647000D01*
X153097524Y-92647000D01*
X153097524Y-93747000D01*
X153115235Y-93841127D01*
X153170864Y-93927576D01*
X153255744Y-93985572D01*
X153356500Y-94005976D01*
X153856500Y-94005976D01*
X153950627Y-93988265D01*
X154037076Y-93932636D01*
X154095072Y-93847756D01*
X154115476Y-93747000D01*
X154115476Y-92647000D01*
X154097765Y-92552873D01*
X154042136Y-92466424D01*
X153957256Y-92408428D01*
X153856500Y-92388024D01*
X153356500Y-92388024D01*
X153262373Y-92405735D01*
X153175924Y-92461364D01*
X153117928Y-92546244D01*
X153097524Y-92647000D01*
X144293976Y-92647000D01*
X144293976Y-91821000D01*
X144276265Y-91726873D01*
X144220636Y-91640424D01*
X144170400Y-91606099D01*
X144170400Y-91004271D01*
X144256527Y-90988065D01*
X144342976Y-90932436D01*
X144400972Y-90847556D01*
X144421376Y-90746800D01*
X144421376Y-89696800D01*
X144403665Y-89602673D01*
X144348036Y-89516224D01*
X144263156Y-89458228D01*
X144162400Y-89437824D01*
X143162400Y-89437824D01*
X143068273Y-89455535D01*
X142981824Y-89511164D01*
X142923828Y-89596044D01*
X142903424Y-89696800D01*
X135862283Y-89696800D01*
X135853132Y-89650798D01*
X135839902Y-89630998D01*
X135784306Y-89547793D01*
X135737506Y-89500994D01*
X135716382Y-89486879D01*
X135741752Y-89461553D01*
X135826271Y-89258008D01*
X135826463Y-89037613D01*
X135742300Y-88833921D01*
X135591266Y-88682623D01*
X135619584Y-88701972D01*
X135720340Y-88722376D01*
X135784007Y-88722376D01*
X135845834Y-88814906D01*
X135948142Y-88917215D01*
X135948044Y-89030032D01*
X136032207Y-89233724D01*
X136187914Y-89389703D01*
X136391459Y-89474222D01*
X136611854Y-89474414D01*
X136815546Y-89390251D01*
X136971525Y-89234544D01*
X137056044Y-89030999D01*
X137056053Y-89020737D01*
X137058120Y-89021156D01*
X137658120Y-89021156D01*
X137752247Y-89003445D01*
X137838696Y-88947816D01*
X137896692Y-88862936D01*
X137917096Y-88762180D01*
X137917096Y-88362180D01*
X137899385Y-88268053D01*
X137843756Y-88181604D01*
X137758876Y-88123608D01*
X137704072Y-88112510D01*
X137752247Y-88103445D01*
X137838696Y-88047816D01*
X137896692Y-87962936D01*
X137917096Y-87862180D01*
X137917096Y-87462180D01*
X137899385Y-87368053D01*
X137843756Y-87281604D01*
X137758876Y-87223608D01*
X137658120Y-87203204D01*
X137588327Y-87203204D01*
X137582627Y-87194674D01*
X137536906Y-87148954D01*
X137433902Y-87080128D01*
X137430745Y-87079500D01*
X137312400Y-87055960D01*
X136988912Y-87055960D01*
X136771846Y-86838894D01*
X136679316Y-86777067D01*
X136679316Y-86763400D01*
X136665317Y-86689000D01*
X149811261Y-86689000D01*
X149780307Y-86763545D01*
G36*
X139834244Y-117459572D02*
X139935000Y-117479976D01*
X140528464Y-117479976D01*
X140500615Y-117507776D01*
X140416096Y-117711321D01*
X140415904Y-117931716D01*
X140500067Y-118135408D01*
X140588124Y-118223619D01*
X140500615Y-118310976D01*
X140416096Y-118514521D01*
X140415970Y-118659124D01*
X140276269Y-118519179D01*
X140017500Y-118411728D01*
X140017500Y-118302370D01*
X139993332Y-118180868D01*
X139992755Y-118180005D01*
X139924506Y-118077863D01*
X139833736Y-117987094D01*
X139730732Y-117918268D01*
X139609230Y-117894100D01*
X139368283Y-117894100D01*
X139353865Y-117817473D01*
X139298236Y-117731024D01*
X139213356Y-117673028D01*
X139112600Y-117652624D01*
X138712600Y-117652624D01*
X138618473Y-117670335D01*
X138532024Y-117725964D01*
X138474028Y-117810844D01*
X138462930Y-117865648D01*
X138453865Y-117817473D01*
X138398236Y-117731024D01*
X138313356Y-117673028D01*
X138212600Y-117652624D01*
X137883006Y-117652624D01*
X137858533Y-117593394D01*
X137745313Y-117479976D01*
X138535000Y-117479976D01*
X138629127Y-117462265D01*
X138685291Y-117426124D01*
X138734244Y-117459572D01*
X138835000Y-117479976D01*
X139635000Y-117479976D01*
X139729127Y-117462265D01*
X139785291Y-117426124D01*
X139834244Y-117459572D01*
X139834244Y-117459572D01*
G37*
X139834244Y-117459572D02*
X139935000Y-117479976D01*
X140528464Y-117479976D01*
X140500615Y-117507776D01*
X140416096Y-117711321D01*
X140415904Y-117931716D01*
X140500067Y-118135408D01*
X140588124Y-118223619D01*
X140500615Y-118310976D01*
X140416096Y-118514521D01*
X140415970Y-118659124D01*
X140276269Y-118519179D01*
X140017500Y-118411728D01*
X140017500Y-118302370D01*
X139993332Y-118180868D01*
X139992755Y-118180005D01*
X139924506Y-118077863D01*
X139833736Y-117987094D01*
X139730732Y-117918268D01*
X139609230Y-117894100D01*
X139368283Y-117894100D01*
X139353865Y-117817473D01*
X139298236Y-117731024D01*
X139213356Y-117673028D01*
X139112600Y-117652624D01*
X138712600Y-117652624D01*
X138618473Y-117670335D01*
X138532024Y-117725964D01*
X138474028Y-117810844D01*
X138462930Y-117865648D01*
X138453865Y-117817473D01*
X138398236Y-117731024D01*
X138313356Y-117673028D01*
X138212600Y-117652624D01*
X137883006Y-117652624D01*
X137858533Y-117593394D01*
X137745313Y-117479976D01*
X138535000Y-117479976D01*
X138629127Y-117462265D01*
X138685291Y-117426124D01*
X138734244Y-117459572D01*
X138835000Y-117479976D01*
X139635000Y-117479976D01*
X139729127Y-117462265D01*
X139785291Y-117426124D01*
X139834244Y-117459572D01*
G36*
X155566335Y-106879727D02*
X155621964Y-106966176D01*
X155706844Y-107024172D01*
X155807600Y-107044576D01*
X156307600Y-107044576D01*
X156401727Y-107026865D01*
X156488176Y-106971236D01*
X156496182Y-106959519D01*
X156618175Y-107254766D01*
X156903731Y-107540821D01*
X157151000Y-107643497D01*
X157151000Y-108256627D01*
X156905234Y-108358175D01*
X156619179Y-108643731D01*
X156464176Y-109017018D01*
X156463824Y-109421208D01*
X156618175Y-109794766D01*
X156903731Y-110080821D01*
X157151000Y-110183497D01*
X157151000Y-110796627D01*
X156905234Y-110898175D01*
X156619179Y-111183731D01*
X156464176Y-111557018D01*
X156463824Y-111961208D01*
X156618175Y-112334766D01*
X156903731Y-112620821D01*
X157151000Y-112723497D01*
X157151000Y-113336627D01*
X156905234Y-113438175D01*
X156619179Y-113723731D01*
X156464176Y-114097018D01*
X156463824Y-114501208D01*
X156613027Y-114862306D01*
X153136617Y-114866420D01*
X153157104Y-114817081D01*
X153157296Y-114596686D01*
X153073133Y-114392994D01*
X153005433Y-114325176D01*
X153133200Y-114325176D01*
X153227327Y-114307465D01*
X153313776Y-114251836D01*
X153371772Y-114166956D01*
X153392176Y-114066200D01*
X153392176Y-113676326D01*
X153681556Y-113965706D01*
X153709001Y-113984044D01*
X153784561Y-114034532D01*
X153906063Y-114058700D01*
X154014224Y-114058700D01*
X154014224Y-114066200D01*
X154031935Y-114160327D01*
X154087564Y-114246776D01*
X154172444Y-114304772D01*
X154273200Y-114325176D01*
X155333200Y-114325176D01*
X155427327Y-114307465D01*
X155513776Y-114251836D01*
X155571772Y-114166956D01*
X155592176Y-114066200D01*
X155592176Y-113416200D01*
X155574465Y-113322073D01*
X155518836Y-113235624D01*
X155433956Y-113177628D01*
X155333200Y-113157224D01*
X154273200Y-113157224D01*
X154179073Y-113174935D01*
X154092624Y-113230564D01*
X154034628Y-113315444D01*
X154016894Y-113403018D01*
X152702159Y-112088284D01*
X152702346Y-111873673D01*
X152618183Y-111669981D01*
X152462476Y-111514002D01*
X152258931Y-111429483D01*
X152038536Y-111429291D01*
X151834844Y-111513454D01*
X151678865Y-111669161D01*
X151594346Y-111872706D01*
X151594154Y-112093101D01*
X151678317Y-112296793D01*
X151834024Y-112452772D01*
X152037569Y-112537291D01*
X152253330Y-112537479D01*
X152873075Y-113157224D01*
X152073200Y-113157224D01*
X151979073Y-113174935D01*
X151892624Y-113230564D01*
X151834628Y-113315444D01*
X151814224Y-113416200D01*
X151814224Y-114066200D01*
X151831935Y-114160327D01*
X151887564Y-114246776D01*
X151972444Y-114304772D01*
X152073200Y-114325176D01*
X152200930Y-114325176D01*
X152133815Y-114392174D01*
X152049296Y-114595719D01*
X152049104Y-114816114D01*
X152095200Y-114927676D01*
X152095200Y-115057224D01*
X152073200Y-115057224D01*
X151979073Y-115074935D01*
X151892624Y-115130564D01*
X151834628Y-115215444D01*
X151814224Y-115316200D01*
X151814224Y-115711756D01*
X151781600Y-115744380D01*
X151741416Y-115704196D01*
X151741416Y-115436300D01*
X151723705Y-115342173D01*
X151668076Y-115255724D01*
X151584840Y-115198851D01*
X151584840Y-114985060D01*
X151615412Y-114940316D01*
X151635816Y-114839560D01*
X151635816Y-114339560D01*
X151618105Y-114245433D01*
X151584840Y-114193738D01*
X151584840Y-113789640D01*
X151546171Y-113595237D01*
X151532316Y-113574501D01*
X151484938Y-113503594D01*
X151422133Y-113351594D01*
X151302030Y-113231281D01*
X151381976Y-113179836D01*
X151439972Y-113094956D01*
X151460376Y-112994200D01*
X151460376Y-112594200D01*
X151442665Y-112500073D01*
X151387036Y-112413624D01*
X151302156Y-112355628D01*
X151247352Y-112344530D01*
X151295527Y-112335465D01*
X151381976Y-112279836D01*
X151439972Y-112194956D01*
X151460376Y-112094200D01*
X151460376Y-111694200D01*
X151446013Y-111617864D01*
X151523185Y-111540826D01*
X151607704Y-111337281D01*
X151607896Y-111116886D01*
X151523733Y-110913194D01*
X151368026Y-110757215D01*
X151355742Y-110752114D01*
X152303104Y-110752114D01*
X152387267Y-110955806D01*
X152542974Y-111111785D01*
X152746519Y-111196304D01*
X152924834Y-111196459D01*
X152883028Y-111257644D01*
X152862624Y-111358400D01*
X152862624Y-111958400D01*
X152880335Y-112052527D01*
X152935964Y-112138976D01*
X153020844Y-112196972D01*
X153121600Y-112217376D01*
X153521600Y-112217376D01*
X153615727Y-112199665D01*
X153702176Y-112144036D01*
X153760172Y-112059156D01*
X153771270Y-112004352D01*
X153780335Y-112052527D01*
X153835964Y-112138976D01*
X153920844Y-112196972D01*
X154021600Y-112217376D01*
X154421600Y-112217376D01*
X154515727Y-112199665D01*
X154602176Y-112144036D01*
X154660172Y-112059156D01*
X154677032Y-111975900D01*
X154677354Y-111975900D01*
X154828974Y-112127785D01*
X155032519Y-112212304D01*
X155252914Y-112212496D01*
X155456606Y-112128333D01*
X155612585Y-111972626D01*
X155697104Y-111769081D01*
X155697296Y-111548686D01*
X155613133Y-111344994D01*
X155457426Y-111189015D01*
X155253881Y-111104496D01*
X155033486Y-111104304D01*
X154829794Y-111188467D01*
X154677253Y-111340742D01*
X154662865Y-111264273D01*
X154607236Y-111177824D01*
X154522356Y-111119828D01*
X154421600Y-111099424D01*
X154021600Y-111099424D01*
X153927473Y-111117135D01*
X153841024Y-111172764D01*
X153783028Y-111257644D01*
X153771930Y-111312448D01*
X153762865Y-111264273D01*
X153707236Y-111177824D01*
X153639100Y-111131269D01*
X153639100Y-111106800D01*
X153614932Y-110985298D01*
X153595226Y-110955806D01*
X153546107Y-110882294D01*
X153411109Y-110747296D01*
X153411296Y-110532686D01*
X153327133Y-110328994D01*
X153171426Y-110173015D01*
X152967881Y-110088496D01*
X152747486Y-110088304D01*
X152543794Y-110172467D01*
X152387815Y-110328174D01*
X152303296Y-110531719D01*
X152303104Y-110752114D01*
X151355742Y-110752114D01*
X151164481Y-110672696D01*
X150944086Y-110672504D01*
X150740394Y-110756667D01*
X150584415Y-110912374D01*
X150499896Y-111115919D01*
X150499704Y-111336314D01*
X150544960Y-111445844D01*
X150507273Y-111452935D01*
X150482734Y-111468726D01*
X150451856Y-111447628D01*
X150351100Y-111427224D01*
X149817700Y-111427224D01*
X149723573Y-111444935D01*
X149720727Y-111446767D01*
X149691626Y-111417615D01*
X149488081Y-111333096D01*
X149450076Y-111333063D01*
X149450076Y-111186200D01*
X149432365Y-111092073D01*
X149376736Y-111005624D01*
X149291856Y-110947628D01*
X149242605Y-110937654D01*
X149314827Y-110924065D01*
X149401276Y-110868436D01*
X149424044Y-110835114D01*
X149469202Y-110826132D01*
X149572206Y-110757306D01*
X149678106Y-110651407D01*
X149746932Y-110548402D01*
X149752403Y-110520898D01*
X149771100Y-110426900D01*
X149771100Y-110426345D01*
X149847300Y-110441776D01*
X150380700Y-110441776D01*
X150474827Y-110424065D01*
X150561276Y-110368436D01*
X150619272Y-110283556D01*
X150639676Y-110182800D01*
X150639676Y-109882800D01*
X150621965Y-109788673D01*
X150566336Y-109702224D01*
X150481456Y-109644228D01*
X150431500Y-109634111D01*
X150431500Y-109417776D01*
X151023600Y-109417776D01*
X151117727Y-109400065D01*
X151204176Y-109344436D01*
X151262172Y-109259556D01*
X151282576Y-109158800D01*
X151282576Y-108948837D01*
X151467325Y-108764088D01*
X151536150Y-108661084D01*
X151560318Y-108539582D01*
X151560318Y-107459002D01*
X151720333Y-107459141D01*
X151924025Y-107374978D01*
X152080004Y-107219271D01*
X152082584Y-107213057D01*
X152156385Y-107198377D01*
X152225617Y-107152117D01*
X152148225Y-107229374D01*
X152063706Y-107432919D01*
X152063514Y-107653314D01*
X152147677Y-107857006D01*
X152303384Y-108012985D01*
X152506929Y-108097504D01*
X152727324Y-108097696D01*
X152931016Y-108013533D01*
X153020104Y-107924600D01*
X153041874Y-107924600D01*
X153187676Y-107895598D01*
X153311282Y-107813008D01*
X153393872Y-107689402D01*
X153419452Y-107560804D01*
X154113656Y-106866600D01*
X155563865Y-106866600D01*
X155566335Y-106879727D01*
X155566335Y-106879727D01*
G37*
X155566335Y-106879727D02*
X155621964Y-106966176D01*
X155706844Y-107024172D01*
X155807600Y-107044576D01*
X156307600Y-107044576D01*
X156401727Y-107026865D01*
X156488176Y-106971236D01*
X156496182Y-106959519D01*
X156618175Y-107254766D01*
X156903731Y-107540821D01*
X157151000Y-107643497D01*
X157151000Y-108256627D01*
X156905234Y-108358175D01*
X156619179Y-108643731D01*
X156464176Y-109017018D01*
X156463824Y-109421208D01*
X156618175Y-109794766D01*
X156903731Y-110080821D01*
X157151000Y-110183497D01*
X157151000Y-110796627D01*
X156905234Y-110898175D01*
X156619179Y-111183731D01*
X156464176Y-111557018D01*
X156463824Y-111961208D01*
X156618175Y-112334766D01*
X156903731Y-112620821D01*
X157151000Y-112723497D01*
X157151000Y-113336627D01*
X156905234Y-113438175D01*
X156619179Y-113723731D01*
X156464176Y-114097018D01*
X156463824Y-114501208D01*
X156613027Y-114862306D01*
X153136617Y-114866420D01*
X153157104Y-114817081D01*
X153157296Y-114596686D01*
X153073133Y-114392994D01*
X153005433Y-114325176D01*
X153133200Y-114325176D01*
X153227327Y-114307465D01*
X153313776Y-114251836D01*
X153371772Y-114166956D01*
X153392176Y-114066200D01*
X153392176Y-113676326D01*
X153681556Y-113965706D01*
X153709001Y-113984044D01*
X153784561Y-114034532D01*
X153906063Y-114058700D01*
X154014224Y-114058700D01*
X154014224Y-114066200D01*
X154031935Y-114160327D01*
X154087564Y-114246776D01*
X154172444Y-114304772D01*
X154273200Y-114325176D01*
X155333200Y-114325176D01*
X155427327Y-114307465D01*
X155513776Y-114251836D01*
X155571772Y-114166956D01*
X155592176Y-114066200D01*
X155592176Y-113416200D01*
X155574465Y-113322073D01*
X155518836Y-113235624D01*
X155433956Y-113177628D01*
X155333200Y-113157224D01*
X154273200Y-113157224D01*
X154179073Y-113174935D01*
X154092624Y-113230564D01*
X154034628Y-113315444D01*
X154016894Y-113403018D01*
X152702159Y-112088284D01*
X152702346Y-111873673D01*
X152618183Y-111669981D01*
X152462476Y-111514002D01*
X152258931Y-111429483D01*
X152038536Y-111429291D01*
X151834844Y-111513454D01*
X151678865Y-111669161D01*
X151594346Y-111872706D01*
X151594154Y-112093101D01*
X151678317Y-112296793D01*
X151834024Y-112452772D01*
X152037569Y-112537291D01*
X152253330Y-112537479D01*
X152873075Y-113157224D01*
X152073200Y-113157224D01*
X151979073Y-113174935D01*
X151892624Y-113230564D01*
X151834628Y-113315444D01*
X151814224Y-113416200D01*
X151814224Y-114066200D01*
X151831935Y-114160327D01*
X151887564Y-114246776D01*
X151972444Y-114304772D01*
X152073200Y-114325176D01*
X152200930Y-114325176D01*
X152133815Y-114392174D01*
X152049296Y-114595719D01*
X152049104Y-114816114D01*
X152095200Y-114927676D01*
X152095200Y-115057224D01*
X152073200Y-115057224D01*
X151979073Y-115074935D01*
X151892624Y-115130564D01*
X151834628Y-115215444D01*
X151814224Y-115316200D01*
X151814224Y-115711756D01*
X151781600Y-115744380D01*
X151741416Y-115704196D01*
X151741416Y-115436300D01*
X151723705Y-115342173D01*
X151668076Y-115255724D01*
X151584840Y-115198851D01*
X151584840Y-114985060D01*
X151615412Y-114940316D01*
X151635816Y-114839560D01*
X151635816Y-114339560D01*
X151618105Y-114245433D01*
X151584840Y-114193738D01*
X151584840Y-113789640D01*
X151546171Y-113595237D01*
X151532316Y-113574501D01*
X151484938Y-113503594D01*
X151422133Y-113351594D01*
X151302030Y-113231281D01*
X151381976Y-113179836D01*
X151439972Y-113094956D01*
X151460376Y-112994200D01*
X151460376Y-112594200D01*
X151442665Y-112500073D01*
X151387036Y-112413624D01*
X151302156Y-112355628D01*
X151247352Y-112344530D01*
X151295527Y-112335465D01*
X151381976Y-112279836D01*
X151439972Y-112194956D01*
X151460376Y-112094200D01*
X151460376Y-111694200D01*
X151446013Y-111617864D01*
X151523185Y-111540826D01*
X151607704Y-111337281D01*
X151607896Y-111116886D01*
X151523733Y-110913194D01*
X151368026Y-110757215D01*
X151355742Y-110752114D01*
X152303104Y-110752114D01*
X152387267Y-110955806D01*
X152542974Y-111111785D01*
X152746519Y-111196304D01*
X152924834Y-111196459D01*
X152883028Y-111257644D01*
X152862624Y-111358400D01*
X152862624Y-111958400D01*
X152880335Y-112052527D01*
X152935964Y-112138976D01*
X153020844Y-112196972D01*
X153121600Y-112217376D01*
X153521600Y-112217376D01*
X153615727Y-112199665D01*
X153702176Y-112144036D01*
X153760172Y-112059156D01*
X153771270Y-112004352D01*
X153780335Y-112052527D01*
X153835964Y-112138976D01*
X153920844Y-112196972D01*
X154021600Y-112217376D01*
X154421600Y-112217376D01*
X154515727Y-112199665D01*
X154602176Y-112144036D01*
X154660172Y-112059156D01*
X154677032Y-111975900D01*
X154677354Y-111975900D01*
X154828974Y-112127785D01*
X155032519Y-112212304D01*
X155252914Y-112212496D01*
X155456606Y-112128333D01*
X155612585Y-111972626D01*
X155697104Y-111769081D01*
X155697296Y-111548686D01*
X155613133Y-111344994D01*
X155457426Y-111189015D01*
X155253881Y-111104496D01*
X155033486Y-111104304D01*
X154829794Y-111188467D01*
X154677253Y-111340742D01*
X154662865Y-111264273D01*
X154607236Y-111177824D01*
X154522356Y-111119828D01*
X154421600Y-111099424D01*
X154021600Y-111099424D01*
X153927473Y-111117135D01*
X153841024Y-111172764D01*
X153783028Y-111257644D01*
X153771930Y-111312448D01*
X153762865Y-111264273D01*
X153707236Y-111177824D01*
X153639100Y-111131269D01*
X153639100Y-111106800D01*
X153614932Y-110985298D01*
X153595226Y-110955806D01*
X153546107Y-110882294D01*
X153411109Y-110747296D01*
X153411296Y-110532686D01*
X153327133Y-110328994D01*
X153171426Y-110173015D01*
X152967881Y-110088496D01*
X152747486Y-110088304D01*
X152543794Y-110172467D01*
X152387815Y-110328174D01*
X152303296Y-110531719D01*
X152303104Y-110752114D01*
X151355742Y-110752114D01*
X151164481Y-110672696D01*
X150944086Y-110672504D01*
X150740394Y-110756667D01*
X150584415Y-110912374D01*
X150499896Y-111115919D01*
X150499704Y-111336314D01*
X150544960Y-111445844D01*
X150507273Y-111452935D01*
X150482734Y-111468726D01*
X150451856Y-111447628D01*
X150351100Y-111427224D01*
X149817700Y-111427224D01*
X149723573Y-111444935D01*
X149720727Y-111446767D01*
X149691626Y-111417615D01*
X149488081Y-111333096D01*
X149450076Y-111333063D01*
X149450076Y-111186200D01*
X149432365Y-111092073D01*
X149376736Y-111005624D01*
X149291856Y-110947628D01*
X149242605Y-110937654D01*
X149314827Y-110924065D01*
X149401276Y-110868436D01*
X149424044Y-110835114D01*
X149469202Y-110826132D01*
X149572206Y-110757306D01*
X149678106Y-110651407D01*
X149746932Y-110548402D01*
X149752403Y-110520898D01*
X149771100Y-110426900D01*
X149771100Y-110426345D01*
X149847300Y-110441776D01*
X150380700Y-110441776D01*
X150474827Y-110424065D01*
X150561276Y-110368436D01*
X150619272Y-110283556D01*
X150639676Y-110182800D01*
X150639676Y-109882800D01*
X150621965Y-109788673D01*
X150566336Y-109702224D01*
X150481456Y-109644228D01*
X150431500Y-109634111D01*
X150431500Y-109417776D01*
X151023600Y-109417776D01*
X151117727Y-109400065D01*
X151204176Y-109344436D01*
X151262172Y-109259556D01*
X151282576Y-109158800D01*
X151282576Y-108948837D01*
X151467325Y-108764088D01*
X151536150Y-108661084D01*
X151560318Y-108539582D01*
X151560318Y-107459002D01*
X151720333Y-107459141D01*
X151924025Y-107374978D01*
X152080004Y-107219271D01*
X152082584Y-107213057D01*
X152156385Y-107198377D01*
X152225617Y-107152117D01*
X152148225Y-107229374D01*
X152063706Y-107432919D01*
X152063514Y-107653314D01*
X152147677Y-107857006D01*
X152303384Y-108012985D01*
X152506929Y-108097504D01*
X152727324Y-108097696D01*
X152931016Y-108013533D01*
X153020104Y-107924600D01*
X153041874Y-107924600D01*
X153187676Y-107895598D01*
X153311282Y-107813008D01*
X153393872Y-107689402D01*
X153419452Y-107560804D01*
X154113656Y-106866600D01*
X155563865Y-106866600D01*
X155566335Y-106879727D01*
G36*
X132604319Y-88260104D02*
X132824714Y-88260296D01*
X132980440Y-88195952D01*
X132984864Y-88200376D01*
X132984864Y-88514380D01*
X133002575Y-88608507D01*
X133058204Y-88694956D01*
X133143084Y-88752952D01*
X133243840Y-88773356D01*
X133672909Y-88773356D01*
X133611436Y-88921399D01*
X133611244Y-89141794D01*
X133695407Y-89345486D01*
X133739424Y-89389580D01*
X133722024Y-89475500D01*
X133722024Y-89975500D01*
X133739735Y-90069627D01*
X133795364Y-90156076D01*
X133880244Y-90214072D01*
X133981000Y-90234476D01*
X133990500Y-90234476D01*
X133990500Y-90342275D01*
X133927424Y-90382864D01*
X133869428Y-90467744D01*
X133858330Y-90522548D01*
X133849265Y-90474373D01*
X133793636Y-90387924D01*
X133708756Y-90329928D01*
X133608000Y-90309524D01*
X133208000Y-90309524D01*
X133113873Y-90327235D01*
X133027424Y-90382864D01*
X132969428Y-90467744D01*
X132949024Y-90568500D01*
X132949024Y-91168500D01*
X132966735Y-91262627D01*
X132990550Y-91299637D01*
X132409000Y-91881188D01*
X132409000Y-88179001D01*
X132604319Y-88260104D01*
X132604319Y-88260104D01*
G37*
X132604319Y-88260104D02*
X132824714Y-88260296D01*
X132980440Y-88195952D01*
X132984864Y-88200376D01*
X132984864Y-88514380D01*
X133002575Y-88608507D01*
X133058204Y-88694956D01*
X133143084Y-88752952D01*
X133243840Y-88773356D01*
X133672909Y-88773356D01*
X133611436Y-88921399D01*
X133611244Y-89141794D01*
X133695407Y-89345486D01*
X133739424Y-89389580D01*
X133722024Y-89475500D01*
X133722024Y-89975500D01*
X133739735Y-90069627D01*
X133795364Y-90156076D01*
X133880244Y-90214072D01*
X133981000Y-90234476D01*
X133990500Y-90234476D01*
X133990500Y-90342275D01*
X133927424Y-90382864D01*
X133869428Y-90467744D01*
X133858330Y-90522548D01*
X133849265Y-90474373D01*
X133793636Y-90387924D01*
X133708756Y-90329928D01*
X133608000Y-90309524D01*
X133208000Y-90309524D01*
X133113873Y-90327235D01*
X133027424Y-90382864D01*
X132969428Y-90467744D01*
X132949024Y-90568500D01*
X132949024Y-91168500D01*
X132966735Y-91262627D01*
X132990550Y-91299637D01*
X132409000Y-91881188D01*
X132409000Y-88179001D01*
X132604319Y-88260104D01*
M02*
