G04 #@! TF.FileFunction,Paste,Bot*
%FSLAX46Y46*%
G04 Gerber Fmt 4.6, Leading zero omitted, Abs format (unit mm)*
G04 Created by KiCad (PCBNEW 4.0.6) date 01/21/18 22:34:32*
%MOMM*%
%LPD*%
G01*
G04 APERTURE LIST*
%ADD10C,0.100000*%
%ADD11R,0.600000X0.500000*%
%ADD12R,1.100000X1.000000*%
%ADD13R,3.000000X1.000000*%
%ADD14R,0.400000X0.600000*%
%ADD15R,0.600000X0.400000*%
G04 APERTURE END LIST*
D10*
D11*
X152180380Y-98252280D03*
X151080380Y-98252280D03*
D12*
X140775200Y-90373200D03*
X140725200Y-92913200D03*
X140775200Y-95453200D03*
X152575200Y-95453200D03*
X152575200Y-92913200D03*
X152575200Y-90373200D03*
D13*
X146675200Y-87613200D03*
X146675200Y-98213200D03*
D11*
X151145240Y-87421720D03*
X152245240Y-87421720D03*
X138388000Y-89535000D03*
X139488000Y-89535000D03*
X138134000Y-94488000D03*
X139234000Y-94488000D03*
X138261000Y-92011500D03*
X139361000Y-92011500D03*
D14*
X139070500Y-93154500D03*
X138170500Y-93154500D03*
X139070500Y-95631000D03*
X138170500Y-95631000D03*
X151271820Y-99514660D03*
X152171820Y-99514660D03*
X139197500Y-90678000D03*
X138297500Y-90678000D03*
X135757500Y-98996500D03*
X136657500Y-98996500D03*
X135757500Y-101155500D03*
X136657500Y-101155500D03*
X135757500Y-102235000D03*
X136657500Y-102235000D03*
X135757500Y-100076000D03*
X136657500Y-100076000D03*
D15*
X134823200Y-112630800D03*
X134823200Y-113530800D03*
X142849600Y-116566100D03*
X142849600Y-115666100D03*
X141643100Y-116571600D03*
X141643100Y-115671600D03*
M02*
