G04 #@! TF.FileFunction,Legend,Bot*
%FSLAX46Y46*%
G04 Gerber Fmt 4.6, Leading zero omitted, Abs format (unit mm)*
G04 Created by KiCad (PCBNEW 4.0.6) date 01/21/18 22:34:32*
%MOMM*%
%LPD*%
G01*
G04 APERTURE LIST*
%ADD10C,0.100000*%
%ADD11C,0.203200*%
%ADD12C,0.177800*%
%ADD13C,0.330200*%
%ADD14C,0.120000*%
%ADD15C,0.150000*%
%ADD16C,0.010000*%
%ADD17C,0.127000*%
G04 APERTURE END LIST*
D10*
D11*
X142852019Y-109896124D02*
X142852019Y-108626124D01*
X142368210Y-108626124D01*
X142247257Y-108686600D01*
X142186781Y-108747076D01*
X142126305Y-108868029D01*
X142126305Y-109049457D01*
X142186781Y-109170410D01*
X142247257Y-109230886D01*
X142368210Y-109291362D01*
X142852019Y-109291362D01*
X141582019Y-109896124D02*
X141582019Y-109049457D01*
X141582019Y-109291362D02*
X141521543Y-109170410D01*
X141461067Y-109109933D01*
X141340114Y-109049457D01*
X141219162Y-109049457D01*
X140795829Y-109896124D02*
X140795829Y-109049457D01*
X140795829Y-108626124D02*
X140856305Y-108686600D01*
X140795829Y-108747076D01*
X140735353Y-108686600D01*
X140795829Y-108626124D01*
X140795829Y-108747076D01*
X140191067Y-109896124D02*
X140191067Y-109049457D01*
X140191067Y-109170410D02*
X140130591Y-109109933D01*
X140009638Y-109049457D01*
X139828210Y-109049457D01*
X139707258Y-109109933D01*
X139646781Y-109230886D01*
X139646781Y-109896124D01*
X139646781Y-109230886D02*
X139586305Y-109109933D01*
X139465353Y-109049457D01*
X139283924Y-109049457D01*
X139162972Y-109109933D01*
X139102496Y-109230886D01*
X139102496Y-109896124D01*
X138013925Y-109835648D02*
X138134877Y-109896124D01*
X138376782Y-109896124D01*
X138497734Y-109835648D01*
X138558210Y-109714695D01*
X138558210Y-109230886D01*
X138497734Y-109109933D01*
X138376782Y-109049457D01*
X138134877Y-109049457D01*
X138013925Y-109109933D01*
X137953448Y-109230886D01*
X137953448Y-109351838D01*
X138558210Y-109472790D01*
D12*
X142281124Y-111813219D02*
X142619790Y-111329410D01*
X142861695Y-111813219D02*
X142861695Y-110797219D01*
X142474648Y-110797219D01*
X142377886Y-110845600D01*
X142329505Y-110893981D01*
X142281124Y-110990743D01*
X142281124Y-111135886D01*
X142329505Y-111232648D01*
X142377886Y-111281029D01*
X142474648Y-111329410D01*
X142861695Y-111329410D01*
X141458648Y-111764838D02*
X141555410Y-111813219D01*
X141748933Y-111813219D01*
X141845695Y-111764838D01*
X141894076Y-111668076D01*
X141894076Y-111281029D01*
X141845695Y-111184267D01*
X141748933Y-111135886D01*
X141555410Y-111135886D01*
X141458648Y-111184267D01*
X141410267Y-111281029D01*
X141410267Y-111377790D01*
X141894076Y-111474552D01*
X141071600Y-111135886D02*
X140829695Y-111813219D01*
X140587791Y-111135886D01*
X138894458Y-111813219D02*
X139475029Y-111813219D01*
X139184743Y-111813219D02*
X139184743Y-110797219D01*
X139281505Y-110942362D01*
X139378267Y-111039124D01*
X139475029Y-111087505D01*
X138459029Y-111716457D02*
X138410648Y-111764838D01*
X138459029Y-111813219D01*
X138507410Y-111764838D01*
X138459029Y-111716457D01*
X138459029Y-111813219D01*
X137443029Y-111813219D02*
X138023600Y-111813219D01*
X137733314Y-111813219D02*
X137733314Y-110797219D01*
X137830076Y-110942362D01*
X137926838Y-111039124D01*
X138023600Y-111087505D01*
D13*
X142922000Y-107460171D02*
X142922000Y-105960171D01*
X142922000Y-106674457D02*
X142064857Y-106674457D01*
X142064857Y-107460171D02*
X142064857Y-105960171D01*
X141136285Y-107460171D02*
X141279143Y-107388743D01*
X141350571Y-107317314D01*
X141422000Y-107174457D01*
X141422000Y-106745886D01*
X141350571Y-106603029D01*
X141279143Y-106531600D01*
X141136285Y-106460171D01*
X140922000Y-106460171D01*
X140779143Y-106531600D01*
X140707714Y-106603029D01*
X140636285Y-106745886D01*
X140636285Y-107174457D01*
X140707714Y-107317314D01*
X140779143Y-107388743D01*
X140922000Y-107460171D01*
X141136285Y-107460171D01*
X139779142Y-107460171D02*
X139922000Y-107388743D01*
X139993428Y-107245886D01*
X139993428Y-105960171D01*
X138993428Y-107460171D02*
X139136286Y-107388743D01*
X139207714Y-107317314D01*
X139279143Y-107174457D01*
X139279143Y-106745886D01*
X139207714Y-106603029D01*
X139136286Y-106531600D01*
X138993428Y-106460171D01*
X138779143Y-106460171D01*
X138636286Y-106531600D01*
X138564857Y-106603029D01*
X138493428Y-106745886D01*
X138493428Y-107174457D01*
X138564857Y-107317314D01*
X138636286Y-107388743D01*
X138779143Y-107460171D01*
X138993428Y-107460171D01*
X137207714Y-106460171D02*
X137207714Y-107674457D01*
X137279143Y-107817314D01*
X137350571Y-107888743D01*
X137493428Y-107960171D01*
X137707714Y-107960171D01*
X137850571Y-107888743D01*
X137207714Y-107388743D02*
X137350571Y-107460171D01*
X137636285Y-107460171D01*
X137779143Y-107388743D01*
X137850571Y-107317314D01*
X137922000Y-107174457D01*
X137922000Y-106745886D01*
X137850571Y-106603029D01*
X137779143Y-106531600D01*
X137636285Y-106460171D01*
X137350571Y-106460171D01*
X137207714Y-106531600D01*
X136493428Y-107460171D02*
X136493428Y-106460171D01*
X136493428Y-106745886D02*
X136422000Y-106603029D01*
X136350571Y-106531600D01*
X136207714Y-106460171D01*
X136064857Y-106460171D01*
X134922000Y-107460171D02*
X134922000Y-106674457D01*
X134993429Y-106531600D01*
X135136286Y-106460171D01*
X135422000Y-106460171D01*
X135564857Y-106531600D01*
X134922000Y-107388743D02*
X135064857Y-107460171D01*
X135422000Y-107460171D01*
X135564857Y-107388743D01*
X135636286Y-107245886D01*
X135636286Y-107103029D01*
X135564857Y-106960171D01*
X135422000Y-106888743D01*
X135064857Y-106888743D01*
X134922000Y-106817314D01*
X134207714Y-107460171D02*
X134207714Y-106460171D01*
X134207714Y-106603029D02*
X134136286Y-106531600D01*
X133993428Y-106460171D01*
X133779143Y-106460171D01*
X133636286Y-106531600D01*
X133564857Y-106674457D01*
X133564857Y-107460171D01*
X133564857Y-106674457D02*
X133493428Y-106531600D01*
X133350571Y-106460171D01*
X133136286Y-106460171D01*
X132993428Y-106531600D01*
X132922000Y-106674457D01*
X132922000Y-107460171D01*
D14*
X151380380Y-97782280D02*
X151880380Y-97782280D01*
X151880380Y-98722280D02*
X151380380Y-98722280D01*
D15*
X140398807Y-88413200D02*
G75*
G03X140398807Y-88413200I-223607J0D01*
G01*
X152675200Y-88213200D02*
X140775200Y-88213200D01*
X140775200Y-88213200D02*
X140775200Y-97613200D01*
X140775200Y-97613200D02*
X152675200Y-97613200D01*
X152675200Y-97613200D02*
X152675200Y-88213200D01*
D14*
X151945240Y-87891720D02*
X151445240Y-87891720D01*
X151445240Y-86951720D02*
X151945240Y-86951720D01*
X139188000Y-90005000D02*
X138688000Y-90005000D01*
X138688000Y-89065000D02*
X139188000Y-89065000D01*
X138934000Y-94958000D02*
X138434000Y-94958000D01*
X138434000Y-94018000D02*
X138934000Y-94018000D01*
X139061000Y-92481500D02*
X138561000Y-92481500D01*
X138561000Y-91541500D02*
X139061000Y-91541500D01*
X138370500Y-92624500D02*
X138870500Y-92624500D01*
X138870500Y-93684500D02*
X138370500Y-93684500D01*
X138370500Y-95101000D02*
X138870500Y-95101000D01*
X138870500Y-96161000D02*
X138370500Y-96161000D01*
X151971820Y-100044660D02*
X151471820Y-100044660D01*
X151471820Y-98984660D02*
X151971820Y-98984660D01*
X138497500Y-90148000D02*
X138997500Y-90148000D01*
X138997500Y-91208000D02*
X138497500Y-91208000D01*
X136457500Y-99526500D02*
X135957500Y-99526500D01*
X135957500Y-98466500D02*
X136457500Y-98466500D01*
X136457500Y-101685500D02*
X135957500Y-101685500D01*
X135957500Y-100625500D02*
X136457500Y-100625500D01*
X136457500Y-102765000D02*
X135957500Y-102765000D01*
X135957500Y-101705000D02*
X136457500Y-101705000D01*
X136457500Y-100606000D02*
X135957500Y-100606000D01*
X135957500Y-99546000D02*
X136457500Y-99546000D01*
X134293200Y-113330800D02*
X134293200Y-112830800D01*
X135353200Y-112830800D02*
X135353200Y-113330800D01*
X143379600Y-115866100D02*
X143379600Y-116366100D01*
X142319600Y-116366100D02*
X142319600Y-115866100D01*
X142173100Y-115871600D02*
X142173100Y-116371600D01*
X141113100Y-116371600D02*
X141113100Y-115871600D01*
D16*
G36*
X146510323Y-114055811D02*
X146659694Y-114001956D01*
X146880797Y-113897299D01*
X147190848Y-113733510D01*
X147607063Y-113502260D01*
X148146659Y-113195218D01*
X148327533Y-113091467D01*
X148611784Y-112928698D01*
X148937274Y-112742977D01*
X149068366Y-112668378D01*
X149470533Y-112439790D01*
X149470533Y-109100038D01*
X149469710Y-108241578D01*
X149466900Y-107537811D01*
X149461585Y-106974102D01*
X149453251Y-106535816D01*
X149441383Y-106208319D01*
X149425464Y-105976976D01*
X149404981Y-105827153D01*
X149379416Y-105744216D01*
X149351304Y-105714533D01*
X149228556Y-105733740D01*
X149001165Y-105823848D01*
X148709250Y-105967903D01*
X148568138Y-106045464D01*
X148228257Y-106238193D01*
X147907274Y-106420031D01*
X147660721Y-106559525D01*
X147607866Y-106589375D01*
X147324198Y-106753278D01*
X147034887Y-106925837D01*
X147015200Y-106937849D01*
X146718866Y-107119095D01*
X146676533Y-105617884D01*
X146658850Y-105066859D01*
X146639845Y-104663521D01*
X146617112Y-104386228D01*
X146588245Y-104213339D01*
X146550838Y-104123212D01*
X146507200Y-104094850D01*
X146382585Y-104125420D01*
X146151333Y-104225426D01*
X145852012Y-104377186D01*
X145660533Y-104483025D01*
X145233517Y-104727451D01*
X144751256Y-105005252D01*
X144304546Y-105264094D01*
X144221200Y-105312633D01*
X143501533Y-105732242D01*
X143500591Y-105875353D01*
X144127753Y-105875353D01*
X144148476Y-105795918D01*
X144289783Y-105682366D01*
X144370691Y-105635875D01*
X144581189Y-105520852D01*
X144888280Y-105348167D01*
X145242471Y-105145793D01*
X145448683Y-105026589D01*
X146210866Y-104583911D01*
X146235594Y-105217089D01*
X146244953Y-105653535D01*
X146243947Y-106138062D01*
X146235594Y-106481725D01*
X146210866Y-107113183D01*
X145205744Y-106530703D01*
X144832735Y-106312402D01*
X144511314Y-106120274D01*
X144270708Y-105972089D01*
X144140144Y-105885613D01*
X144127753Y-105875353D01*
X143500591Y-105875353D01*
X143490167Y-107458933D01*
X143797866Y-107458933D01*
X143800338Y-107016964D01*
X143807147Y-106641891D01*
X143817389Y-106362978D01*
X143830156Y-106209494D01*
X143837204Y-106188933D01*
X143921790Y-106228867D01*
X144121585Y-106337268D01*
X144405675Y-106497036D01*
X144705037Y-106668968D01*
X145064003Y-106876885D01*
X145390937Y-107066123D01*
X145644721Y-107212889D01*
X145765831Y-107282801D01*
X145927314Y-107391553D01*
X145998502Y-107470632D01*
X145998574Y-107471553D01*
X146930533Y-107471553D01*
X146998951Y-107412078D01*
X147183178Y-107288018D01*
X147451670Y-107118221D01*
X147772882Y-106921535D01*
X148115271Y-106716808D01*
X148447295Y-106522891D01*
X148737408Y-106358630D01*
X148954067Y-106242874D01*
X149065729Y-106194471D01*
X149068366Y-106194123D01*
X149090455Y-106272032D01*
X149109203Y-106490158D01*
X149123148Y-106819395D01*
X149130830Y-107230639D01*
X149131866Y-107458933D01*
X149127564Y-107900893D01*
X149115710Y-108275960D01*
X149097882Y-108554873D01*
X149075657Y-108708365D01*
X149063385Y-108728933D01*
X148960097Y-108688200D01*
X148758971Y-108582039D01*
X148534219Y-108451625D01*
X148214334Y-108262604D01*
X147832976Y-108042269D01*
X147502033Y-107854815D01*
X147231279Y-107695788D01*
X147029856Y-107562891D01*
X146933902Y-107480358D01*
X146930533Y-107471553D01*
X145998574Y-107471553D01*
X145998664Y-107472690D01*
X145929974Y-107532949D01*
X145744639Y-107656249D01*
X145474413Y-107824068D01*
X145151046Y-108017886D01*
X144806290Y-108219180D01*
X144471898Y-108409428D01*
X144179621Y-108570110D01*
X143961211Y-108682703D01*
X143848419Y-108728686D01*
X143845073Y-108728933D01*
X143828644Y-108649147D01*
X143814703Y-108429300D01*
X143804336Y-108098656D01*
X143798630Y-107686484D01*
X143797866Y-107458933D01*
X143490167Y-107458933D01*
X143479446Y-109087633D01*
X144030355Y-109087633D01*
X144654944Y-108727772D01*
X145021322Y-108515181D01*
X145402582Y-108291564D01*
X145721375Y-108102309D01*
X145745200Y-108088008D01*
X146210866Y-107808105D01*
X146234364Y-109042300D01*
X146235247Y-109109933D01*
X146676533Y-109109933D01*
X146681706Y-108653341D01*
X146696117Y-108280658D01*
X146718105Y-108017687D01*
X146746009Y-107890229D01*
X146755574Y-107882267D01*
X146866784Y-107923050D01*
X147070022Y-108028151D01*
X147242407Y-108127838D01*
X147520131Y-108292667D01*
X147873810Y-108499285D01*
X148232062Y-108706020D01*
X148270583Y-108728065D01*
X148548349Y-108891202D01*
X148754854Y-109020849D01*
X148857924Y-109096450D01*
X148863250Y-109106754D01*
X148777036Y-109161089D01*
X148578237Y-109278490D01*
X148298722Y-109440751D01*
X147970358Y-109629667D01*
X147625013Y-109827032D01*
X147294556Y-110014643D01*
X147010853Y-110174293D01*
X146805773Y-110287778D01*
X146711183Y-110336893D01*
X146708667Y-110337600D01*
X146697306Y-110257896D01*
X146687708Y-110038629D01*
X146680654Y-109709565D01*
X146676922Y-109300472D01*
X146676533Y-109109933D01*
X146235247Y-109109933D01*
X146240101Y-109481555D01*
X146240037Y-109857440D01*
X146234561Y-110138997D01*
X146224066Y-110295271D01*
X146218241Y-110316115D01*
X146129751Y-110290209D01*
X145907238Y-110179080D01*
X145559899Y-109987846D01*
X145096930Y-109721627D01*
X144527529Y-109385542D01*
X144273944Y-109233843D01*
X144030355Y-109087633D01*
X143479446Y-109087633D01*
X143479393Y-109095538D01*
X143474603Y-109965140D01*
X143473022Y-110675543D01*
X143797866Y-110675543D01*
X143797866Y-109404819D01*
X144284700Y-109675488D01*
X144615207Y-109862910D01*
X145003072Y-110088139D01*
X145343611Y-110290045D01*
X145614168Y-110461626D01*
X145818325Y-110608062D01*
X145920025Y-110703005D01*
X145925162Y-110715018D01*
X145921462Y-110718600D01*
X146978056Y-110718600D01*
X147048084Y-110639955D01*
X147234703Y-110501344D01*
X147505051Y-110322408D01*
X147826266Y-110122786D01*
X148165483Y-109922119D01*
X148489840Y-109740047D01*
X148766474Y-109596209D01*
X148962522Y-109510247D01*
X149026033Y-109494656D01*
X149069833Y-109536602D01*
X149100680Y-109678429D01*
X149120184Y-109938761D01*
X149129954Y-110336224D01*
X149131866Y-110718600D01*
X149127655Y-111152650D01*
X149116071Y-111519308D01*
X149098686Y-111788809D01*
X149077074Y-111931389D01*
X149067004Y-111946267D01*
X148956848Y-111905793D01*
X148740942Y-111797014D01*
X148451554Y-111638893D01*
X148120954Y-111450396D01*
X147781409Y-111250485D01*
X147465188Y-111058124D01*
X147204558Y-110892279D01*
X147031789Y-110771912D01*
X146978056Y-110718600D01*
X145921462Y-110718600D01*
X145859475Y-110778598D01*
X145677818Y-110905150D01*
X145412306Y-111075521D01*
X145095051Y-111270555D01*
X144758168Y-111471100D01*
X144433771Y-111658000D01*
X144153974Y-111812101D01*
X143950892Y-111914250D01*
X143861366Y-111945955D01*
X143839275Y-111866282D01*
X143820525Y-111646534D01*
X143806579Y-111315956D01*
X143798900Y-110903796D01*
X143797866Y-110675543D01*
X143473022Y-110675543D01*
X143473013Y-110679401D01*
X143474993Y-111252289D01*
X143480911Y-111697773D01*
X143491138Y-112029821D01*
X143506042Y-112262402D01*
X143525993Y-112409484D01*
X143551360Y-112485036D01*
X143569484Y-112501901D01*
X143687863Y-112480246D01*
X143910985Y-112386163D01*
X144200067Y-112237082D01*
X144353624Y-112149485D01*
X144742393Y-111920623D01*
X145159483Y-111675034D01*
X145525161Y-111459668D01*
X145580956Y-111426801D01*
X145857346Y-111269755D01*
X146080001Y-111153858D01*
X146206982Y-111100727D01*
X146215956Y-111099492D01*
X146243642Y-111180789D01*
X146263090Y-111411799D01*
X146273553Y-111773063D01*
X146274286Y-112245126D01*
X146273212Y-112327267D01*
X146676533Y-112327267D01*
X146679300Y-111893209D01*
X146686911Y-111526547D01*
X146698334Y-111257045D01*
X146712534Y-111114472D01*
X146719149Y-111099600D01*
X146803913Y-111139473D01*
X147008039Y-111249090D01*
X147304290Y-111413452D01*
X147665427Y-111617557D01*
X147819593Y-111705618D01*
X148233788Y-111945784D01*
X148517236Y-112119268D01*
X148688033Y-112240133D01*
X148764273Y-112322440D01*
X148764053Y-112380254D01*
X148729477Y-112412743D01*
X148580265Y-112506768D01*
X148335804Y-112652520D01*
X148029374Y-112831052D01*
X147694252Y-113023418D01*
X147363716Y-113210670D01*
X147071046Y-113373861D01*
X146849518Y-113494046D01*
X146732413Y-113552276D01*
X146723327Y-113554933D01*
X146706782Y-113475231D01*
X146692806Y-113255967D01*
X146682534Y-112926909D01*
X146677100Y-112517822D01*
X146676533Y-112327267D01*
X146273212Y-112327267D01*
X146270619Y-112525348D01*
X146264009Y-113081472D01*
X146267246Y-113489482D01*
X146281538Y-113770376D01*
X146308091Y-113945153D01*
X146348113Y-114034811D01*
X146357909Y-114044434D01*
X146415467Y-114067194D01*
X146510323Y-114055811D01*
X146510323Y-114055811D01*
G37*
X146510323Y-114055811D02*
X146659694Y-114001956D01*
X146880797Y-113897299D01*
X147190848Y-113733510D01*
X147607063Y-113502260D01*
X148146659Y-113195218D01*
X148327533Y-113091467D01*
X148611784Y-112928698D01*
X148937274Y-112742977D01*
X149068366Y-112668378D01*
X149470533Y-112439790D01*
X149470533Y-109100038D01*
X149469710Y-108241578D01*
X149466900Y-107537811D01*
X149461585Y-106974102D01*
X149453251Y-106535816D01*
X149441383Y-106208319D01*
X149425464Y-105976976D01*
X149404981Y-105827153D01*
X149379416Y-105744216D01*
X149351304Y-105714533D01*
X149228556Y-105733740D01*
X149001165Y-105823848D01*
X148709250Y-105967903D01*
X148568138Y-106045464D01*
X148228257Y-106238193D01*
X147907274Y-106420031D01*
X147660721Y-106559525D01*
X147607866Y-106589375D01*
X147324198Y-106753278D01*
X147034887Y-106925837D01*
X147015200Y-106937849D01*
X146718866Y-107119095D01*
X146676533Y-105617884D01*
X146658850Y-105066859D01*
X146639845Y-104663521D01*
X146617112Y-104386228D01*
X146588245Y-104213339D01*
X146550838Y-104123212D01*
X146507200Y-104094850D01*
X146382585Y-104125420D01*
X146151333Y-104225426D01*
X145852012Y-104377186D01*
X145660533Y-104483025D01*
X145233517Y-104727451D01*
X144751256Y-105005252D01*
X144304546Y-105264094D01*
X144221200Y-105312633D01*
X143501533Y-105732242D01*
X143500591Y-105875353D01*
X144127753Y-105875353D01*
X144148476Y-105795918D01*
X144289783Y-105682366D01*
X144370691Y-105635875D01*
X144581189Y-105520852D01*
X144888280Y-105348167D01*
X145242471Y-105145793D01*
X145448683Y-105026589D01*
X146210866Y-104583911D01*
X146235594Y-105217089D01*
X146244953Y-105653535D01*
X146243947Y-106138062D01*
X146235594Y-106481725D01*
X146210866Y-107113183D01*
X145205744Y-106530703D01*
X144832735Y-106312402D01*
X144511314Y-106120274D01*
X144270708Y-105972089D01*
X144140144Y-105885613D01*
X144127753Y-105875353D01*
X143500591Y-105875353D01*
X143490167Y-107458933D01*
X143797866Y-107458933D01*
X143800338Y-107016964D01*
X143807147Y-106641891D01*
X143817389Y-106362978D01*
X143830156Y-106209494D01*
X143837204Y-106188933D01*
X143921790Y-106228867D01*
X144121585Y-106337268D01*
X144405675Y-106497036D01*
X144705037Y-106668968D01*
X145064003Y-106876885D01*
X145390937Y-107066123D01*
X145644721Y-107212889D01*
X145765831Y-107282801D01*
X145927314Y-107391553D01*
X145998502Y-107470632D01*
X145998574Y-107471553D01*
X146930533Y-107471553D01*
X146998951Y-107412078D01*
X147183178Y-107288018D01*
X147451670Y-107118221D01*
X147772882Y-106921535D01*
X148115271Y-106716808D01*
X148447295Y-106522891D01*
X148737408Y-106358630D01*
X148954067Y-106242874D01*
X149065729Y-106194471D01*
X149068366Y-106194123D01*
X149090455Y-106272032D01*
X149109203Y-106490158D01*
X149123148Y-106819395D01*
X149130830Y-107230639D01*
X149131866Y-107458933D01*
X149127564Y-107900893D01*
X149115710Y-108275960D01*
X149097882Y-108554873D01*
X149075657Y-108708365D01*
X149063385Y-108728933D01*
X148960097Y-108688200D01*
X148758971Y-108582039D01*
X148534219Y-108451625D01*
X148214334Y-108262604D01*
X147832976Y-108042269D01*
X147502033Y-107854815D01*
X147231279Y-107695788D01*
X147029856Y-107562891D01*
X146933902Y-107480358D01*
X146930533Y-107471553D01*
X145998574Y-107471553D01*
X145998664Y-107472690D01*
X145929974Y-107532949D01*
X145744639Y-107656249D01*
X145474413Y-107824068D01*
X145151046Y-108017886D01*
X144806290Y-108219180D01*
X144471898Y-108409428D01*
X144179621Y-108570110D01*
X143961211Y-108682703D01*
X143848419Y-108728686D01*
X143845073Y-108728933D01*
X143828644Y-108649147D01*
X143814703Y-108429300D01*
X143804336Y-108098656D01*
X143798630Y-107686484D01*
X143797866Y-107458933D01*
X143490167Y-107458933D01*
X143479446Y-109087633D01*
X144030355Y-109087633D01*
X144654944Y-108727772D01*
X145021322Y-108515181D01*
X145402582Y-108291564D01*
X145721375Y-108102309D01*
X145745200Y-108088008D01*
X146210866Y-107808105D01*
X146234364Y-109042300D01*
X146235247Y-109109933D01*
X146676533Y-109109933D01*
X146681706Y-108653341D01*
X146696117Y-108280658D01*
X146718105Y-108017687D01*
X146746009Y-107890229D01*
X146755574Y-107882267D01*
X146866784Y-107923050D01*
X147070022Y-108028151D01*
X147242407Y-108127838D01*
X147520131Y-108292667D01*
X147873810Y-108499285D01*
X148232062Y-108706020D01*
X148270583Y-108728065D01*
X148548349Y-108891202D01*
X148754854Y-109020849D01*
X148857924Y-109096450D01*
X148863250Y-109106754D01*
X148777036Y-109161089D01*
X148578237Y-109278490D01*
X148298722Y-109440751D01*
X147970358Y-109629667D01*
X147625013Y-109827032D01*
X147294556Y-110014643D01*
X147010853Y-110174293D01*
X146805773Y-110287778D01*
X146711183Y-110336893D01*
X146708667Y-110337600D01*
X146697306Y-110257896D01*
X146687708Y-110038629D01*
X146680654Y-109709565D01*
X146676922Y-109300472D01*
X146676533Y-109109933D01*
X146235247Y-109109933D01*
X146240101Y-109481555D01*
X146240037Y-109857440D01*
X146234561Y-110138997D01*
X146224066Y-110295271D01*
X146218241Y-110316115D01*
X146129751Y-110290209D01*
X145907238Y-110179080D01*
X145559899Y-109987846D01*
X145096930Y-109721627D01*
X144527529Y-109385542D01*
X144273944Y-109233843D01*
X144030355Y-109087633D01*
X143479446Y-109087633D01*
X143479393Y-109095538D01*
X143474603Y-109965140D01*
X143473022Y-110675543D01*
X143797866Y-110675543D01*
X143797866Y-109404819D01*
X144284700Y-109675488D01*
X144615207Y-109862910D01*
X145003072Y-110088139D01*
X145343611Y-110290045D01*
X145614168Y-110461626D01*
X145818325Y-110608062D01*
X145920025Y-110703005D01*
X145925162Y-110715018D01*
X145921462Y-110718600D01*
X146978056Y-110718600D01*
X147048084Y-110639955D01*
X147234703Y-110501344D01*
X147505051Y-110322408D01*
X147826266Y-110122786D01*
X148165483Y-109922119D01*
X148489840Y-109740047D01*
X148766474Y-109596209D01*
X148962522Y-109510247D01*
X149026033Y-109494656D01*
X149069833Y-109536602D01*
X149100680Y-109678429D01*
X149120184Y-109938761D01*
X149129954Y-110336224D01*
X149131866Y-110718600D01*
X149127655Y-111152650D01*
X149116071Y-111519308D01*
X149098686Y-111788809D01*
X149077074Y-111931389D01*
X149067004Y-111946267D01*
X148956848Y-111905793D01*
X148740942Y-111797014D01*
X148451554Y-111638893D01*
X148120954Y-111450396D01*
X147781409Y-111250485D01*
X147465188Y-111058124D01*
X147204558Y-110892279D01*
X147031789Y-110771912D01*
X146978056Y-110718600D01*
X145921462Y-110718600D01*
X145859475Y-110778598D01*
X145677818Y-110905150D01*
X145412306Y-111075521D01*
X145095051Y-111270555D01*
X144758168Y-111471100D01*
X144433771Y-111658000D01*
X144153974Y-111812101D01*
X143950892Y-111914250D01*
X143861366Y-111945955D01*
X143839275Y-111866282D01*
X143820525Y-111646534D01*
X143806579Y-111315956D01*
X143798900Y-110903796D01*
X143797866Y-110675543D01*
X143473022Y-110675543D01*
X143473013Y-110679401D01*
X143474993Y-111252289D01*
X143480911Y-111697773D01*
X143491138Y-112029821D01*
X143506042Y-112262402D01*
X143525993Y-112409484D01*
X143551360Y-112485036D01*
X143569484Y-112501901D01*
X143687863Y-112480246D01*
X143910985Y-112386163D01*
X144200067Y-112237082D01*
X144353624Y-112149485D01*
X144742393Y-111920623D01*
X145159483Y-111675034D01*
X145525161Y-111459668D01*
X145580956Y-111426801D01*
X145857346Y-111269755D01*
X146080001Y-111153858D01*
X146206982Y-111100727D01*
X146215956Y-111099492D01*
X146243642Y-111180789D01*
X146263090Y-111411799D01*
X146273553Y-111773063D01*
X146274286Y-112245126D01*
X146273212Y-112327267D01*
X146676533Y-112327267D01*
X146679300Y-111893209D01*
X146686911Y-111526547D01*
X146698334Y-111257045D01*
X146712534Y-111114472D01*
X146719149Y-111099600D01*
X146803913Y-111139473D01*
X147008039Y-111249090D01*
X147304290Y-111413452D01*
X147665427Y-111617557D01*
X147819593Y-111705618D01*
X148233788Y-111945784D01*
X148517236Y-112119268D01*
X148688033Y-112240133D01*
X148764273Y-112322440D01*
X148764053Y-112380254D01*
X148729477Y-112412743D01*
X148580265Y-112506768D01*
X148335804Y-112652520D01*
X148029374Y-112831052D01*
X147694252Y-113023418D01*
X147363716Y-113210670D01*
X147071046Y-113373861D01*
X146849518Y-113494046D01*
X146732413Y-113552276D01*
X146723327Y-113554933D01*
X146706782Y-113475231D01*
X146692806Y-113255967D01*
X146682534Y-112926909D01*
X146677100Y-112517822D01*
X146676533Y-112327267D01*
X146273212Y-112327267D01*
X146270619Y-112525348D01*
X146264009Y-113081472D01*
X146267246Y-113489482D01*
X146281538Y-113770376D01*
X146308091Y-113945153D01*
X146348113Y-114034811D01*
X146357909Y-114044434D01*
X146415467Y-114067194D01*
X146510323Y-114055811D01*
G36*
X153256229Y-87249183D02*
X152942713Y-87570253D01*
X152942713Y-89637447D01*
X156583380Y-89637447D01*
X156583380Y-87097447D01*
X156414046Y-87097447D01*
X156414046Y-89468113D01*
X153112046Y-89468113D01*
X153112046Y-87739586D01*
X153425563Y-87418516D01*
X153739079Y-87097447D01*
X156414046Y-87097447D01*
X156583380Y-87097447D01*
X156583380Y-86928113D01*
X153569746Y-86928113D01*
X153256229Y-87249183D01*
X153256229Y-87249183D01*
G37*
X153256229Y-87249183D02*
X152942713Y-87570253D01*
X152942713Y-89637447D01*
X156583380Y-89637447D01*
X156583380Y-87097447D01*
X156414046Y-87097447D01*
X156414046Y-89468113D01*
X153112046Y-89468113D01*
X153112046Y-87739586D01*
X153425563Y-87418516D01*
X153739079Y-87097447D01*
X156414046Y-87097447D01*
X156583380Y-87097447D01*
X156583380Y-86928113D01*
X153569746Y-86928113D01*
X153256229Y-87249183D01*
G36*
X154324009Y-87850136D02*
X154144570Y-87933562D01*
X153927103Y-88057680D01*
X153720899Y-88192807D01*
X153575250Y-88309263D01*
X153535380Y-88367447D01*
X153601023Y-88449395D01*
X153765091Y-88572819D01*
X153978292Y-88708038D01*
X154191335Y-88825369D01*
X154354928Y-88895130D01*
X154416128Y-88897809D01*
X154459474Y-88779011D01*
X154466713Y-88692002D01*
X154481943Y-88621092D01*
X154547820Y-88575668D01*
X154694626Y-88550178D01*
X154952641Y-88539069D01*
X155313380Y-88536780D01*
X155698730Y-88534456D01*
X155945416Y-88523397D01*
X156084086Y-88497474D01*
X156145390Y-88450557D01*
X156159977Y-88376515D01*
X156160046Y-88367447D01*
X156148426Y-88290377D01*
X156093133Y-88241039D01*
X155963517Y-88213305D01*
X155728931Y-88201044D01*
X155358724Y-88198127D01*
X155313380Y-88198113D01*
X154926600Y-88195321D01*
X154678832Y-88183244D01*
X154539793Y-88156329D01*
X154479202Y-88109026D01*
X154466713Y-88042891D01*
X154442124Y-87885294D01*
X154416128Y-87837084D01*
X154324009Y-87850136D01*
X154324009Y-87850136D01*
G37*
X154324009Y-87850136D02*
X154144570Y-87933562D01*
X153927103Y-88057680D01*
X153720899Y-88192807D01*
X153575250Y-88309263D01*
X153535380Y-88367447D01*
X153601023Y-88449395D01*
X153765091Y-88572819D01*
X153978292Y-88708038D01*
X154191335Y-88825369D01*
X154354928Y-88895130D01*
X154416128Y-88897809D01*
X154459474Y-88779011D01*
X154466713Y-88692002D01*
X154481943Y-88621092D01*
X154547820Y-88575668D01*
X154694626Y-88550178D01*
X154952641Y-88539069D01*
X155313380Y-88536780D01*
X155698730Y-88534456D01*
X155945416Y-88523397D01*
X156084086Y-88497474D01*
X156145390Y-88450557D01*
X156159977Y-88376515D01*
X156160046Y-88367447D01*
X156148426Y-88290377D01*
X156093133Y-88241039D01*
X155963517Y-88213305D01*
X155728931Y-88201044D01*
X155358724Y-88198127D01*
X155313380Y-88198113D01*
X154926600Y-88195321D01*
X154678832Y-88183244D01*
X154539793Y-88156329D01*
X154479202Y-88109026D01*
X154466713Y-88042891D01*
X154442124Y-87885294D01*
X154416128Y-87837084D01*
X154324009Y-87850136D01*
D17*
X153849252Y-98723269D02*
X153873442Y-98747459D01*
X153946014Y-98771650D01*
X153994395Y-98771650D01*
X154066966Y-98747459D01*
X154115347Y-98699078D01*
X154139538Y-98650697D01*
X154163728Y-98553935D01*
X154163728Y-98481364D01*
X154139538Y-98384602D01*
X154115347Y-98336221D01*
X154066966Y-98287840D01*
X153994395Y-98263650D01*
X153946014Y-98263650D01*
X153873442Y-98287840D01*
X153849252Y-98312030D01*
X153365442Y-98771650D02*
X153655728Y-98771650D01*
X153510585Y-98771650D02*
X153510585Y-98263650D01*
X153558966Y-98336221D01*
X153607347Y-98384602D01*
X153655728Y-98408792D01*
X153075156Y-98481364D02*
X153123537Y-98457173D01*
X153147728Y-98432983D01*
X153171918Y-98384602D01*
X153171918Y-98360411D01*
X153147728Y-98312030D01*
X153123537Y-98287840D01*
X153075156Y-98263650D01*
X152978394Y-98263650D01*
X152930013Y-98287840D01*
X152905823Y-98312030D01*
X152881632Y-98360411D01*
X152881632Y-98384602D01*
X152905823Y-98432983D01*
X152930013Y-98457173D01*
X152978394Y-98481364D01*
X153075156Y-98481364D01*
X153123537Y-98505554D01*
X153147728Y-98529745D01*
X153171918Y-98578126D01*
X153171918Y-98674888D01*
X153147728Y-98723269D01*
X153123537Y-98747459D01*
X153075156Y-98771650D01*
X152978394Y-98771650D01*
X152930013Y-98747459D01*
X152905823Y-98723269D01*
X152881632Y-98674888D01*
X152881632Y-98578126D01*
X152905823Y-98529745D01*
X152930013Y-98505554D01*
X152978394Y-98481364D01*
X144311068Y-97892810D02*
X144311068Y-98304048D01*
X144286877Y-98352429D01*
X144262687Y-98376619D01*
X144214306Y-98400810D01*
X144117544Y-98400810D01*
X144069163Y-98376619D01*
X144044972Y-98352429D01*
X144020782Y-98304048D01*
X144020782Y-97892810D01*
X143561163Y-98062143D02*
X143561163Y-98400810D01*
X143682116Y-97868619D02*
X143803068Y-98231476D01*
X143488592Y-98231476D01*
X149632852Y-87318669D02*
X149657042Y-87342859D01*
X149729614Y-87367050D01*
X149777995Y-87367050D01*
X149850566Y-87342859D01*
X149898947Y-87294478D01*
X149923138Y-87246097D01*
X149947328Y-87149335D01*
X149947328Y-87076764D01*
X149923138Y-86980002D01*
X149898947Y-86931621D01*
X149850566Y-86883240D01*
X149777995Y-86859050D01*
X149729614Y-86859050D01*
X149657042Y-86883240D01*
X149632852Y-86907430D01*
X149149042Y-87367050D02*
X149439328Y-87367050D01*
X149294185Y-87367050D02*
X149294185Y-86859050D01*
X149342566Y-86931621D01*
X149390947Y-86980002D01*
X149439328Y-87004192D01*
X148713613Y-86859050D02*
X148810375Y-86859050D01*
X148858756Y-86883240D01*
X148882947Y-86907430D01*
X148931328Y-86980002D01*
X148955518Y-87076764D01*
X148955518Y-87270288D01*
X148931328Y-87318669D01*
X148907137Y-87342859D01*
X148858756Y-87367050D01*
X148761994Y-87367050D01*
X148713613Y-87342859D01*
X148689423Y-87318669D01*
X148665232Y-87270288D01*
X148665232Y-87149335D01*
X148689423Y-87100954D01*
X148713613Y-87076764D01*
X148761994Y-87052573D01*
X148858756Y-87052573D01*
X148907137Y-87076764D01*
X148931328Y-87100954D01*
X148955518Y-87149335D01*
X137278292Y-89751989D02*
X137302482Y-89776179D01*
X137375054Y-89800370D01*
X137423435Y-89800370D01*
X137496006Y-89776179D01*
X137544387Y-89727798D01*
X137568578Y-89679417D01*
X137592768Y-89582655D01*
X137592768Y-89510084D01*
X137568578Y-89413322D01*
X137544387Y-89364941D01*
X137496006Y-89316560D01*
X137423435Y-89292370D01*
X137375054Y-89292370D01*
X137302482Y-89316560D01*
X137278292Y-89340750D01*
X136794482Y-89800370D02*
X137084768Y-89800370D01*
X136939625Y-89800370D02*
X136939625Y-89292370D01*
X136988006Y-89364941D01*
X137036387Y-89413322D01*
X137084768Y-89437512D01*
X136625149Y-89292370D02*
X136286482Y-89292370D01*
X136504196Y-89800370D01*
X137176692Y-94651649D02*
X137200882Y-94675839D01*
X137273454Y-94700030D01*
X137321835Y-94700030D01*
X137394406Y-94675839D01*
X137442787Y-94627458D01*
X137466978Y-94579077D01*
X137491168Y-94482315D01*
X137491168Y-94409744D01*
X137466978Y-94312982D01*
X137442787Y-94264601D01*
X137394406Y-94216220D01*
X137321835Y-94192030D01*
X137273454Y-94192030D01*
X137200882Y-94216220D01*
X137176692Y-94240410D01*
X136692882Y-94700030D02*
X136983168Y-94700030D01*
X136838025Y-94700030D02*
X136838025Y-94192030D01*
X136886406Y-94264601D01*
X136934787Y-94312982D01*
X136983168Y-94337172D01*
X136450977Y-94700030D02*
X136354215Y-94700030D01*
X136305834Y-94675839D01*
X136281644Y-94651649D01*
X136233263Y-94579077D01*
X136209072Y-94482315D01*
X136209072Y-94288791D01*
X136233263Y-94240410D01*
X136257453Y-94216220D01*
X136305834Y-94192030D01*
X136402596Y-94192030D01*
X136450977Y-94216220D01*
X136475168Y-94240410D01*
X136499358Y-94288791D01*
X136499358Y-94409744D01*
X136475168Y-94458125D01*
X136450977Y-94482315D01*
X136402596Y-94506506D01*
X136305834Y-94506506D01*
X136257453Y-94482315D01*
X136233263Y-94458125D01*
X136209072Y-94409744D01*
X137217332Y-92274209D02*
X137241522Y-92298399D01*
X137314094Y-92322590D01*
X137362475Y-92322590D01*
X137435046Y-92298399D01*
X137483427Y-92250018D01*
X137507618Y-92201637D01*
X137531808Y-92104875D01*
X137531808Y-92032304D01*
X137507618Y-91935542D01*
X137483427Y-91887161D01*
X137435046Y-91838780D01*
X137362475Y-91814590D01*
X137314094Y-91814590D01*
X137241522Y-91838780D01*
X137217332Y-91862970D01*
X137023808Y-91862970D02*
X136999618Y-91838780D01*
X136951237Y-91814590D01*
X136830284Y-91814590D01*
X136781903Y-91838780D01*
X136757713Y-91862970D01*
X136733522Y-91911351D01*
X136733522Y-91959732D01*
X136757713Y-92032304D01*
X137047999Y-92322590D01*
X136733522Y-92322590D01*
X136419046Y-91814590D02*
X136370665Y-91814590D01*
X136322284Y-91838780D01*
X136298093Y-91862970D01*
X136273903Y-91911351D01*
X136249712Y-92008113D01*
X136249712Y-92129066D01*
X136273903Y-92225828D01*
X136298093Y-92274209D01*
X136322284Y-92298399D01*
X136370665Y-92322590D01*
X136419046Y-92322590D01*
X136467427Y-92298399D01*
X136491617Y-92274209D01*
X136515808Y-92225828D01*
X136539998Y-92129066D01*
X136539998Y-92008113D01*
X136515808Y-91911351D01*
X136491617Y-91862970D01*
X136467427Y-91838780D01*
X136419046Y-91814590D01*
X137527938Y-93480830D02*
X137527938Y-92972830D01*
X137406985Y-92972830D01*
X137334414Y-92997020D01*
X137286033Y-93045401D01*
X137261842Y-93093782D01*
X137237652Y-93190544D01*
X137237652Y-93263115D01*
X137261842Y-93359877D01*
X137286033Y-93408258D01*
X137334414Y-93456639D01*
X137406985Y-93480830D01*
X137527938Y-93480830D01*
X136753842Y-93480830D02*
X137044128Y-93480830D01*
X136898985Y-93480830D02*
X136898985Y-92972830D01*
X136947366Y-93045401D01*
X136995747Y-93093782D01*
X137044128Y-93117972D01*
X136439366Y-92972830D02*
X136390985Y-92972830D01*
X136342604Y-92997020D01*
X136318413Y-93021210D01*
X136294223Y-93069591D01*
X136270032Y-93166353D01*
X136270032Y-93287306D01*
X136294223Y-93384068D01*
X136318413Y-93432449D01*
X136342604Y-93456639D01*
X136390985Y-93480830D01*
X136439366Y-93480830D01*
X136487747Y-93456639D01*
X136511937Y-93432449D01*
X136536128Y-93384068D01*
X136560318Y-93287306D01*
X136560318Y-93166353D01*
X136536128Y-93069591D01*
X136511937Y-93021210D01*
X136487747Y-92997020D01*
X136439366Y-92972830D01*
X137466978Y-95837950D02*
X137466978Y-95329950D01*
X137346025Y-95329950D01*
X137273454Y-95354140D01*
X137225073Y-95402521D01*
X137200882Y-95450902D01*
X137176692Y-95547664D01*
X137176692Y-95620235D01*
X137200882Y-95716997D01*
X137225073Y-95765378D01*
X137273454Y-95813759D01*
X137346025Y-95837950D01*
X137466978Y-95837950D01*
X136692882Y-95837950D02*
X136983168Y-95837950D01*
X136838025Y-95837950D02*
X136838025Y-95329950D01*
X136886406Y-95402521D01*
X136934787Y-95450902D01*
X136983168Y-95475092D01*
X136209072Y-95837950D02*
X136499358Y-95837950D01*
X136354215Y-95837950D02*
X136354215Y-95329950D01*
X136402596Y-95402521D01*
X136450977Y-95450902D01*
X136499358Y-95475092D01*
X152861918Y-100780790D02*
X152861918Y-100272790D01*
X152740965Y-100272790D01*
X152668394Y-100296980D01*
X152620013Y-100345361D01*
X152595822Y-100393742D01*
X152571632Y-100490504D01*
X152571632Y-100563075D01*
X152595822Y-100659837D01*
X152620013Y-100708218D01*
X152668394Y-100756599D01*
X152740965Y-100780790D01*
X152861918Y-100780790D01*
X152087822Y-100780790D02*
X152378108Y-100780790D01*
X152232965Y-100780790D02*
X152232965Y-100272790D01*
X152281346Y-100345361D01*
X152329727Y-100393742D01*
X152378108Y-100417932D01*
X151894298Y-100321170D02*
X151870108Y-100296980D01*
X151821727Y-100272790D01*
X151700774Y-100272790D01*
X151652393Y-100296980D01*
X151628203Y-100321170D01*
X151604012Y-100369551D01*
X151604012Y-100417932D01*
X151628203Y-100490504D01*
X151918489Y-100780790D01*
X151604012Y-100780790D01*
X137548258Y-90900190D02*
X137548258Y-90392190D01*
X137427305Y-90392190D01*
X137354734Y-90416380D01*
X137306353Y-90464761D01*
X137282162Y-90513142D01*
X137257972Y-90609904D01*
X137257972Y-90682475D01*
X137282162Y-90779237D01*
X137306353Y-90827618D01*
X137354734Y-90875999D01*
X137427305Y-90900190D01*
X137548258Y-90900190D01*
X136774162Y-90900190D02*
X137064448Y-90900190D01*
X136919305Y-90900190D02*
X136919305Y-90392190D01*
X136967686Y-90464761D01*
X137016067Y-90513142D01*
X137064448Y-90537332D01*
X136604829Y-90392190D02*
X136290352Y-90392190D01*
X136459686Y-90585713D01*
X136387114Y-90585713D01*
X136338733Y-90609904D01*
X136314543Y-90634094D01*
X136290352Y-90682475D01*
X136290352Y-90803428D01*
X136314543Y-90851809D01*
X136338733Y-90875999D01*
X136387114Y-90900190D01*
X136532257Y-90900190D01*
X136580638Y-90875999D01*
X136604829Y-90851809D01*
X134758612Y-99193290D02*
X134927945Y-98951385D01*
X135048898Y-99193290D02*
X135048898Y-98685290D01*
X134855374Y-98685290D01*
X134806993Y-98709480D01*
X134782802Y-98733670D01*
X134758612Y-98782051D01*
X134758612Y-98854623D01*
X134782802Y-98903004D01*
X134806993Y-98927194D01*
X134855374Y-98951385D01*
X135048898Y-98951385D01*
X134565088Y-98733670D02*
X134540898Y-98709480D01*
X134492517Y-98685290D01*
X134371564Y-98685290D01*
X134323183Y-98709480D01*
X134298993Y-98733670D01*
X134274802Y-98782051D01*
X134274802Y-98830432D01*
X134298993Y-98903004D01*
X134589279Y-99193290D01*
X134274802Y-99193290D01*
X134105469Y-98685290D02*
X133790992Y-98685290D01*
X133960326Y-98878813D01*
X133887754Y-98878813D01*
X133839373Y-98903004D01*
X133815183Y-98927194D01*
X133790992Y-98975575D01*
X133790992Y-99096528D01*
X133815183Y-99144909D01*
X133839373Y-99169099D01*
X133887754Y-99193290D01*
X134032897Y-99193290D01*
X134081278Y-99169099D01*
X134105469Y-99144909D01*
X134738292Y-101367530D02*
X134907625Y-101125625D01*
X135028578Y-101367530D02*
X135028578Y-100859530D01*
X134835054Y-100859530D01*
X134786673Y-100883720D01*
X134762482Y-100907910D01*
X134738292Y-100956291D01*
X134738292Y-101028863D01*
X134762482Y-101077244D01*
X134786673Y-101101434D01*
X134835054Y-101125625D01*
X135028578Y-101125625D01*
X134544768Y-100907910D02*
X134520578Y-100883720D01*
X134472197Y-100859530D01*
X134351244Y-100859530D01*
X134302863Y-100883720D01*
X134278673Y-100907910D01*
X134254482Y-100956291D01*
X134254482Y-101004672D01*
X134278673Y-101077244D01*
X134568959Y-101367530D01*
X134254482Y-101367530D01*
X133819053Y-101028863D02*
X133819053Y-101367530D01*
X133940006Y-100835339D02*
X134060958Y-101198196D01*
X133746482Y-101198196D01*
X134717972Y-102485130D02*
X134887305Y-102243225D01*
X135008258Y-102485130D02*
X135008258Y-101977130D01*
X134814734Y-101977130D01*
X134766353Y-102001320D01*
X134742162Y-102025510D01*
X134717972Y-102073891D01*
X134717972Y-102146463D01*
X134742162Y-102194844D01*
X134766353Y-102219034D01*
X134814734Y-102243225D01*
X135008258Y-102243225D01*
X134524448Y-102025510D02*
X134500258Y-102001320D01*
X134451877Y-101977130D01*
X134330924Y-101977130D01*
X134282543Y-102001320D01*
X134258353Y-102025510D01*
X134234162Y-102073891D01*
X134234162Y-102122272D01*
X134258353Y-102194844D01*
X134548639Y-102485130D01*
X134234162Y-102485130D01*
X133798733Y-101977130D02*
X133895495Y-101977130D01*
X133943876Y-102001320D01*
X133968067Y-102025510D01*
X134016448Y-102098082D01*
X134040638Y-102194844D01*
X134040638Y-102388368D01*
X134016448Y-102436749D01*
X133992257Y-102460939D01*
X133943876Y-102485130D01*
X133847114Y-102485130D01*
X133798733Y-102460939D01*
X133774543Y-102436749D01*
X133750352Y-102388368D01*
X133750352Y-102267415D01*
X133774543Y-102219034D01*
X133798733Y-102194844D01*
X133847114Y-102170653D01*
X133943876Y-102170653D01*
X133992257Y-102194844D01*
X134016448Y-102219034D01*
X134040638Y-102267415D01*
X134717972Y-100249930D02*
X134887305Y-100008025D01*
X135008258Y-100249930D02*
X135008258Y-99741930D01*
X134814734Y-99741930D01*
X134766353Y-99766120D01*
X134742162Y-99790310D01*
X134717972Y-99838691D01*
X134717972Y-99911263D01*
X134742162Y-99959644D01*
X134766353Y-99983834D01*
X134814734Y-100008025D01*
X135008258Y-100008025D01*
X134524448Y-99790310D02*
X134500258Y-99766120D01*
X134451877Y-99741930D01*
X134330924Y-99741930D01*
X134282543Y-99766120D01*
X134258353Y-99790310D01*
X134234162Y-99838691D01*
X134234162Y-99887072D01*
X134258353Y-99959644D01*
X134548639Y-100249930D01*
X134234162Y-100249930D01*
X134064829Y-99741930D02*
X133726162Y-99741930D01*
X133943876Y-100249930D01*
X135070790Y-111044808D02*
X134828885Y-110875475D01*
X135070790Y-110754522D02*
X134562790Y-110754522D01*
X134562790Y-110948046D01*
X134586980Y-110996427D01*
X134611170Y-111020618D01*
X134659551Y-111044808D01*
X134732123Y-111044808D01*
X134780504Y-111020618D01*
X134804694Y-110996427D01*
X134828885Y-110948046D01*
X134828885Y-110754522D01*
X134611170Y-111238332D02*
X134586980Y-111262522D01*
X134562790Y-111310903D01*
X134562790Y-111431856D01*
X134586980Y-111480237D01*
X134611170Y-111504427D01*
X134659551Y-111528618D01*
X134707932Y-111528618D01*
X134780504Y-111504427D01*
X135070790Y-111214141D01*
X135070790Y-111528618D01*
X134780504Y-111818904D02*
X134756313Y-111770523D01*
X134732123Y-111746332D01*
X134683742Y-111722142D01*
X134659551Y-111722142D01*
X134611170Y-111746332D01*
X134586980Y-111770523D01*
X134562790Y-111818904D01*
X134562790Y-111915666D01*
X134586980Y-111964047D01*
X134611170Y-111988237D01*
X134659551Y-112012428D01*
X134683742Y-112012428D01*
X134732123Y-111988237D01*
X134756313Y-111964047D01*
X134780504Y-111915666D01*
X134780504Y-111818904D01*
X134804694Y-111770523D01*
X134828885Y-111746332D01*
X134877266Y-111722142D01*
X134974028Y-111722142D01*
X135022409Y-111746332D01*
X135046599Y-111770523D01*
X135070790Y-111818904D01*
X135070790Y-111915666D01*
X135046599Y-111964047D01*
X135022409Y-111988237D01*
X134974028Y-112012428D01*
X134877266Y-112012428D01*
X134828885Y-111988237D01*
X134804694Y-111964047D01*
X134780504Y-111915666D01*
X143048930Y-114570933D02*
X142807025Y-114401600D01*
X143048930Y-114280647D02*
X142540930Y-114280647D01*
X142540930Y-114474171D01*
X142565120Y-114522552D01*
X142589310Y-114546743D01*
X142637691Y-114570933D01*
X142710263Y-114570933D01*
X142758644Y-114546743D01*
X142782834Y-114522552D01*
X142807025Y-114474171D01*
X142807025Y-114280647D01*
X143048930Y-115054743D02*
X143048930Y-114764457D01*
X143048930Y-114909600D02*
X142540930Y-114909600D01*
X142613501Y-114861219D01*
X142661882Y-114812838D01*
X142686072Y-114764457D01*
X141763690Y-114509973D02*
X141521785Y-114340640D01*
X141763690Y-114219687D02*
X141255690Y-114219687D01*
X141255690Y-114413211D01*
X141279880Y-114461592D01*
X141304070Y-114485783D01*
X141352451Y-114509973D01*
X141425023Y-114509973D01*
X141473404Y-114485783D01*
X141497594Y-114461592D01*
X141521785Y-114413211D01*
X141521785Y-114219687D01*
X141304070Y-114703497D02*
X141279880Y-114727687D01*
X141255690Y-114776068D01*
X141255690Y-114897021D01*
X141279880Y-114945402D01*
X141304070Y-114969592D01*
X141352451Y-114993783D01*
X141400832Y-114993783D01*
X141473404Y-114969592D01*
X141763690Y-114679306D01*
X141763690Y-114993783D01*
M02*
