G04 #@! TF.FileFunction,Soldermask,Top*
%FSLAX46Y46*%
G04 Gerber Fmt 4.6, Leading zero omitted, Abs format (unit mm)*
G04 Created by KiCad (PCBNEW 4.0.6) date 01/21/18 22:34:32*
%MOMM*%
%LPD*%
G01*
G04 APERTURE LIST*
%ADD10C,0.100000*%
%ADD11R,0.752400X0.652400*%
%ADD12R,0.652400X0.752400*%
%ADD13C,1.676400*%
%ADD14R,1.652400X0.952400*%
%ADD15R,0.952400X1.652400*%
%ADD16R,1.252400X1.252400*%
%ADD17R,0.652400X1.052400*%
%ADD18C,0.852400*%
%ADD19C,1.052400*%
%ADD20R,0.552400X0.752400*%
%ADD21R,1.152400X1.202400*%
%ADD22R,1.202400X2.352400*%
%ADD23R,0.852400X0.752400*%
%ADD24R,0.752400X0.552400*%
%ADD25R,1.200000X1.200000*%
%ADD26R,0.700000X1.300000*%
%ADD27R,0.752400X0.852400*%
%ADD28R,1.212400X0.802400*%
%ADD29R,1.402400X1.152400*%
%ADD30R,0.685800X0.452400*%
%ADD31R,0.952400X0.902400*%
%ADD32R,0.452400X0.685800*%
G04 APERTURE END LIST*
D10*
D11*
X151076840Y-114589560D03*
X149976840Y-114589560D03*
D12*
X156057600Y-106485600D03*
X156057600Y-107585600D03*
D10*
G36*
X153836658Y-105887951D02*
X153552118Y-106172491D01*
X152949380Y-105569753D01*
X153233920Y-105285213D01*
X153836658Y-105887951D01*
X153836658Y-105887951D01*
G37*
G36*
X154190212Y-105534398D02*
X153905672Y-105818938D01*
X153302934Y-105216200D01*
X153587474Y-104931660D01*
X154190212Y-105534398D01*
X154190212Y-105534398D01*
G37*
G36*
X154543765Y-105180844D02*
X154259225Y-105465384D01*
X153656487Y-104862646D01*
X153941027Y-104578106D01*
X154543765Y-105180844D01*
X154543765Y-105180844D01*
G37*
G36*
X154897319Y-104827291D02*
X154612779Y-105111831D01*
X154010041Y-104509093D01*
X154294581Y-104224553D01*
X154897319Y-104827291D01*
X154897319Y-104827291D01*
G37*
G36*
X155250872Y-104473738D02*
X154966332Y-104758278D01*
X154363594Y-104155540D01*
X154648134Y-103871000D01*
X155250872Y-104473738D01*
X155250872Y-104473738D01*
G37*
G36*
X155604425Y-104120184D02*
X155319885Y-104404724D01*
X154717147Y-103801986D01*
X155001687Y-103517446D01*
X155604425Y-104120184D01*
X155604425Y-104120184D01*
G37*
G36*
X155957979Y-103766631D02*
X155673439Y-104051171D01*
X155070701Y-103448433D01*
X155355241Y-103163893D01*
X155957979Y-103766631D01*
X155957979Y-103766631D01*
G37*
G36*
X156311532Y-103413077D02*
X156026992Y-103697617D01*
X155424254Y-103094879D01*
X155708794Y-102810339D01*
X156311532Y-103413077D01*
X156311532Y-103413077D01*
G37*
G36*
X156026992Y-101891101D02*
X156311532Y-102175641D01*
X155708794Y-102778379D01*
X155424254Y-102493839D01*
X156026992Y-101891101D01*
X156026992Y-101891101D01*
G37*
G36*
X155673439Y-101537547D02*
X155957979Y-101822087D01*
X155355241Y-102424825D01*
X155070701Y-102140285D01*
X155673439Y-101537547D01*
X155673439Y-101537547D01*
G37*
G36*
X155319885Y-101183994D02*
X155604425Y-101468534D01*
X155001687Y-102071272D01*
X154717147Y-101786732D01*
X155319885Y-101183994D01*
X155319885Y-101183994D01*
G37*
G36*
X154966332Y-100830440D02*
X155250872Y-101114980D01*
X154648134Y-101717718D01*
X154363594Y-101433178D01*
X154966332Y-100830440D01*
X154966332Y-100830440D01*
G37*
G36*
X154612779Y-100476887D02*
X154897319Y-100761427D01*
X154294581Y-101364165D01*
X154010041Y-101079625D01*
X154612779Y-100476887D01*
X154612779Y-100476887D01*
G37*
G36*
X154259225Y-100123334D02*
X154543765Y-100407874D01*
X153941027Y-101010612D01*
X153656487Y-100726072D01*
X154259225Y-100123334D01*
X154259225Y-100123334D01*
G37*
G36*
X153905672Y-99769780D02*
X154190212Y-100054320D01*
X153587474Y-100657058D01*
X153302934Y-100372518D01*
X153905672Y-99769780D01*
X153905672Y-99769780D01*
G37*
G36*
X153552118Y-99416227D02*
X153836658Y-99700767D01*
X153233920Y-100303505D01*
X152949380Y-100018965D01*
X153552118Y-99416227D01*
X153552118Y-99416227D01*
G37*
G36*
X152917420Y-100018965D02*
X152632880Y-100303505D01*
X152030142Y-99700767D01*
X152314682Y-99416227D01*
X152917420Y-100018965D01*
X152917420Y-100018965D01*
G37*
G36*
X152563866Y-100372518D02*
X152279326Y-100657058D01*
X151676588Y-100054320D01*
X151961128Y-99769780D01*
X152563866Y-100372518D01*
X152563866Y-100372518D01*
G37*
G36*
X152210313Y-100726072D02*
X151925773Y-101010612D01*
X151323035Y-100407874D01*
X151607575Y-100123334D01*
X152210313Y-100726072D01*
X152210313Y-100726072D01*
G37*
G36*
X151856759Y-101079625D02*
X151572219Y-101364165D01*
X150969481Y-100761427D01*
X151254021Y-100476887D01*
X151856759Y-101079625D01*
X151856759Y-101079625D01*
G37*
G36*
X151503206Y-101433178D02*
X151218666Y-101717718D01*
X150615928Y-101114980D01*
X150900468Y-100830440D01*
X151503206Y-101433178D01*
X151503206Y-101433178D01*
G37*
G36*
X151149653Y-101786732D02*
X150865113Y-102071272D01*
X150262375Y-101468534D01*
X150546915Y-101183994D01*
X151149653Y-101786732D01*
X151149653Y-101786732D01*
G37*
G36*
X150796099Y-102140285D02*
X150511559Y-102424825D01*
X149908821Y-101822087D01*
X150193361Y-101537547D01*
X150796099Y-102140285D01*
X150796099Y-102140285D01*
G37*
G36*
X150442546Y-102493839D02*
X150158006Y-102778379D01*
X149555268Y-102175641D01*
X149839808Y-101891101D01*
X150442546Y-102493839D01*
X150442546Y-102493839D01*
G37*
G36*
X150158006Y-102810339D02*
X150442546Y-103094879D01*
X149839808Y-103697617D01*
X149555268Y-103413077D01*
X150158006Y-102810339D01*
X150158006Y-102810339D01*
G37*
G36*
X150511559Y-103163893D02*
X150796099Y-103448433D01*
X150193361Y-104051171D01*
X149908821Y-103766631D01*
X150511559Y-103163893D01*
X150511559Y-103163893D01*
G37*
G36*
X150865113Y-103517446D02*
X151149653Y-103801986D01*
X150546915Y-104404724D01*
X150262375Y-104120184D01*
X150865113Y-103517446D01*
X150865113Y-103517446D01*
G37*
G36*
X151218666Y-103871000D02*
X151503206Y-104155540D01*
X150900468Y-104758278D01*
X150615928Y-104473738D01*
X151218666Y-103871000D01*
X151218666Y-103871000D01*
G37*
G36*
X151572219Y-104224553D02*
X151856759Y-104509093D01*
X151254021Y-105111831D01*
X150969481Y-104827291D01*
X151572219Y-104224553D01*
X151572219Y-104224553D01*
G37*
G36*
X151925773Y-104578106D02*
X152210313Y-104862646D01*
X151607575Y-105465384D01*
X151323035Y-105180844D01*
X151925773Y-104578106D01*
X151925773Y-104578106D01*
G37*
G36*
X152279326Y-104931660D02*
X152563866Y-105216200D01*
X151961128Y-105818938D01*
X151676588Y-105534398D01*
X152279326Y-104931660D01*
X152279326Y-104931660D01*
G37*
G36*
X152632880Y-105285213D02*
X152917420Y-105569753D01*
X152314682Y-106172491D01*
X152030142Y-105887951D01*
X152632880Y-105285213D01*
X152632880Y-105285213D01*
G37*
G36*
X154260922Y-101574600D02*
X152933400Y-102902122D01*
X151605878Y-101574600D01*
X152933400Y-100247078D01*
X154260922Y-101574600D01*
X154260922Y-101574600D01*
G37*
G36*
X153041163Y-102794359D02*
X151713641Y-104121881D01*
X150386119Y-102794359D01*
X151713641Y-101466837D01*
X153041163Y-102794359D01*
X153041163Y-102794359D01*
G37*
G36*
X155480681Y-102794359D02*
X154153159Y-104121881D01*
X152825637Y-102794359D01*
X154153159Y-101466837D01*
X155480681Y-102794359D01*
X155480681Y-102794359D01*
G37*
G36*
X154260922Y-104014118D02*
X152933400Y-105341640D01*
X151605878Y-104014118D01*
X152933400Y-102686596D01*
X154260922Y-104014118D01*
X154260922Y-104014118D01*
G37*
D13*
X157480000Y-116840000D03*
X157480000Y-114300000D03*
X157480000Y-111760000D03*
X157480000Y-109220000D03*
X157480000Y-106680000D03*
X132080000Y-116840000D03*
X134620000Y-119380000D03*
X137160000Y-119380000D03*
X139700000Y-119380000D03*
X142240000Y-119380000D03*
X144780000Y-119380000D03*
X147320000Y-119380000D03*
X149860000Y-119380000D03*
X152400000Y-119380000D03*
X154940000Y-119380000D03*
X157480000Y-88900000D03*
X132080000Y-88900000D03*
X157480000Y-104140000D03*
X157480000Y-101600000D03*
X157480000Y-99060000D03*
X157480000Y-96520000D03*
X157480000Y-93980000D03*
X157480000Y-91440000D03*
D14*
X133385000Y-93521000D03*
X133385000Y-94621000D03*
X133385000Y-95721000D03*
X133385000Y-96821000D03*
X133385000Y-97921000D03*
X133385000Y-99021000D03*
X133385000Y-100121000D03*
X133385000Y-101221000D03*
X133385000Y-102321000D03*
X133385000Y-103421000D03*
X133385000Y-104521000D03*
X133385000Y-105621000D03*
X133385000Y-106721000D03*
X133385000Y-107821000D03*
X133385000Y-108921000D03*
X133385000Y-110021000D03*
X133385000Y-111121000D03*
X133385000Y-112221000D03*
X133385000Y-113321000D03*
X133385000Y-114421000D03*
X133385000Y-115521000D03*
D15*
X134835000Y-116471000D03*
X135935000Y-116471000D03*
X137035000Y-116471000D03*
X138135000Y-116471000D03*
X139235000Y-116471000D03*
X140335000Y-116471000D03*
X141435000Y-116471000D03*
X142535000Y-116471000D03*
X143635000Y-116471000D03*
X144735000Y-116471000D03*
X145835000Y-116471000D03*
D14*
X147285000Y-115521000D03*
X147285000Y-114421000D03*
X147285000Y-113321000D03*
X147285000Y-112221000D03*
X147285000Y-111121000D03*
X147285000Y-110021000D03*
X147285000Y-108921000D03*
X147285000Y-107821000D03*
X147285000Y-106721000D03*
X147285000Y-105621000D03*
X147285000Y-104521000D03*
X147285000Y-103421000D03*
X147285000Y-102321000D03*
X147285000Y-101221000D03*
X147285000Y-100121000D03*
X147285000Y-99021000D03*
X147285000Y-97921000D03*
X147285000Y-96821000D03*
X147285000Y-95721000D03*
X147285000Y-94621000D03*
X147285000Y-93521000D03*
D15*
X145835000Y-92571000D03*
X144735000Y-92571000D03*
X143635000Y-92571000D03*
X142535000Y-92571000D03*
X141435000Y-92571000D03*
X140335000Y-92571000D03*
X139235000Y-92571000D03*
X138135000Y-92571000D03*
X137035000Y-92571000D03*
X135935000Y-92571000D03*
X134835000Y-92571000D03*
D16*
X135085000Y-94271000D03*
X137185000Y-94271000D03*
X139285000Y-94271000D03*
X141385000Y-94271000D03*
X143485000Y-94271000D03*
X145585000Y-94271000D03*
X135085000Y-96071000D03*
X137185000Y-96071000D03*
X139285000Y-96071000D03*
X141385000Y-96071000D03*
X143485000Y-96071000D03*
X145585000Y-96071000D03*
X135085000Y-97871000D03*
X145585000Y-97871000D03*
X135085000Y-101471000D03*
X145585000Y-101471000D03*
X135085000Y-107571000D03*
X145585000Y-107571000D03*
X135085000Y-111171000D03*
X145585000Y-111171000D03*
X135085000Y-112771000D03*
X137185000Y-112771000D03*
X139285000Y-112771000D03*
X141385000Y-112771000D03*
X143485000Y-112771000D03*
X145585000Y-112771000D03*
X135085000Y-114571000D03*
X137035000Y-114571000D03*
X139185000Y-114571000D03*
X141385000Y-114571000D03*
X143485000Y-114571000D03*
X145585000Y-114571000D03*
D17*
X156305380Y-94782640D03*
X154805380Y-94782640D03*
D18*
X150825200Y-88313200D03*
D19*
X142525200Y-97313200D03*
D20*
X138912600Y-118211600D03*
X138012600Y-118211600D03*
X135186000Y-90868500D03*
X136086000Y-90868500D03*
X135186000Y-89725500D03*
X136086000Y-89725500D03*
X133408000Y-90868500D03*
X134308000Y-90868500D03*
D11*
X134281000Y-89725500D03*
X133181000Y-89725500D03*
D21*
X143662400Y-90221800D03*
D22*
X145137400Y-88696800D03*
D21*
X143662400Y-87171800D03*
D22*
X142187400Y-88696800D03*
D12*
X149021800Y-93691800D03*
X149021800Y-92591800D03*
X150114000Y-94674600D03*
X150114000Y-95774600D03*
X149047200Y-94674600D03*
X149047200Y-95774600D03*
X150114000Y-93691800D03*
X150114000Y-92591800D03*
D23*
X133593840Y-87114380D03*
X133593840Y-88214380D03*
X136070340Y-87063400D03*
X136070340Y-88163400D03*
D24*
X134749540Y-88491060D03*
X134749540Y-87591060D03*
D20*
X149725800Y-108204000D03*
X148825800Y-108204000D03*
D24*
X148971000Y-113969800D03*
X148971000Y-113069800D03*
D20*
X133673000Y-118237000D03*
X132773000Y-118237000D03*
D24*
X137358120Y-88562180D03*
X137358120Y-87662180D03*
D25*
X153741500Y-90797000D03*
D26*
X152336500Y-93197000D03*
X153606500Y-93197000D03*
X154876500Y-93197000D03*
X156146500Y-93197000D03*
X156146500Y-87397000D03*
X154876500Y-87397000D03*
X153606500Y-87397000D03*
X152336500Y-87397000D03*
D25*
X153741500Y-89797000D03*
X154741500Y-90797000D03*
X154741500Y-89797000D03*
D24*
X150723600Y-108958800D03*
X150723600Y-108058800D03*
X150901400Y-111894200D03*
X150901400Y-112794200D03*
D12*
X156133800Y-115840600D03*
X156133800Y-114740600D03*
D10*
G36*
X154834981Y-99161684D02*
X154373664Y-99623001D01*
X153841637Y-99090974D01*
X154302954Y-98629657D01*
X154834981Y-99161684D01*
X154834981Y-99161684D01*
G37*
G36*
X154057163Y-98383866D02*
X153595846Y-98845183D01*
X153063819Y-98313156D01*
X153525136Y-97851839D01*
X154057163Y-98383866D01*
X154057163Y-98383866D01*
G37*
D27*
X151781600Y-117068600D03*
X150681600Y-117068600D03*
D20*
X136263800Y-118186200D03*
X135363800Y-118186200D03*
X149776600Y-117068600D03*
X148876600Y-117068600D03*
D28*
X154803200Y-115641200D03*
X154803200Y-114691200D03*
X154803200Y-113741200D03*
X152603200Y-113741200D03*
X152603200Y-115641200D03*
D20*
X146500000Y-118211600D03*
X145600000Y-118211600D03*
X149040000Y-118211600D03*
X148140000Y-118211600D03*
D29*
X151511000Y-94834200D03*
X151511000Y-96834200D03*
X153365200Y-94808800D03*
X153365200Y-96808800D03*
D30*
X148954000Y-110532800D03*
X148954000Y-109532800D03*
X150114000Y-110032800D03*
X148924400Y-112336200D03*
X148924400Y-111336200D03*
X150084400Y-111836200D03*
D31*
X149582440Y-115811300D03*
X151082440Y-115811300D03*
X152946100Y-117195600D03*
X154446100Y-117195600D03*
D32*
X148953600Y-105693600D03*
X149953600Y-105693600D03*
X149453600Y-106853600D03*
D24*
X149047200Y-103829700D03*
X149047200Y-104729700D03*
D20*
X154221600Y-111658400D03*
X153321600Y-111658400D03*
D10*
G36*
X151677123Y-97698007D02*
X152491993Y-98512877D01*
X152030677Y-98974193D01*
X151215807Y-98159323D01*
X151677123Y-97698007D01*
X151677123Y-97698007D01*
G37*
G36*
X150899305Y-98475825D02*
X151714175Y-99290695D01*
X151252859Y-99752011D01*
X150437989Y-98937141D01*
X150899305Y-98475825D01*
X150899305Y-98475825D01*
G37*
M02*
