G04 #@! TF.FileFunction,Copper,L3,Inr,Signal*
%FSLAX46Y46*%
G04 Gerber Fmt 4.6, Leading zero omitted, Abs format (unit mm)*
G04 Created by KiCad (PCBNEW 4.0.6) date 01/21/18 22:34:32*
%MOMM*%
%LPD*%
G01*
G04 APERTURE LIST*
%ADD10C,0.100000*%
%ADD11C,0.599440*%
%ADD12C,1.524000*%
%ADD13C,0.600000*%
%ADD14C,0.127000*%
%ADD15C,0.254000*%
G04 APERTURE END LIST*
D10*
D11*
X149583140Y-91462860D03*
X151020780Y-91749880D03*
X144820640Y-109245400D03*
X148021040Y-117081300D03*
X146941540Y-116512340D03*
X152001220Y-118148100D03*
X156248100Y-98851720D03*
X152593040Y-108973620D03*
X155625800Y-108473240D03*
X156065220Y-109367320D03*
X155321000Y-110517940D03*
X155938220Y-111445040D03*
X151030940Y-118856760D03*
X143070580Y-117718840D03*
X139895580Y-117777260D03*
X144279620Y-118264940D03*
X133639560Y-116560600D03*
X141516100Y-110385860D03*
X140096240Y-109926120D03*
X138506200Y-110002320D03*
X139674600Y-110980220D03*
X140728700Y-111594900D03*
X142781020Y-111612680D03*
X144236440Y-111325660D03*
X143451580Y-110157260D03*
X142013940Y-108892340D03*
X140192760Y-108585000D03*
X138869420Y-108872020D03*
X140959840Y-107627420D03*
X139235180Y-107261660D03*
X138046460Y-108049060D03*
X137452100Y-109197140D03*
X136723120Y-108066840D03*
X137241280Y-106878120D03*
X139176760Y-105920540D03*
X138102340Y-105516680D03*
X136321800Y-105824020D03*
X138257280Y-104330500D03*
X136664700Y-104673400D03*
X135361680Y-105039160D03*
X135267700Y-103774240D03*
X138026140Y-102969060D03*
X143548100Y-106456480D03*
X145923000Y-105920540D03*
X144678400Y-105288080D03*
X143047720Y-105422700D03*
X141610080Y-104579420D03*
X140901420Y-102834440D03*
X142646400Y-103428800D03*
X144084040Y-103830120D03*
X145656300Y-104251760D03*
X145483580Y-103121460D03*
X144198340Y-102316280D03*
X142684500Y-101627940D03*
X140766800Y-101071680D03*
X138236960Y-101760020D03*
X137873740Y-100495100D03*
X137949940Y-99174300D03*
X138198860Y-98023680D03*
X137355580Y-97391220D03*
X140538200Y-99192080D03*
X142090140Y-99651820D03*
X143586200Y-100342700D03*
X145656300Y-99806760D03*
X144640300Y-99039680D03*
X143009620Y-98425000D03*
X141226540Y-97965260D03*
X147360640Y-91965780D03*
X147688300Y-90949780D03*
X150256240Y-89646760D03*
X149755860Y-87810340D03*
X148610320Y-87802720D03*
X149067520Y-89646760D03*
X147726400Y-89626440D03*
X142242540Y-90182700D03*
X140441680Y-86847680D03*
X144322800Y-97332800D03*
X142595600Y-95148400D03*
X144475200Y-94284800D03*
X144526000Y-95808800D03*
X146405600Y-90373200D03*
X145745200Y-91236800D03*
X141274800Y-91389200D03*
X142646400Y-91084400D03*
X141122400Y-89204800D03*
X141274800Y-87325200D03*
X143306800Y-89001600D03*
X142595600Y-87071200D03*
X144678400Y-87071200D03*
X146100800Y-89357200D03*
X145389600Y-90220800D03*
D12*
X157480000Y-116840000D03*
X157480000Y-114300000D03*
X157480000Y-111760000D03*
X157480000Y-109220000D03*
X157480000Y-106680000D03*
X132080000Y-116840000D03*
X134620000Y-119380000D03*
X137160000Y-119380000D03*
X139700000Y-119380000D03*
X142240000Y-119380000D03*
X144780000Y-119380000D03*
X147320000Y-119380000D03*
X149860000Y-119380000D03*
X152400000Y-119380000D03*
X154940000Y-119380000D03*
X157480000Y-88900000D03*
X132080000Y-88900000D03*
X157480000Y-104140000D03*
X157480000Y-101600000D03*
X157480000Y-99060000D03*
X157480000Y-96520000D03*
X157480000Y-93980000D03*
X157480000Y-91440000D03*
D11*
X139547600Y-87503000D03*
X144576800Y-90982800D03*
D13*
X137688769Y-90373658D03*
X153026226Y-99441232D03*
X132537200Y-90220800D03*
X153364846Y-114568244D03*
X136657500Y-103220100D03*
X156375100Y-102844600D03*
X137337800Y-91393998D03*
X138176000Y-96469200D03*
X152577800Y-91211400D03*
X156946600Y-113004600D03*
X149701086Y-105012376D03*
X134634645Y-90268153D03*
X136055100Y-113639600D03*
X150334211Y-86874226D03*
X151598198Y-90017600D03*
X144526000Y-107137200D03*
X154432000Y-91821000D03*
X148742400Y-107315000D03*
X154838400Y-88442800D03*
X145846800Y-109956600D03*
X153695400Y-88696800D03*
X145719800Y-108635800D03*
X134594600Y-106578400D03*
X149377400Y-111887000D03*
X134831100Y-105832373D03*
X148530597Y-110080009D03*
X132715000Y-87706200D03*
X134747000Y-110193998D03*
X140970000Y-118625202D03*
X136502140Y-88920318D03*
X136020611Y-115304398D03*
X140970000Y-117822002D03*
X135272367Y-89147327D03*
X134570069Y-109165256D03*
X134825156Y-99034600D03*
X134825156Y-100493998D03*
X134848600Y-102514400D03*
X134900958Y-99770949D03*
X135990798Y-111984910D03*
X152148250Y-111983387D03*
X133680200Y-117551200D03*
X154868981Y-105256055D03*
X155701358Y-105208945D03*
X155909989Y-104512512D03*
X150570523Y-99952220D03*
X150493233Y-100675112D03*
X149712680Y-100904040D03*
X149239164Y-102233648D03*
X149257714Y-101506873D03*
X151610619Y-106905045D03*
X134620000Y-117805200D03*
X149718660Y-104252989D03*
X137388600Y-117906800D03*
X150781352Y-106345469D03*
X151053800Y-111226600D03*
X155752808Y-100939600D03*
X154889200Y-99771200D03*
X155614320Y-99718796D03*
X156487712Y-95787723D03*
X155727400Y-94818200D03*
X152946100Y-97735802D03*
X152857200Y-110642400D03*
X152617610Y-107543600D03*
X150261610Y-107315000D03*
X149606000Y-118211600D03*
X150952200Y-113665000D03*
X152603200Y-114706400D03*
X148462012Y-103782515D03*
X134165340Y-89032080D03*
X148488400Y-109067600D03*
X148461765Y-111806806D03*
X136334500Y-97345500D03*
X154547481Y-105931590D03*
X155143200Y-111658400D03*
X149885400Y-99204780D03*
D14*
X157480000Y-116840000D02*
X156845000Y-117475000D01*
X156667200Y-117652800D02*
X156845000Y-117475000D01*
X157480000Y-88900000D02*
X156286200Y-88900000D01*
X156286200Y-88900000D02*
X156108400Y-88722200D01*
X132080000Y-88900000D02*
X133477000Y-88900000D01*
X133477000Y-88900000D02*
X133629400Y-89052400D01*
D15*
G36*
X149780307Y-86763545D02*
X149780115Y-86983940D01*
X149864278Y-87187632D01*
X150019985Y-87343611D01*
X150223530Y-87428130D01*
X150443925Y-87428322D01*
X150647617Y-87344159D01*
X150803596Y-87188452D01*
X150888115Y-86984907D01*
X150888307Y-86764512D01*
X150857106Y-86689000D01*
X157151000Y-86689000D01*
X157151000Y-90476627D01*
X156905234Y-90578175D01*
X156619179Y-90863731D01*
X156464176Y-91237018D01*
X156463824Y-91641208D01*
X156618175Y-92014766D01*
X156903731Y-92300821D01*
X157151000Y-92403497D01*
X157151000Y-93016627D01*
X156905234Y-93118175D01*
X156619179Y-93403731D01*
X156464176Y-93777018D01*
X156463824Y-94181208D01*
X156618175Y-94554766D01*
X156903731Y-94840821D01*
X157151000Y-94943497D01*
X157151000Y-95556627D01*
X157014891Y-95612865D01*
X156957645Y-95474317D01*
X156801938Y-95318338D01*
X156598393Y-95233819D01*
X156377998Y-95233627D01*
X156174306Y-95317790D01*
X156018327Y-95473497D01*
X155933808Y-95677042D01*
X155933616Y-95897437D01*
X156017779Y-96101129D01*
X156173486Y-96257108D01*
X156377031Y-96341627D01*
X156464155Y-96341703D01*
X156463824Y-96721208D01*
X156618175Y-97094766D01*
X156903731Y-97380821D01*
X157151000Y-97483497D01*
X157151000Y-98096627D01*
X156905234Y-98198175D01*
X156619179Y-98483731D01*
X156464176Y-98857018D01*
X156463824Y-99261208D01*
X156618175Y-99634766D01*
X156903731Y-99920821D01*
X157151000Y-100023497D01*
X157151000Y-100636627D01*
X156905234Y-100738175D01*
X156619179Y-101023731D01*
X156464176Y-101397018D01*
X156463824Y-101801208D01*
X156618175Y-102174766D01*
X156903731Y-102460821D01*
X157151000Y-102563497D01*
X157151000Y-103176627D01*
X156905234Y-103278175D01*
X156619179Y-103563731D01*
X156464176Y-103937018D01*
X156463824Y-104341208D01*
X156618175Y-104714766D01*
X156903731Y-105000821D01*
X157151000Y-105103497D01*
X157151000Y-105716627D01*
X156905234Y-105818175D01*
X156619179Y-106103731D01*
X156464176Y-106477018D01*
X156463824Y-106881208D01*
X156618175Y-107254766D01*
X156903731Y-107540821D01*
X157151000Y-107643497D01*
X157151000Y-108256627D01*
X156905234Y-108358175D01*
X156619179Y-108643731D01*
X156464176Y-109017018D01*
X156463824Y-109421208D01*
X156618175Y-109794766D01*
X156903731Y-110080821D01*
X157151000Y-110183497D01*
X157151000Y-110796627D01*
X156905234Y-110898175D01*
X156619179Y-111183731D01*
X156464176Y-111557018D01*
X156463824Y-111961208D01*
X156618175Y-112334766D01*
X156903731Y-112620821D01*
X157151000Y-112723497D01*
X157151000Y-113336627D01*
X156905234Y-113438175D01*
X156619179Y-113723731D01*
X156464176Y-114097018D01*
X156463824Y-114501208D01*
X156618175Y-114874766D01*
X156903731Y-115160821D01*
X157151000Y-115263497D01*
X157151000Y-119051000D01*
X155903373Y-119051000D01*
X155801825Y-118805234D01*
X155516269Y-118519179D01*
X155142982Y-118364176D01*
X154738792Y-118363824D01*
X154365234Y-118518175D01*
X154079179Y-118803731D01*
X153976503Y-119051000D01*
X153363373Y-119051000D01*
X153261825Y-118805234D01*
X152976269Y-118519179D01*
X152602982Y-118364176D01*
X152198792Y-118363824D01*
X151825234Y-118518175D01*
X151539179Y-118803731D01*
X151436503Y-119051000D01*
X150823373Y-119051000D01*
X150721825Y-118805234D01*
X150436269Y-118519179D01*
X150130812Y-118392342D01*
X150159904Y-118322281D01*
X150160096Y-118101886D01*
X150075933Y-117898194D01*
X149920226Y-117742215D01*
X149716681Y-117657696D01*
X149496286Y-117657504D01*
X149292594Y-117741667D01*
X149136615Y-117897374D01*
X149052096Y-118100919D01*
X149051904Y-118321314D01*
X149136067Y-118525006D01*
X149207105Y-118596168D01*
X148999179Y-118803731D01*
X148896503Y-119051000D01*
X148283373Y-119051000D01*
X148181825Y-118805234D01*
X147896269Y-118519179D01*
X147522982Y-118364176D01*
X147118792Y-118363824D01*
X146745234Y-118518175D01*
X146459179Y-118803731D01*
X146356503Y-119051000D01*
X145743373Y-119051000D01*
X145641825Y-118805234D01*
X145356269Y-118519179D01*
X144982982Y-118364176D01*
X144578792Y-118363824D01*
X144205234Y-118518175D01*
X143919179Y-118803731D01*
X143816503Y-119051000D01*
X143203373Y-119051000D01*
X143101825Y-118805234D01*
X142816269Y-118519179D01*
X142442982Y-118364176D01*
X142038792Y-118363824D01*
X141665234Y-118518175D01*
X141523971Y-118659192D01*
X141524096Y-118515488D01*
X141439933Y-118311796D01*
X141351876Y-118223585D01*
X141439385Y-118136228D01*
X141523904Y-117932683D01*
X141524096Y-117712288D01*
X141439933Y-117508596D01*
X141284226Y-117352617D01*
X141080681Y-117268098D01*
X140860286Y-117267906D01*
X140656594Y-117352069D01*
X140500615Y-117507776D01*
X140416096Y-117711321D01*
X140415904Y-117931716D01*
X140500067Y-118135408D01*
X140588124Y-118223619D01*
X140500615Y-118310976D01*
X140416096Y-118514521D01*
X140415970Y-118659124D01*
X140276269Y-118519179D01*
X139902982Y-118364176D01*
X139498792Y-118363824D01*
X139125234Y-118518175D01*
X138839179Y-118803731D01*
X138736503Y-119051000D01*
X138123373Y-119051000D01*
X138021825Y-118805234D01*
X137736269Y-118519179D01*
X137547232Y-118440684D01*
X137702006Y-118376733D01*
X137857985Y-118221026D01*
X137942504Y-118017481D01*
X137942696Y-117797086D01*
X137858533Y-117593394D01*
X137702826Y-117437415D01*
X137499281Y-117352896D01*
X137278886Y-117352704D01*
X137075194Y-117436867D01*
X136919215Y-117592574D01*
X136834696Y-117796119D01*
X136834504Y-118016514D01*
X136918667Y-118220206D01*
X137062124Y-118363914D01*
X136958792Y-118363824D01*
X136585234Y-118518175D01*
X136299179Y-118803731D01*
X136196503Y-119051000D01*
X135583373Y-119051000D01*
X135481825Y-118805234D01*
X135196269Y-118519179D01*
X134822982Y-118364176D01*
X134418792Y-118363824D01*
X134045234Y-118518175D01*
X133759179Y-118803731D01*
X133656503Y-119051000D01*
X132409000Y-119051000D01*
X132409000Y-117660914D01*
X133126104Y-117660914D01*
X133210267Y-117864606D01*
X133365974Y-118020585D01*
X133569519Y-118105104D01*
X133789914Y-118105296D01*
X133993606Y-118021133D01*
X134075864Y-117939019D01*
X134150067Y-118118606D01*
X134305774Y-118274585D01*
X134509319Y-118359104D01*
X134729714Y-118359296D01*
X134933406Y-118275133D01*
X135089385Y-118119426D01*
X135173904Y-117915881D01*
X135174096Y-117695486D01*
X135089933Y-117491794D01*
X134934226Y-117335815D01*
X134730681Y-117251296D01*
X134510286Y-117251104D01*
X134306594Y-117335267D01*
X134224336Y-117417381D01*
X134150133Y-117237794D01*
X133994426Y-117081815D01*
X133790881Y-116997296D01*
X133570486Y-116997104D01*
X133366794Y-117081267D01*
X133210815Y-117236974D01*
X133126296Y-117440519D01*
X133126104Y-117660914D01*
X132409000Y-117660914D01*
X132409000Y-115414112D01*
X135466515Y-115414112D01*
X135550678Y-115617804D01*
X135706385Y-115773783D01*
X135909930Y-115858302D01*
X136130325Y-115858494D01*
X136334017Y-115774331D01*
X136489996Y-115618624D01*
X136574515Y-115415079D01*
X136574707Y-115194684D01*
X136490544Y-114990992D01*
X136334837Y-114835013D01*
X136289324Y-114816114D01*
X152049104Y-114816114D01*
X152133267Y-115019806D01*
X152288974Y-115175785D01*
X152492519Y-115260304D01*
X152712914Y-115260496D01*
X152916606Y-115176333D01*
X153072585Y-115020626D01*
X153157104Y-114817081D01*
X153157296Y-114596686D01*
X153073133Y-114392994D01*
X152917426Y-114237015D01*
X152713881Y-114152496D01*
X152493486Y-114152304D01*
X152289794Y-114236467D01*
X152133815Y-114392174D01*
X152049296Y-114595719D01*
X152049104Y-114816114D01*
X136289324Y-114816114D01*
X136131292Y-114750494D01*
X135910897Y-114750302D01*
X135707205Y-114834465D01*
X135551226Y-114990172D01*
X135466707Y-115193717D01*
X135466515Y-115414112D01*
X132409000Y-115414112D01*
X132409000Y-113749314D01*
X135501004Y-113749314D01*
X135585167Y-113953006D01*
X135740874Y-114108985D01*
X135944419Y-114193504D01*
X136164814Y-114193696D01*
X136368506Y-114109533D01*
X136524485Y-113953826D01*
X136598858Y-113774714D01*
X150398104Y-113774714D01*
X150482267Y-113978406D01*
X150637974Y-114134385D01*
X150841519Y-114218904D01*
X151061914Y-114219096D01*
X151265606Y-114134933D01*
X151421585Y-113979226D01*
X151506104Y-113775681D01*
X151506296Y-113555286D01*
X151422133Y-113351594D01*
X151266426Y-113195615D01*
X151062881Y-113111096D01*
X150842486Y-113110904D01*
X150638794Y-113195067D01*
X150482815Y-113350774D01*
X150398296Y-113554319D01*
X150398104Y-113774714D01*
X136598858Y-113774714D01*
X136609004Y-113750281D01*
X136609196Y-113529886D01*
X136525033Y-113326194D01*
X136369326Y-113170215D01*
X136165781Y-113085696D01*
X135945386Y-113085504D01*
X135741694Y-113169667D01*
X135585715Y-113325374D01*
X135501196Y-113528919D01*
X135501004Y-113749314D01*
X132409000Y-113749314D01*
X132409000Y-112094624D01*
X135436702Y-112094624D01*
X135520865Y-112298316D01*
X135676572Y-112454295D01*
X135880117Y-112538814D01*
X136100512Y-112539006D01*
X136304204Y-112454843D01*
X136460183Y-112299136D01*
X136544702Y-112095591D01*
X136544858Y-111916520D01*
X147907669Y-111916520D01*
X147991832Y-112120212D01*
X148147539Y-112276191D01*
X148351084Y-112360710D01*
X148571479Y-112360902D01*
X148775171Y-112276739D01*
X148891164Y-112160949D01*
X148907467Y-112200406D01*
X149063174Y-112356385D01*
X149266719Y-112440904D01*
X149487114Y-112441096D01*
X149690806Y-112356933D01*
X149846785Y-112201226D01*
X149891682Y-112093101D01*
X151594154Y-112093101D01*
X151678317Y-112296793D01*
X151834024Y-112452772D01*
X152037569Y-112537291D01*
X152257964Y-112537483D01*
X152461656Y-112453320D01*
X152617635Y-112297613D01*
X152702154Y-112094068D01*
X152702346Y-111873673D01*
X152658731Y-111768114D01*
X154589104Y-111768114D01*
X154673267Y-111971806D01*
X154828974Y-112127785D01*
X155032519Y-112212304D01*
X155252914Y-112212496D01*
X155456606Y-112128333D01*
X155612585Y-111972626D01*
X155697104Y-111769081D01*
X155697296Y-111548686D01*
X155613133Y-111344994D01*
X155457426Y-111189015D01*
X155253881Y-111104496D01*
X155033486Y-111104304D01*
X154829794Y-111188467D01*
X154673815Y-111344174D01*
X154589296Y-111547719D01*
X154589104Y-111768114D01*
X152658731Y-111768114D01*
X152618183Y-111669981D01*
X152462476Y-111514002D01*
X152258931Y-111429483D01*
X152038536Y-111429291D01*
X151834844Y-111513454D01*
X151678865Y-111669161D01*
X151594346Y-111872706D01*
X151594154Y-112093101D01*
X149891682Y-112093101D01*
X149931304Y-111997681D01*
X149931496Y-111777286D01*
X149847333Y-111573594D01*
X149691626Y-111417615D01*
X149495831Y-111336314D01*
X150499704Y-111336314D01*
X150583867Y-111540006D01*
X150739574Y-111695985D01*
X150943119Y-111780504D01*
X151163514Y-111780696D01*
X151367206Y-111696533D01*
X151523185Y-111540826D01*
X151607704Y-111337281D01*
X151607896Y-111116886D01*
X151523733Y-110913194D01*
X151368026Y-110757215D01*
X151355742Y-110752114D01*
X152303104Y-110752114D01*
X152387267Y-110955806D01*
X152542974Y-111111785D01*
X152746519Y-111196304D01*
X152966914Y-111196496D01*
X153170606Y-111112333D01*
X153326585Y-110956626D01*
X153411104Y-110753081D01*
X153411296Y-110532686D01*
X153327133Y-110328994D01*
X153171426Y-110173015D01*
X152967881Y-110088496D01*
X152747486Y-110088304D01*
X152543794Y-110172467D01*
X152387815Y-110328174D01*
X152303296Y-110531719D01*
X152303104Y-110752114D01*
X151355742Y-110752114D01*
X151164481Y-110672696D01*
X150944086Y-110672504D01*
X150740394Y-110756667D01*
X150584415Y-110912374D01*
X150499896Y-111115919D01*
X150499704Y-111336314D01*
X149495831Y-111336314D01*
X149488081Y-111333096D01*
X149267686Y-111332904D01*
X149063994Y-111417067D01*
X148948001Y-111532857D01*
X148931698Y-111493400D01*
X148775991Y-111337421D01*
X148572446Y-111252902D01*
X148352051Y-111252710D01*
X148148359Y-111336873D01*
X147992380Y-111492580D01*
X147907861Y-111696125D01*
X147907669Y-111916520D01*
X136544858Y-111916520D01*
X136544894Y-111875196D01*
X136460731Y-111671504D01*
X136305024Y-111515525D01*
X136101479Y-111431006D01*
X135881084Y-111430814D01*
X135677392Y-111514977D01*
X135521413Y-111670684D01*
X135436894Y-111874229D01*
X135436702Y-112094624D01*
X132409000Y-112094624D01*
X132409000Y-109274970D01*
X134015973Y-109274970D01*
X134100136Y-109478662D01*
X134255843Y-109634641D01*
X134452444Y-109716277D01*
X134433594Y-109724065D01*
X134277615Y-109879772D01*
X134193096Y-110083317D01*
X134192904Y-110303712D01*
X134277067Y-110507404D01*
X134432774Y-110663383D01*
X134636319Y-110747902D01*
X134856714Y-110748094D01*
X135060406Y-110663931D01*
X135216385Y-110508224D01*
X135300904Y-110304679D01*
X135301096Y-110084284D01*
X135293672Y-110066314D01*
X145292704Y-110066314D01*
X145376867Y-110270006D01*
X145532574Y-110425985D01*
X145736119Y-110510504D01*
X145956514Y-110510696D01*
X146160206Y-110426533D01*
X146316185Y-110270826D01*
X146400704Y-110067281D01*
X146400896Y-109846886D01*
X146316733Y-109643194D01*
X146161026Y-109487215D01*
X145957481Y-109402696D01*
X145737086Y-109402504D01*
X145533394Y-109486667D01*
X145377415Y-109642374D01*
X145292896Y-109845919D01*
X145292704Y-110066314D01*
X135293672Y-110066314D01*
X135216933Y-109880592D01*
X135061226Y-109724613D01*
X134864625Y-109642977D01*
X134883475Y-109635189D01*
X135039454Y-109479482D01*
X135123973Y-109275937D01*
X135124165Y-109055542D01*
X135040002Y-108851850D01*
X134933852Y-108745514D01*
X145165704Y-108745514D01*
X145249867Y-108949206D01*
X145405574Y-109105185D01*
X145609119Y-109189704D01*
X145829514Y-109189896D01*
X145859965Y-109177314D01*
X147934304Y-109177314D01*
X148018467Y-109381006D01*
X148174174Y-109536985D01*
X148283858Y-109582530D01*
X148217191Y-109610076D01*
X148061212Y-109765783D01*
X147976693Y-109969328D01*
X147976501Y-110189723D01*
X148060664Y-110393415D01*
X148216371Y-110549394D01*
X148419916Y-110633913D01*
X148640311Y-110634105D01*
X148844003Y-110549942D01*
X148999982Y-110394235D01*
X149084501Y-110190690D01*
X149084693Y-109970295D01*
X149000530Y-109766603D01*
X148844823Y-109610624D01*
X148735139Y-109565079D01*
X148801806Y-109537533D01*
X148957785Y-109381826D01*
X149042304Y-109178281D01*
X149042496Y-108957886D01*
X148958333Y-108754194D01*
X148802626Y-108598215D01*
X148599081Y-108513696D01*
X148378686Y-108513504D01*
X148174994Y-108597667D01*
X148019015Y-108753374D01*
X147934496Y-108956919D01*
X147934304Y-109177314D01*
X145859965Y-109177314D01*
X146033206Y-109105733D01*
X146189185Y-108950026D01*
X146273704Y-108746481D01*
X146273896Y-108526086D01*
X146189733Y-108322394D01*
X146034026Y-108166415D01*
X145830481Y-108081896D01*
X145610086Y-108081704D01*
X145406394Y-108165867D01*
X145250415Y-108321574D01*
X145165896Y-108525119D01*
X145165704Y-108745514D01*
X134933852Y-108745514D01*
X134884295Y-108695871D01*
X134680750Y-108611352D01*
X134460355Y-108611160D01*
X134256663Y-108695323D01*
X134100684Y-108851030D01*
X134016165Y-109054575D01*
X134015973Y-109274970D01*
X132409000Y-109274970D01*
X132409000Y-107246914D01*
X143971904Y-107246914D01*
X144056067Y-107450606D01*
X144211774Y-107606585D01*
X144415319Y-107691104D01*
X144635714Y-107691296D01*
X144839406Y-107607133D01*
X144995385Y-107451426D01*
X145006476Y-107424714D01*
X148188304Y-107424714D01*
X148272467Y-107628406D01*
X148428174Y-107784385D01*
X148631719Y-107868904D01*
X148852114Y-107869096D01*
X149055806Y-107784933D01*
X149211785Y-107629226D01*
X149296304Y-107425681D01*
X149296304Y-107424714D01*
X149707514Y-107424714D01*
X149791677Y-107628406D01*
X149947384Y-107784385D01*
X150150929Y-107868904D01*
X150371324Y-107869096D01*
X150575016Y-107784933D01*
X150706864Y-107653314D01*
X152063514Y-107653314D01*
X152147677Y-107857006D01*
X152303384Y-108012985D01*
X152506929Y-108097504D01*
X152727324Y-108097696D01*
X152931016Y-108013533D01*
X153086995Y-107857826D01*
X153171514Y-107654281D01*
X153171706Y-107433886D01*
X153087543Y-107230194D01*
X152931836Y-107074215D01*
X152728291Y-106989696D01*
X152507896Y-106989504D01*
X152304204Y-107073667D01*
X152148225Y-107229374D01*
X152063706Y-107432919D01*
X152063514Y-107653314D01*
X150706864Y-107653314D01*
X150730995Y-107629226D01*
X150815514Y-107425681D01*
X150815706Y-107205286D01*
X150731543Y-107001594D01*
X150600352Y-106870174D01*
X150670671Y-106899373D01*
X150891066Y-106899565D01*
X151056683Y-106831134D01*
X151056523Y-107014759D01*
X151140686Y-107218451D01*
X151296393Y-107374430D01*
X151499938Y-107458949D01*
X151720333Y-107459141D01*
X151924025Y-107374978D01*
X152080004Y-107219271D01*
X152164523Y-107015726D01*
X152164715Y-106795331D01*
X152080552Y-106591639D01*
X151924845Y-106435660D01*
X151721300Y-106351141D01*
X151500905Y-106350949D01*
X151335288Y-106419380D01*
X151335448Y-106235755D01*
X151255104Y-106041304D01*
X153993385Y-106041304D01*
X154077548Y-106244996D01*
X154233255Y-106400975D01*
X154436800Y-106485494D01*
X154657195Y-106485686D01*
X154860887Y-106401523D01*
X155016866Y-106245816D01*
X155101385Y-106042271D01*
X155101577Y-105821876D01*
X155079519Y-105768492D01*
X155182387Y-105725988D01*
X155308767Y-105599828D01*
X155387132Y-105678330D01*
X155590677Y-105762849D01*
X155811072Y-105763041D01*
X156014764Y-105678878D01*
X156170743Y-105523171D01*
X156255262Y-105319626D01*
X156255454Y-105099231D01*
X156209561Y-104988161D01*
X156223395Y-104982445D01*
X156379374Y-104826738D01*
X156463893Y-104623193D01*
X156464085Y-104402798D01*
X156379922Y-104199106D01*
X156224215Y-104043127D01*
X156020670Y-103958608D01*
X155800275Y-103958416D01*
X155596583Y-104042579D01*
X155440604Y-104198286D01*
X155356085Y-104401831D01*
X155355893Y-104622226D01*
X155401786Y-104733296D01*
X155387952Y-104739012D01*
X155261572Y-104865172D01*
X155183207Y-104786670D01*
X154979662Y-104702151D01*
X154759267Y-104701959D01*
X154555575Y-104786122D01*
X154399596Y-104941829D01*
X154315077Y-105145374D01*
X154314885Y-105365769D01*
X154336943Y-105419153D01*
X154234075Y-105461657D01*
X154078096Y-105617364D01*
X153993577Y-105820909D01*
X153993385Y-106041304D01*
X151255104Y-106041304D01*
X151251285Y-106032063D01*
X151095578Y-105876084D01*
X150892033Y-105791565D01*
X150671638Y-105791373D01*
X150467946Y-105875536D01*
X150311967Y-106031243D01*
X150227448Y-106234788D01*
X150227256Y-106455183D01*
X150311419Y-106658875D01*
X150442610Y-106790295D01*
X150372291Y-106761096D01*
X150151896Y-106760904D01*
X149948204Y-106845067D01*
X149792225Y-107000774D01*
X149707706Y-107204319D01*
X149707514Y-107424714D01*
X149296304Y-107424714D01*
X149296496Y-107205286D01*
X149212333Y-107001594D01*
X149056626Y-106845615D01*
X148853081Y-106761096D01*
X148632686Y-106760904D01*
X148428994Y-106845067D01*
X148273015Y-107000774D01*
X148188496Y-107204319D01*
X148188304Y-107424714D01*
X145006476Y-107424714D01*
X145079904Y-107247881D01*
X145080096Y-107027486D01*
X144995933Y-106823794D01*
X144840226Y-106667815D01*
X144636681Y-106583296D01*
X144416286Y-106583104D01*
X144212594Y-106667267D01*
X144056615Y-106822974D01*
X143972096Y-107026519D01*
X143971904Y-107246914D01*
X132409000Y-107246914D01*
X132409000Y-106688114D01*
X134040504Y-106688114D01*
X134124667Y-106891806D01*
X134280374Y-107047785D01*
X134483919Y-107132304D01*
X134704314Y-107132496D01*
X134908006Y-107048333D01*
X135063985Y-106892626D01*
X135148504Y-106689081D01*
X135148696Y-106468686D01*
X135089364Y-106325090D01*
X135144506Y-106302306D01*
X135300485Y-106146599D01*
X135385004Y-105943054D01*
X135385196Y-105722659D01*
X135301033Y-105518967D01*
X135145326Y-105362988D01*
X134941781Y-105278469D01*
X134721386Y-105278277D01*
X134517694Y-105362440D01*
X134361715Y-105518147D01*
X134277196Y-105721692D01*
X134277004Y-105942087D01*
X134336336Y-106085683D01*
X134281194Y-106108467D01*
X134125215Y-106264174D01*
X134040696Y-106467719D01*
X134040504Y-106688114D01*
X132409000Y-106688114D01*
X132409000Y-105122090D01*
X149146990Y-105122090D01*
X149231153Y-105325782D01*
X149386860Y-105481761D01*
X149590405Y-105566280D01*
X149810800Y-105566472D01*
X150014492Y-105482309D01*
X150170471Y-105326602D01*
X150254990Y-105123057D01*
X150255182Y-104902662D01*
X150171019Y-104698970D01*
X150113640Y-104641491D01*
X150188045Y-104567215D01*
X150272564Y-104363670D01*
X150272756Y-104143275D01*
X150188593Y-103939583D01*
X150032886Y-103783604D01*
X149829341Y-103699085D01*
X149608946Y-103698893D01*
X149405254Y-103783056D01*
X149249275Y-103938763D01*
X149164756Y-104142308D01*
X149164564Y-104362703D01*
X149248727Y-104566395D01*
X149306106Y-104623874D01*
X149231701Y-104698150D01*
X149147182Y-104901695D01*
X149146990Y-105122090D01*
X132409000Y-105122090D01*
X132409000Y-103892229D01*
X147907916Y-103892229D01*
X147992079Y-104095921D01*
X148147786Y-104251900D01*
X148351331Y-104336419D01*
X148571726Y-104336611D01*
X148775418Y-104252448D01*
X148931397Y-104096741D01*
X149015916Y-103893196D01*
X149016108Y-103672801D01*
X148931945Y-103469109D01*
X148776238Y-103313130D01*
X148572693Y-103228611D01*
X148352298Y-103228419D01*
X148148606Y-103312582D01*
X147992627Y-103468289D01*
X147908108Y-103671834D01*
X147907916Y-103892229D01*
X132409000Y-103892229D01*
X132409000Y-102624114D01*
X134294504Y-102624114D01*
X134378667Y-102827806D01*
X134534374Y-102983785D01*
X134737919Y-103068304D01*
X134958314Y-103068496D01*
X135162006Y-102984333D01*
X135317985Y-102828626D01*
X135402504Y-102625081D01*
X135402696Y-102404686D01*
X135377358Y-102343362D01*
X148685068Y-102343362D01*
X148769231Y-102547054D01*
X148924938Y-102703033D01*
X149128483Y-102787552D01*
X149348878Y-102787744D01*
X149552570Y-102703581D01*
X149708549Y-102547874D01*
X149793068Y-102344329D01*
X149793260Y-102123934D01*
X149709097Y-101920242D01*
X149668511Y-101879585D01*
X149727099Y-101821099D01*
X149811618Y-101617554D01*
X149811757Y-101458127D01*
X149822394Y-101458136D01*
X150026086Y-101373973D01*
X150182065Y-101218266D01*
X150207742Y-101156429D01*
X150382552Y-101229016D01*
X150602947Y-101229208D01*
X150806639Y-101145045D01*
X150902537Y-101049314D01*
X155198712Y-101049314D01*
X155282875Y-101253006D01*
X155438582Y-101408985D01*
X155642127Y-101493504D01*
X155862522Y-101493696D01*
X156066214Y-101409533D01*
X156222193Y-101253826D01*
X156306712Y-101050281D01*
X156306904Y-100829886D01*
X156222741Y-100626194D01*
X156067034Y-100470215D01*
X155863489Y-100385696D01*
X155643094Y-100385504D01*
X155439402Y-100469667D01*
X155283423Y-100625374D01*
X155198904Y-100828919D01*
X155198712Y-101049314D01*
X150902537Y-101049314D01*
X150962618Y-100989338D01*
X151047137Y-100785793D01*
X151047329Y-100565398D01*
X150963166Y-100361706D01*
X150953840Y-100352364D01*
X151039908Y-100266446D01*
X151124427Y-100062901D01*
X151124585Y-99880914D01*
X154335104Y-99880914D01*
X154419267Y-100084606D01*
X154574974Y-100240585D01*
X154778519Y-100325104D01*
X154998914Y-100325296D01*
X155202606Y-100241133D01*
X155277911Y-100165959D01*
X155300094Y-100188181D01*
X155503639Y-100272700D01*
X155724034Y-100272892D01*
X155927726Y-100188729D01*
X156083705Y-100033022D01*
X156168224Y-99829477D01*
X156168416Y-99609082D01*
X156084253Y-99405390D01*
X155928546Y-99249411D01*
X155725001Y-99164892D01*
X155504606Y-99164700D01*
X155300914Y-99248863D01*
X155225609Y-99324037D01*
X155203426Y-99301815D01*
X154999881Y-99217296D01*
X154779486Y-99217104D01*
X154575794Y-99301267D01*
X154419815Y-99456974D01*
X154335296Y-99660519D01*
X154335104Y-99880914D01*
X151124585Y-99880914D01*
X151124619Y-99842506D01*
X151040456Y-99638814D01*
X150884749Y-99482835D01*
X150681204Y-99398316D01*
X150460809Y-99398124D01*
X150393417Y-99425970D01*
X150439304Y-99315461D01*
X150439496Y-99095066D01*
X150355333Y-98891374D01*
X150199626Y-98735395D01*
X149996081Y-98650876D01*
X149775686Y-98650684D01*
X149571994Y-98734847D01*
X149416015Y-98890554D01*
X149331496Y-99094099D01*
X149331304Y-99314494D01*
X149415467Y-99518186D01*
X149571174Y-99674165D01*
X149774719Y-99758684D01*
X149995114Y-99758876D01*
X150062506Y-99731030D01*
X150016619Y-99841539D01*
X150016427Y-100061934D01*
X150100590Y-100265626D01*
X150109916Y-100274968D01*
X150023848Y-100360886D01*
X149998171Y-100422723D01*
X149823361Y-100350136D01*
X149602966Y-100349944D01*
X149399274Y-100434107D01*
X149243295Y-100589814D01*
X149158776Y-100793359D01*
X149158637Y-100952786D01*
X149148000Y-100952777D01*
X148944308Y-101036940D01*
X148788329Y-101192647D01*
X148703810Y-101396192D01*
X148703618Y-101616587D01*
X148787781Y-101820279D01*
X148828367Y-101860936D01*
X148769779Y-101919422D01*
X148685260Y-102122967D01*
X148685068Y-102343362D01*
X135377358Y-102343362D01*
X135318533Y-102200994D01*
X135162826Y-102045015D01*
X134959281Y-101960496D01*
X134738886Y-101960304D01*
X134535194Y-102044467D01*
X134379215Y-102200174D01*
X134294696Y-102403719D01*
X134294504Y-102624114D01*
X132409000Y-102624114D01*
X132409000Y-99144314D01*
X134271060Y-99144314D01*
X134355223Y-99348006D01*
X134447690Y-99440634D01*
X134431573Y-99456723D01*
X134347054Y-99660268D01*
X134346862Y-99880663D01*
X134431025Y-100084355D01*
X134441172Y-100094520D01*
X134355771Y-100179772D01*
X134271252Y-100383317D01*
X134271060Y-100603712D01*
X134355223Y-100807404D01*
X134510930Y-100963383D01*
X134714475Y-101047902D01*
X134934870Y-101048094D01*
X135138562Y-100963931D01*
X135294541Y-100808224D01*
X135379060Y-100604679D01*
X135379252Y-100384284D01*
X135295089Y-100180592D01*
X135284942Y-100170427D01*
X135370343Y-100085175D01*
X135454862Y-99881630D01*
X135455054Y-99661235D01*
X135370891Y-99457543D01*
X135278424Y-99364915D01*
X135294541Y-99348826D01*
X135379060Y-99145281D01*
X135379252Y-98924886D01*
X135295089Y-98721194D01*
X135139382Y-98565215D01*
X134935837Y-98480696D01*
X134715442Y-98480504D01*
X134511750Y-98564667D01*
X134355771Y-98720374D01*
X134271252Y-98923919D01*
X134271060Y-99144314D01*
X132409000Y-99144314D01*
X132409000Y-97455214D01*
X135780404Y-97455214D01*
X135864567Y-97658906D01*
X136020274Y-97814885D01*
X136223819Y-97899404D01*
X136444214Y-97899596D01*
X136647906Y-97815433D01*
X136803885Y-97659726D01*
X136888404Y-97456181D01*
X136888407Y-97452620D01*
X141821078Y-97452620D01*
X141928030Y-97711463D01*
X142125895Y-97909674D01*
X142384551Y-98017077D01*
X142664620Y-98017322D01*
X142923463Y-97910370D01*
X142988430Y-97845516D01*
X152392004Y-97845516D01*
X152476167Y-98049208D01*
X152631874Y-98205187D01*
X152835419Y-98289706D01*
X153055814Y-98289898D01*
X153259506Y-98205735D01*
X153415485Y-98050028D01*
X153500004Y-97846483D01*
X153500196Y-97626088D01*
X153416033Y-97422396D01*
X153260326Y-97266417D01*
X153056781Y-97181898D01*
X152836386Y-97181706D01*
X152632694Y-97265869D01*
X152476715Y-97421576D01*
X152392196Y-97625121D01*
X152392004Y-97845516D01*
X142988430Y-97845516D01*
X143121674Y-97712505D01*
X143229077Y-97453849D01*
X143229322Y-97173780D01*
X143122370Y-96914937D01*
X142924505Y-96716726D01*
X142665849Y-96609323D01*
X142385780Y-96609078D01*
X142126937Y-96716030D01*
X141928726Y-96913895D01*
X141821323Y-97172551D01*
X141821078Y-97452620D01*
X136888407Y-97452620D01*
X136888596Y-97235786D01*
X136804433Y-97032094D01*
X136648726Y-96876115D01*
X136445181Y-96791596D01*
X136224786Y-96791404D01*
X136021094Y-96875567D01*
X135865115Y-97031274D01*
X135780596Y-97234819D01*
X135780404Y-97455214D01*
X132409000Y-97455214D01*
X132409000Y-94927914D01*
X155173304Y-94927914D01*
X155257467Y-95131606D01*
X155413174Y-95287585D01*
X155616719Y-95372104D01*
X155837114Y-95372296D01*
X156040806Y-95288133D01*
X156196785Y-95132426D01*
X156281304Y-94928881D01*
X156281496Y-94708486D01*
X156197333Y-94504794D01*
X156041626Y-94348815D01*
X155838081Y-94264296D01*
X155617686Y-94264104D01*
X155413994Y-94348267D01*
X155258015Y-94503974D01*
X155173496Y-94707519D01*
X155173304Y-94927914D01*
X132409000Y-94927914D01*
X132409000Y-91930714D01*
X153877904Y-91930714D01*
X153962067Y-92134406D01*
X154117774Y-92290385D01*
X154321319Y-92374904D01*
X154541714Y-92375096D01*
X154745406Y-92290933D01*
X154901385Y-92135226D01*
X154985904Y-91931681D01*
X154986096Y-91711286D01*
X154901933Y-91507594D01*
X154746226Y-91351615D01*
X154542681Y-91267096D01*
X154322286Y-91266904D01*
X154118594Y-91351067D01*
X153962615Y-91506774D01*
X153878096Y-91710319D01*
X153877904Y-91930714D01*
X132409000Y-91930714D01*
X132409000Y-90377867D01*
X134080549Y-90377867D01*
X134164712Y-90581559D01*
X134320419Y-90737538D01*
X134523964Y-90822057D01*
X134744359Y-90822249D01*
X134948051Y-90738086D01*
X135104030Y-90582379D01*
X135188549Y-90378834D01*
X135188741Y-90158439D01*
X135175881Y-90127314D01*
X151044102Y-90127314D01*
X151128265Y-90331006D01*
X151283972Y-90486985D01*
X151487517Y-90571504D01*
X151707912Y-90571696D01*
X151911604Y-90487533D01*
X152067583Y-90331826D01*
X152152102Y-90128281D01*
X152152294Y-89907886D01*
X152068131Y-89704194D01*
X151912424Y-89548215D01*
X151708879Y-89463696D01*
X151488484Y-89463504D01*
X151284792Y-89547667D01*
X151128813Y-89703374D01*
X151044294Y-89906919D01*
X151044102Y-90127314D01*
X135175881Y-90127314D01*
X135104578Y-89954747D01*
X134948871Y-89798768D01*
X134745326Y-89714249D01*
X134524931Y-89714057D01*
X134321239Y-89798220D01*
X134165260Y-89953927D01*
X134080741Y-90157472D01*
X134080549Y-90377867D01*
X132409000Y-90377867D01*
X132409000Y-89141794D01*
X133611244Y-89141794D01*
X133695407Y-89345486D01*
X133851114Y-89501465D01*
X134054659Y-89585984D01*
X134275054Y-89586176D01*
X134478746Y-89502013D01*
X134634725Y-89346306D01*
X134718369Y-89144869D01*
X134718271Y-89257041D01*
X134802434Y-89460733D01*
X134958141Y-89616712D01*
X135161686Y-89701231D01*
X135382081Y-89701423D01*
X135585773Y-89617260D01*
X135741752Y-89461553D01*
X135826271Y-89258008D01*
X135826463Y-89037613D01*
X135823331Y-89030032D01*
X135948044Y-89030032D01*
X136032207Y-89233724D01*
X136187914Y-89389703D01*
X136391459Y-89474222D01*
X136611854Y-89474414D01*
X136815546Y-89390251D01*
X136971525Y-89234544D01*
X137056044Y-89030999D01*
X137056236Y-88810604D01*
X136972073Y-88606912D01*
X136816366Y-88450933D01*
X136772736Y-88432816D01*
X150221095Y-88432816D01*
X150312855Y-88654892D01*
X150482615Y-88824948D01*
X150704530Y-88917095D01*
X150944816Y-88917305D01*
X151166892Y-88825545D01*
X151185956Y-88806514D01*
X153141304Y-88806514D01*
X153225467Y-89010206D01*
X153381174Y-89166185D01*
X153584719Y-89250704D01*
X153805114Y-89250896D01*
X154008806Y-89166733D01*
X154164785Y-89011026D01*
X154249304Y-88807481D01*
X154249496Y-88587086D01*
X154235212Y-88552514D01*
X154284304Y-88552514D01*
X154368467Y-88756206D01*
X154524174Y-88912185D01*
X154727719Y-88996704D01*
X154948114Y-88996896D01*
X155151806Y-88912733D01*
X155307785Y-88757026D01*
X155392304Y-88553481D01*
X155392496Y-88333086D01*
X155308333Y-88129394D01*
X155152626Y-87973415D01*
X154949081Y-87888896D01*
X154728686Y-87888704D01*
X154524994Y-87972867D01*
X154369015Y-88128574D01*
X154284496Y-88332119D01*
X154284304Y-88552514D01*
X154235212Y-88552514D01*
X154165333Y-88383394D01*
X154009626Y-88227415D01*
X153806081Y-88142896D01*
X153585686Y-88142704D01*
X153381994Y-88226867D01*
X153226015Y-88382574D01*
X153141496Y-88586119D01*
X153141304Y-88806514D01*
X151185956Y-88806514D01*
X151336948Y-88655785D01*
X151429095Y-88433870D01*
X151429305Y-88193584D01*
X151337545Y-87971508D01*
X151167785Y-87801452D01*
X150945870Y-87709305D01*
X150705584Y-87709095D01*
X150483508Y-87800855D01*
X150313452Y-87970615D01*
X150221305Y-88192530D01*
X150221095Y-88432816D01*
X136772736Y-88432816D01*
X136612821Y-88366414D01*
X136392426Y-88366222D01*
X136188734Y-88450385D01*
X136032755Y-88606092D01*
X135948236Y-88809637D01*
X135948044Y-89030032D01*
X135823331Y-89030032D01*
X135742300Y-88833921D01*
X135586593Y-88677942D01*
X135383048Y-88593423D01*
X135162653Y-88593231D01*
X134958961Y-88677394D01*
X134802982Y-88833101D01*
X134719338Y-89034538D01*
X134719436Y-88922366D01*
X134635273Y-88718674D01*
X134479566Y-88562695D01*
X134276021Y-88478176D01*
X134055626Y-88477984D01*
X133851934Y-88562147D01*
X133695955Y-88717854D01*
X133611436Y-88921399D01*
X133611244Y-89141794D01*
X132409000Y-89141794D01*
X132409000Y-88179001D01*
X132604319Y-88260104D01*
X132824714Y-88260296D01*
X133028406Y-88176133D01*
X133184385Y-88020426D01*
X133268904Y-87816881D01*
X133269096Y-87596486D01*
X133184933Y-87392794D01*
X133029226Y-87236815D01*
X132825681Y-87152296D01*
X132605286Y-87152104D01*
X132409000Y-87233207D01*
X132409000Y-86689000D01*
X149811261Y-86689000D01*
X149780307Y-86763545D01*
X149780307Y-86763545D01*
G37*
X149780307Y-86763545D02*
X149780115Y-86983940D01*
X149864278Y-87187632D01*
X150019985Y-87343611D01*
X150223530Y-87428130D01*
X150443925Y-87428322D01*
X150647617Y-87344159D01*
X150803596Y-87188452D01*
X150888115Y-86984907D01*
X150888307Y-86764512D01*
X150857106Y-86689000D01*
X157151000Y-86689000D01*
X157151000Y-90476627D01*
X156905234Y-90578175D01*
X156619179Y-90863731D01*
X156464176Y-91237018D01*
X156463824Y-91641208D01*
X156618175Y-92014766D01*
X156903731Y-92300821D01*
X157151000Y-92403497D01*
X157151000Y-93016627D01*
X156905234Y-93118175D01*
X156619179Y-93403731D01*
X156464176Y-93777018D01*
X156463824Y-94181208D01*
X156618175Y-94554766D01*
X156903731Y-94840821D01*
X157151000Y-94943497D01*
X157151000Y-95556627D01*
X157014891Y-95612865D01*
X156957645Y-95474317D01*
X156801938Y-95318338D01*
X156598393Y-95233819D01*
X156377998Y-95233627D01*
X156174306Y-95317790D01*
X156018327Y-95473497D01*
X155933808Y-95677042D01*
X155933616Y-95897437D01*
X156017779Y-96101129D01*
X156173486Y-96257108D01*
X156377031Y-96341627D01*
X156464155Y-96341703D01*
X156463824Y-96721208D01*
X156618175Y-97094766D01*
X156903731Y-97380821D01*
X157151000Y-97483497D01*
X157151000Y-98096627D01*
X156905234Y-98198175D01*
X156619179Y-98483731D01*
X156464176Y-98857018D01*
X156463824Y-99261208D01*
X156618175Y-99634766D01*
X156903731Y-99920821D01*
X157151000Y-100023497D01*
X157151000Y-100636627D01*
X156905234Y-100738175D01*
X156619179Y-101023731D01*
X156464176Y-101397018D01*
X156463824Y-101801208D01*
X156618175Y-102174766D01*
X156903731Y-102460821D01*
X157151000Y-102563497D01*
X157151000Y-103176627D01*
X156905234Y-103278175D01*
X156619179Y-103563731D01*
X156464176Y-103937018D01*
X156463824Y-104341208D01*
X156618175Y-104714766D01*
X156903731Y-105000821D01*
X157151000Y-105103497D01*
X157151000Y-105716627D01*
X156905234Y-105818175D01*
X156619179Y-106103731D01*
X156464176Y-106477018D01*
X156463824Y-106881208D01*
X156618175Y-107254766D01*
X156903731Y-107540821D01*
X157151000Y-107643497D01*
X157151000Y-108256627D01*
X156905234Y-108358175D01*
X156619179Y-108643731D01*
X156464176Y-109017018D01*
X156463824Y-109421208D01*
X156618175Y-109794766D01*
X156903731Y-110080821D01*
X157151000Y-110183497D01*
X157151000Y-110796627D01*
X156905234Y-110898175D01*
X156619179Y-111183731D01*
X156464176Y-111557018D01*
X156463824Y-111961208D01*
X156618175Y-112334766D01*
X156903731Y-112620821D01*
X157151000Y-112723497D01*
X157151000Y-113336627D01*
X156905234Y-113438175D01*
X156619179Y-113723731D01*
X156464176Y-114097018D01*
X156463824Y-114501208D01*
X156618175Y-114874766D01*
X156903731Y-115160821D01*
X157151000Y-115263497D01*
X157151000Y-119051000D01*
X155903373Y-119051000D01*
X155801825Y-118805234D01*
X155516269Y-118519179D01*
X155142982Y-118364176D01*
X154738792Y-118363824D01*
X154365234Y-118518175D01*
X154079179Y-118803731D01*
X153976503Y-119051000D01*
X153363373Y-119051000D01*
X153261825Y-118805234D01*
X152976269Y-118519179D01*
X152602982Y-118364176D01*
X152198792Y-118363824D01*
X151825234Y-118518175D01*
X151539179Y-118803731D01*
X151436503Y-119051000D01*
X150823373Y-119051000D01*
X150721825Y-118805234D01*
X150436269Y-118519179D01*
X150130812Y-118392342D01*
X150159904Y-118322281D01*
X150160096Y-118101886D01*
X150075933Y-117898194D01*
X149920226Y-117742215D01*
X149716681Y-117657696D01*
X149496286Y-117657504D01*
X149292594Y-117741667D01*
X149136615Y-117897374D01*
X149052096Y-118100919D01*
X149051904Y-118321314D01*
X149136067Y-118525006D01*
X149207105Y-118596168D01*
X148999179Y-118803731D01*
X148896503Y-119051000D01*
X148283373Y-119051000D01*
X148181825Y-118805234D01*
X147896269Y-118519179D01*
X147522982Y-118364176D01*
X147118792Y-118363824D01*
X146745234Y-118518175D01*
X146459179Y-118803731D01*
X146356503Y-119051000D01*
X145743373Y-119051000D01*
X145641825Y-118805234D01*
X145356269Y-118519179D01*
X144982982Y-118364176D01*
X144578792Y-118363824D01*
X144205234Y-118518175D01*
X143919179Y-118803731D01*
X143816503Y-119051000D01*
X143203373Y-119051000D01*
X143101825Y-118805234D01*
X142816269Y-118519179D01*
X142442982Y-118364176D01*
X142038792Y-118363824D01*
X141665234Y-118518175D01*
X141523971Y-118659192D01*
X141524096Y-118515488D01*
X141439933Y-118311796D01*
X141351876Y-118223585D01*
X141439385Y-118136228D01*
X141523904Y-117932683D01*
X141524096Y-117712288D01*
X141439933Y-117508596D01*
X141284226Y-117352617D01*
X141080681Y-117268098D01*
X140860286Y-117267906D01*
X140656594Y-117352069D01*
X140500615Y-117507776D01*
X140416096Y-117711321D01*
X140415904Y-117931716D01*
X140500067Y-118135408D01*
X140588124Y-118223619D01*
X140500615Y-118310976D01*
X140416096Y-118514521D01*
X140415970Y-118659124D01*
X140276269Y-118519179D01*
X139902982Y-118364176D01*
X139498792Y-118363824D01*
X139125234Y-118518175D01*
X138839179Y-118803731D01*
X138736503Y-119051000D01*
X138123373Y-119051000D01*
X138021825Y-118805234D01*
X137736269Y-118519179D01*
X137547232Y-118440684D01*
X137702006Y-118376733D01*
X137857985Y-118221026D01*
X137942504Y-118017481D01*
X137942696Y-117797086D01*
X137858533Y-117593394D01*
X137702826Y-117437415D01*
X137499281Y-117352896D01*
X137278886Y-117352704D01*
X137075194Y-117436867D01*
X136919215Y-117592574D01*
X136834696Y-117796119D01*
X136834504Y-118016514D01*
X136918667Y-118220206D01*
X137062124Y-118363914D01*
X136958792Y-118363824D01*
X136585234Y-118518175D01*
X136299179Y-118803731D01*
X136196503Y-119051000D01*
X135583373Y-119051000D01*
X135481825Y-118805234D01*
X135196269Y-118519179D01*
X134822982Y-118364176D01*
X134418792Y-118363824D01*
X134045234Y-118518175D01*
X133759179Y-118803731D01*
X133656503Y-119051000D01*
X132409000Y-119051000D01*
X132409000Y-117660914D01*
X133126104Y-117660914D01*
X133210267Y-117864606D01*
X133365974Y-118020585D01*
X133569519Y-118105104D01*
X133789914Y-118105296D01*
X133993606Y-118021133D01*
X134075864Y-117939019D01*
X134150067Y-118118606D01*
X134305774Y-118274585D01*
X134509319Y-118359104D01*
X134729714Y-118359296D01*
X134933406Y-118275133D01*
X135089385Y-118119426D01*
X135173904Y-117915881D01*
X135174096Y-117695486D01*
X135089933Y-117491794D01*
X134934226Y-117335815D01*
X134730681Y-117251296D01*
X134510286Y-117251104D01*
X134306594Y-117335267D01*
X134224336Y-117417381D01*
X134150133Y-117237794D01*
X133994426Y-117081815D01*
X133790881Y-116997296D01*
X133570486Y-116997104D01*
X133366794Y-117081267D01*
X133210815Y-117236974D01*
X133126296Y-117440519D01*
X133126104Y-117660914D01*
X132409000Y-117660914D01*
X132409000Y-115414112D01*
X135466515Y-115414112D01*
X135550678Y-115617804D01*
X135706385Y-115773783D01*
X135909930Y-115858302D01*
X136130325Y-115858494D01*
X136334017Y-115774331D01*
X136489996Y-115618624D01*
X136574515Y-115415079D01*
X136574707Y-115194684D01*
X136490544Y-114990992D01*
X136334837Y-114835013D01*
X136289324Y-114816114D01*
X152049104Y-114816114D01*
X152133267Y-115019806D01*
X152288974Y-115175785D01*
X152492519Y-115260304D01*
X152712914Y-115260496D01*
X152916606Y-115176333D01*
X153072585Y-115020626D01*
X153157104Y-114817081D01*
X153157296Y-114596686D01*
X153073133Y-114392994D01*
X152917426Y-114237015D01*
X152713881Y-114152496D01*
X152493486Y-114152304D01*
X152289794Y-114236467D01*
X152133815Y-114392174D01*
X152049296Y-114595719D01*
X152049104Y-114816114D01*
X136289324Y-114816114D01*
X136131292Y-114750494D01*
X135910897Y-114750302D01*
X135707205Y-114834465D01*
X135551226Y-114990172D01*
X135466707Y-115193717D01*
X135466515Y-115414112D01*
X132409000Y-115414112D01*
X132409000Y-113749314D01*
X135501004Y-113749314D01*
X135585167Y-113953006D01*
X135740874Y-114108985D01*
X135944419Y-114193504D01*
X136164814Y-114193696D01*
X136368506Y-114109533D01*
X136524485Y-113953826D01*
X136598858Y-113774714D01*
X150398104Y-113774714D01*
X150482267Y-113978406D01*
X150637974Y-114134385D01*
X150841519Y-114218904D01*
X151061914Y-114219096D01*
X151265606Y-114134933D01*
X151421585Y-113979226D01*
X151506104Y-113775681D01*
X151506296Y-113555286D01*
X151422133Y-113351594D01*
X151266426Y-113195615D01*
X151062881Y-113111096D01*
X150842486Y-113110904D01*
X150638794Y-113195067D01*
X150482815Y-113350774D01*
X150398296Y-113554319D01*
X150398104Y-113774714D01*
X136598858Y-113774714D01*
X136609004Y-113750281D01*
X136609196Y-113529886D01*
X136525033Y-113326194D01*
X136369326Y-113170215D01*
X136165781Y-113085696D01*
X135945386Y-113085504D01*
X135741694Y-113169667D01*
X135585715Y-113325374D01*
X135501196Y-113528919D01*
X135501004Y-113749314D01*
X132409000Y-113749314D01*
X132409000Y-112094624D01*
X135436702Y-112094624D01*
X135520865Y-112298316D01*
X135676572Y-112454295D01*
X135880117Y-112538814D01*
X136100512Y-112539006D01*
X136304204Y-112454843D01*
X136460183Y-112299136D01*
X136544702Y-112095591D01*
X136544858Y-111916520D01*
X147907669Y-111916520D01*
X147991832Y-112120212D01*
X148147539Y-112276191D01*
X148351084Y-112360710D01*
X148571479Y-112360902D01*
X148775171Y-112276739D01*
X148891164Y-112160949D01*
X148907467Y-112200406D01*
X149063174Y-112356385D01*
X149266719Y-112440904D01*
X149487114Y-112441096D01*
X149690806Y-112356933D01*
X149846785Y-112201226D01*
X149891682Y-112093101D01*
X151594154Y-112093101D01*
X151678317Y-112296793D01*
X151834024Y-112452772D01*
X152037569Y-112537291D01*
X152257964Y-112537483D01*
X152461656Y-112453320D01*
X152617635Y-112297613D01*
X152702154Y-112094068D01*
X152702346Y-111873673D01*
X152658731Y-111768114D01*
X154589104Y-111768114D01*
X154673267Y-111971806D01*
X154828974Y-112127785D01*
X155032519Y-112212304D01*
X155252914Y-112212496D01*
X155456606Y-112128333D01*
X155612585Y-111972626D01*
X155697104Y-111769081D01*
X155697296Y-111548686D01*
X155613133Y-111344994D01*
X155457426Y-111189015D01*
X155253881Y-111104496D01*
X155033486Y-111104304D01*
X154829794Y-111188467D01*
X154673815Y-111344174D01*
X154589296Y-111547719D01*
X154589104Y-111768114D01*
X152658731Y-111768114D01*
X152618183Y-111669981D01*
X152462476Y-111514002D01*
X152258931Y-111429483D01*
X152038536Y-111429291D01*
X151834844Y-111513454D01*
X151678865Y-111669161D01*
X151594346Y-111872706D01*
X151594154Y-112093101D01*
X149891682Y-112093101D01*
X149931304Y-111997681D01*
X149931496Y-111777286D01*
X149847333Y-111573594D01*
X149691626Y-111417615D01*
X149495831Y-111336314D01*
X150499704Y-111336314D01*
X150583867Y-111540006D01*
X150739574Y-111695985D01*
X150943119Y-111780504D01*
X151163514Y-111780696D01*
X151367206Y-111696533D01*
X151523185Y-111540826D01*
X151607704Y-111337281D01*
X151607896Y-111116886D01*
X151523733Y-110913194D01*
X151368026Y-110757215D01*
X151355742Y-110752114D01*
X152303104Y-110752114D01*
X152387267Y-110955806D01*
X152542974Y-111111785D01*
X152746519Y-111196304D01*
X152966914Y-111196496D01*
X153170606Y-111112333D01*
X153326585Y-110956626D01*
X153411104Y-110753081D01*
X153411296Y-110532686D01*
X153327133Y-110328994D01*
X153171426Y-110173015D01*
X152967881Y-110088496D01*
X152747486Y-110088304D01*
X152543794Y-110172467D01*
X152387815Y-110328174D01*
X152303296Y-110531719D01*
X152303104Y-110752114D01*
X151355742Y-110752114D01*
X151164481Y-110672696D01*
X150944086Y-110672504D01*
X150740394Y-110756667D01*
X150584415Y-110912374D01*
X150499896Y-111115919D01*
X150499704Y-111336314D01*
X149495831Y-111336314D01*
X149488081Y-111333096D01*
X149267686Y-111332904D01*
X149063994Y-111417067D01*
X148948001Y-111532857D01*
X148931698Y-111493400D01*
X148775991Y-111337421D01*
X148572446Y-111252902D01*
X148352051Y-111252710D01*
X148148359Y-111336873D01*
X147992380Y-111492580D01*
X147907861Y-111696125D01*
X147907669Y-111916520D01*
X136544858Y-111916520D01*
X136544894Y-111875196D01*
X136460731Y-111671504D01*
X136305024Y-111515525D01*
X136101479Y-111431006D01*
X135881084Y-111430814D01*
X135677392Y-111514977D01*
X135521413Y-111670684D01*
X135436894Y-111874229D01*
X135436702Y-112094624D01*
X132409000Y-112094624D01*
X132409000Y-109274970D01*
X134015973Y-109274970D01*
X134100136Y-109478662D01*
X134255843Y-109634641D01*
X134452444Y-109716277D01*
X134433594Y-109724065D01*
X134277615Y-109879772D01*
X134193096Y-110083317D01*
X134192904Y-110303712D01*
X134277067Y-110507404D01*
X134432774Y-110663383D01*
X134636319Y-110747902D01*
X134856714Y-110748094D01*
X135060406Y-110663931D01*
X135216385Y-110508224D01*
X135300904Y-110304679D01*
X135301096Y-110084284D01*
X135293672Y-110066314D01*
X145292704Y-110066314D01*
X145376867Y-110270006D01*
X145532574Y-110425985D01*
X145736119Y-110510504D01*
X145956514Y-110510696D01*
X146160206Y-110426533D01*
X146316185Y-110270826D01*
X146400704Y-110067281D01*
X146400896Y-109846886D01*
X146316733Y-109643194D01*
X146161026Y-109487215D01*
X145957481Y-109402696D01*
X145737086Y-109402504D01*
X145533394Y-109486667D01*
X145377415Y-109642374D01*
X145292896Y-109845919D01*
X145292704Y-110066314D01*
X135293672Y-110066314D01*
X135216933Y-109880592D01*
X135061226Y-109724613D01*
X134864625Y-109642977D01*
X134883475Y-109635189D01*
X135039454Y-109479482D01*
X135123973Y-109275937D01*
X135124165Y-109055542D01*
X135040002Y-108851850D01*
X134933852Y-108745514D01*
X145165704Y-108745514D01*
X145249867Y-108949206D01*
X145405574Y-109105185D01*
X145609119Y-109189704D01*
X145829514Y-109189896D01*
X145859965Y-109177314D01*
X147934304Y-109177314D01*
X148018467Y-109381006D01*
X148174174Y-109536985D01*
X148283858Y-109582530D01*
X148217191Y-109610076D01*
X148061212Y-109765783D01*
X147976693Y-109969328D01*
X147976501Y-110189723D01*
X148060664Y-110393415D01*
X148216371Y-110549394D01*
X148419916Y-110633913D01*
X148640311Y-110634105D01*
X148844003Y-110549942D01*
X148999982Y-110394235D01*
X149084501Y-110190690D01*
X149084693Y-109970295D01*
X149000530Y-109766603D01*
X148844823Y-109610624D01*
X148735139Y-109565079D01*
X148801806Y-109537533D01*
X148957785Y-109381826D01*
X149042304Y-109178281D01*
X149042496Y-108957886D01*
X148958333Y-108754194D01*
X148802626Y-108598215D01*
X148599081Y-108513696D01*
X148378686Y-108513504D01*
X148174994Y-108597667D01*
X148019015Y-108753374D01*
X147934496Y-108956919D01*
X147934304Y-109177314D01*
X145859965Y-109177314D01*
X146033206Y-109105733D01*
X146189185Y-108950026D01*
X146273704Y-108746481D01*
X146273896Y-108526086D01*
X146189733Y-108322394D01*
X146034026Y-108166415D01*
X145830481Y-108081896D01*
X145610086Y-108081704D01*
X145406394Y-108165867D01*
X145250415Y-108321574D01*
X145165896Y-108525119D01*
X145165704Y-108745514D01*
X134933852Y-108745514D01*
X134884295Y-108695871D01*
X134680750Y-108611352D01*
X134460355Y-108611160D01*
X134256663Y-108695323D01*
X134100684Y-108851030D01*
X134016165Y-109054575D01*
X134015973Y-109274970D01*
X132409000Y-109274970D01*
X132409000Y-107246914D01*
X143971904Y-107246914D01*
X144056067Y-107450606D01*
X144211774Y-107606585D01*
X144415319Y-107691104D01*
X144635714Y-107691296D01*
X144839406Y-107607133D01*
X144995385Y-107451426D01*
X145006476Y-107424714D01*
X148188304Y-107424714D01*
X148272467Y-107628406D01*
X148428174Y-107784385D01*
X148631719Y-107868904D01*
X148852114Y-107869096D01*
X149055806Y-107784933D01*
X149211785Y-107629226D01*
X149296304Y-107425681D01*
X149296304Y-107424714D01*
X149707514Y-107424714D01*
X149791677Y-107628406D01*
X149947384Y-107784385D01*
X150150929Y-107868904D01*
X150371324Y-107869096D01*
X150575016Y-107784933D01*
X150706864Y-107653314D01*
X152063514Y-107653314D01*
X152147677Y-107857006D01*
X152303384Y-108012985D01*
X152506929Y-108097504D01*
X152727324Y-108097696D01*
X152931016Y-108013533D01*
X153086995Y-107857826D01*
X153171514Y-107654281D01*
X153171706Y-107433886D01*
X153087543Y-107230194D01*
X152931836Y-107074215D01*
X152728291Y-106989696D01*
X152507896Y-106989504D01*
X152304204Y-107073667D01*
X152148225Y-107229374D01*
X152063706Y-107432919D01*
X152063514Y-107653314D01*
X150706864Y-107653314D01*
X150730995Y-107629226D01*
X150815514Y-107425681D01*
X150815706Y-107205286D01*
X150731543Y-107001594D01*
X150600352Y-106870174D01*
X150670671Y-106899373D01*
X150891066Y-106899565D01*
X151056683Y-106831134D01*
X151056523Y-107014759D01*
X151140686Y-107218451D01*
X151296393Y-107374430D01*
X151499938Y-107458949D01*
X151720333Y-107459141D01*
X151924025Y-107374978D01*
X152080004Y-107219271D01*
X152164523Y-107015726D01*
X152164715Y-106795331D01*
X152080552Y-106591639D01*
X151924845Y-106435660D01*
X151721300Y-106351141D01*
X151500905Y-106350949D01*
X151335288Y-106419380D01*
X151335448Y-106235755D01*
X151255104Y-106041304D01*
X153993385Y-106041304D01*
X154077548Y-106244996D01*
X154233255Y-106400975D01*
X154436800Y-106485494D01*
X154657195Y-106485686D01*
X154860887Y-106401523D01*
X155016866Y-106245816D01*
X155101385Y-106042271D01*
X155101577Y-105821876D01*
X155079519Y-105768492D01*
X155182387Y-105725988D01*
X155308767Y-105599828D01*
X155387132Y-105678330D01*
X155590677Y-105762849D01*
X155811072Y-105763041D01*
X156014764Y-105678878D01*
X156170743Y-105523171D01*
X156255262Y-105319626D01*
X156255454Y-105099231D01*
X156209561Y-104988161D01*
X156223395Y-104982445D01*
X156379374Y-104826738D01*
X156463893Y-104623193D01*
X156464085Y-104402798D01*
X156379922Y-104199106D01*
X156224215Y-104043127D01*
X156020670Y-103958608D01*
X155800275Y-103958416D01*
X155596583Y-104042579D01*
X155440604Y-104198286D01*
X155356085Y-104401831D01*
X155355893Y-104622226D01*
X155401786Y-104733296D01*
X155387952Y-104739012D01*
X155261572Y-104865172D01*
X155183207Y-104786670D01*
X154979662Y-104702151D01*
X154759267Y-104701959D01*
X154555575Y-104786122D01*
X154399596Y-104941829D01*
X154315077Y-105145374D01*
X154314885Y-105365769D01*
X154336943Y-105419153D01*
X154234075Y-105461657D01*
X154078096Y-105617364D01*
X153993577Y-105820909D01*
X153993385Y-106041304D01*
X151255104Y-106041304D01*
X151251285Y-106032063D01*
X151095578Y-105876084D01*
X150892033Y-105791565D01*
X150671638Y-105791373D01*
X150467946Y-105875536D01*
X150311967Y-106031243D01*
X150227448Y-106234788D01*
X150227256Y-106455183D01*
X150311419Y-106658875D01*
X150442610Y-106790295D01*
X150372291Y-106761096D01*
X150151896Y-106760904D01*
X149948204Y-106845067D01*
X149792225Y-107000774D01*
X149707706Y-107204319D01*
X149707514Y-107424714D01*
X149296304Y-107424714D01*
X149296496Y-107205286D01*
X149212333Y-107001594D01*
X149056626Y-106845615D01*
X148853081Y-106761096D01*
X148632686Y-106760904D01*
X148428994Y-106845067D01*
X148273015Y-107000774D01*
X148188496Y-107204319D01*
X148188304Y-107424714D01*
X145006476Y-107424714D01*
X145079904Y-107247881D01*
X145080096Y-107027486D01*
X144995933Y-106823794D01*
X144840226Y-106667815D01*
X144636681Y-106583296D01*
X144416286Y-106583104D01*
X144212594Y-106667267D01*
X144056615Y-106822974D01*
X143972096Y-107026519D01*
X143971904Y-107246914D01*
X132409000Y-107246914D01*
X132409000Y-106688114D01*
X134040504Y-106688114D01*
X134124667Y-106891806D01*
X134280374Y-107047785D01*
X134483919Y-107132304D01*
X134704314Y-107132496D01*
X134908006Y-107048333D01*
X135063985Y-106892626D01*
X135148504Y-106689081D01*
X135148696Y-106468686D01*
X135089364Y-106325090D01*
X135144506Y-106302306D01*
X135300485Y-106146599D01*
X135385004Y-105943054D01*
X135385196Y-105722659D01*
X135301033Y-105518967D01*
X135145326Y-105362988D01*
X134941781Y-105278469D01*
X134721386Y-105278277D01*
X134517694Y-105362440D01*
X134361715Y-105518147D01*
X134277196Y-105721692D01*
X134277004Y-105942087D01*
X134336336Y-106085683D01*
X134281194Y-106108467D01*
X134125215Y-106264174D01*
X134040696Y-106467719D01*
X134040504Y-106688114D01*
X132409000Y-106688114D01*
X132409000Y-105122090D01*
X149146990Y-105122090D01*
X149231153Y-105325782D01*
X149386860Y-105481761D01*
X149590405Y-105566280D01*
X149810800Y-105566472D01*
X150014492Y-105482309D01*
X150170471Y-105326602D01*
X150254990Y-105123057D01*
X150255182Y-104902662D01*
X150171019Y-104698970D01*
X150113640Y-104641491D01*
X150188045Y-104567215D01*
X150272564Y-104363670D01*
X150272756Y-104143275D01*
X150188593Y-103939583D01*
X150032886Y-103783604D01*
X149829341Y-103699085D01*
X149608946Y-103698893D01*
X149405254Y-103783056D01*
X149249275Y-103938763D01*
X149164756Y-104142308D01*
X149164564Y-104362703D01*
X149248727Y-104566395D01*
X149306106Y-104623874D01*
X149231701Y-104698150D01*
X149147182Y-104901695D01*
X149146990Y-105122090D01*
X132409000Y-105122090D01*
X132409000Y-103892229D01*
X147907916Y-103892229D01*
X147992079Y-104095921D01*
X148147786Y-104251900D01*
X148351331Y-104336419D01*
X148571726Y-104336611D01*
X148775418Y-104252448D01*
X148931397Y-104096741D01*
X149015916Y-103893196D01*
X149016108Y-103672801D01*
X148931945Y-103469109D01*
X148776238Y-103313130D01*
X148572693Y-103228611D01*
X148352298Y-103228419D01*
X148148606Y-103312582D01*
X147992627Y-103468289D01*
X147908108Y-103671834D01*
X147907916Y-103892229D01*
X132409000Y-103892229D01*
X132409000Y-102624114D01*
X134294504Y-102624114D01*
X134378667Y-102827806D01*
X134534374Y-102983785D01*
X134737919Y-103068304D01*
X134958314Y-103068496D01*
X135162006Y-102984333D01*
X135317985Y-102828626D01*
X135402504Y-102625081D01*
X135402696Y-102404686D01*
X135377358Y-102343362D01*
X148685068Y-102343362D01*
X148769231Y-102547054D01*
X148924938Y-102703033D01*
X149128483Y-102787552D01*
X149348878Y-102787744D01*
X149552570Y-102703581D01*
X149708549Y-102547874D01*
X149793068Y-102344329D01*
X149793260Y-102123934D01*
X149709097Y-101920242D01*
X149668511Y-101879585D01*
X149727099Y-101821099D01*
X149811618Y-101617554D01*
X149811757Y-101458127D01*
X149822394Y-101458136D01*
X150026086Y-101373973D01*
X150182065Y-101218266D01*
X150207742Y-101156429D01*
X150382552Y-101229016D01*
X150602947Y-101229208D01*
X150806639Y-101145045D01*
X150902537Y-101049314D01*
X155198712Y-101049314D01*
X155282875Y-101253006D01*
X155438582Y-101408985D01*
X155642127Y-101493504D01*
X155862522Y-101493696D01*
X156066214Y-101409533D01*
X156222193Y-101253826D01*
X156306712Y-101050281D01*
X156306904Y-100829886D01*
X156222741Y-100626194D01*
X156067034Y-100470215D01*
X155863489Y-100385696D01*
X155643094Y-100385504D01*
X155439402Y-100469667D01*
X155283423Y-100625374D01*
X155198904Y-100828919D01*
X155198712Y-101049314D01*
X150902537Y-101049314D01*
X150962618Y-100989338D01*
X151047137Y-100785793D01*
X151047329Y-100565398D01*
X150963166Y-100361706D01*
X150953840Y-100352364D01*
X151039908Y-100266446D01*
X151124427Y-100062901D01*
X151124585Y-99880914D01*
X154335104Y-99880914D01*
X154419267Y-100084606D01*
X154574974Y-100240585D01*
X154778519Y-100325104D01*
X154998914Y-100325296D01*
X155202606Y-100241133D01*
X155277911Y-100165959D01*
X155300094Y-100188181D01*
X155503639Y-100272700D01*
X155724034Y-100272892D01*
X155927726Y-100188729D01*
X156083705Y-100033022D01*
X156168224Y-99829477D01*
X156168416Y-99609082D01*
X156084253Y-99405390D01*
X155928546Y-99249411D01*
X155725001Y-99164892D01*
X155504606Y-99164700D01*
X155300914Y-99248863D01*
X155225609Y-99324037D01*
X155203426Y-99301815D01*
X154999881Y-99217296D01*
X154779486Y-99217104D01*
X154575794Y-99301267D01*
X154419815Y-99456974D01*
X154335296Y-99660519D01*
X154335104Y-99880914D01*
X151124585Y-99880914D01*
X151124619Y-99842506D01*
X151040456Y-99638814D01*
X150884749Y-99482835D01*
X150681204Y-99398316D01*
X150460809Y-99398124D01*
X150393417Y-99425970D01*
X150439304Y-99315461D01*
X150439496Y-99095066D01*
X150355333Y-98891374D01*
X150199626Y-98735395D01*
X149996081Y-98650876D01*
X149775686Y-98650684D01*
X149571994Y-98734847D01*
X149416015Y-98890554D01*
X149331496Y-99094099D01*
X149331304Y-99314494D01*
X149415467Y-99518186D01*
X149571174Y-99674165D01*
X149774719Y-99758684D01*
X149995114Y-99758876D01*
X150062506Y-99731030D01*
X150016619Y-99841539D01*
X150016427Y-100061934D01*
X150100590Y-100265626D01*
X150109916Y-100274968D01*
X150023848Y-100360886D01*
X149998171Y-100422723D01*
X149823361Y-100350136D01*
X149602966Y-100349944D01*
X149399274Y-100434107D01*
X149243295Y-100589814D01*
X149158776Y-100793359D01*
X149158637Y-100952786D01*
X149148000Y-100952777D01*
X148944308Y-101036940D01*
X148788329Y-101192647D01*
X148703810Y-101396192D01*
X148703618Y-101616587D01*
X148787781Y-101820279D01*
X148828367Y-101860936D01*
X148769779Y-101919422D01*
X148685260Y-102122967D01*
X148685068Y-102343362D01*
X135377358Y-102343362D01*
X135318533Y-102200994D01*
X135162826Y-102045015D01*
X134959281Y-101960496D01*
X134738886Y-101960304D01*
X134535194Y-102044467D01*
X134379215Y-102200174D01*
X134294696Y-102403719D01*
X134294504Y-102624114D01*
X132409000Y-102624114D01*
X132409000Y-99144314D01*
X134271060Y-99144314D01*
X134355223Y-99348006D01*
X134447690Y-99440634D01*
X134431573Y-99456723D01*
X134347054Y-99660268D01*
X134346862Y-99880663D01*
X134431025Y-100084355D01*
X134441172Y-100094520D01*
X134355771Y-100179772D01*
X134271252Y-100383317D01*
X134271060Y-100603712D01*
X134355223Y-100807404D01*
X134510930Y-100963383D01*
X134714475Y-101047902D01*
X134934870Y-101048094D01*
X135138562Y-100963931D01*
X135294541Y-100808224D01*
X135379060Y-100604679D01*
X135379252Y-100384284D01*
X135295089Y-100180592D01*
X135284942Y-100170427D01*
X135370343Y-100085175D01*
X135454862Y-99881630D01*
X135455054Y-99661235D01*
X135370891Y-99457543D01*
X135278424Y-99364915D01*
X135294541Y-99348826D01*
X135379060Y-99145281D01*
X135379252Y-98924886D01*
X135295089Y-98721194D01*
X135139382Y-98565215D01*
X134935837Y-98480696D01*
X134715442Y-98480504D01*
X134511750Y-98564667D01*
X134355771Y-98720374D01*
X134271252Y-98923919D01*
X134271060Y-99144314D01*
X132409000Y-99144314D01*
X132409000Y-97455214D01*
X135780404Y-97455214D01*
X135864567Y-97658906D01*
X136020274Y-97814885D01*
X136223819Y-97899404D01*
X136444214Y-97899596D01*
X136647906Y-97815433D01*
X136803885Y-97659726D01*
X136888404Y-97456181D01*
X136888407Y-97452620D01*
X141821078Y-97452620D01*
X141928030Y-97711463D01*
X142125895Y-97909674D01*
X142384551Y-98017077D01*
X142664620Y-98017322D01*
X142923463Y-97910370D01*
X142988430Y-97845516D01*
X152392004Y-97845516D01*
X152476167Y-98049208D01*
X152631874Y-98205187D01*
X152835419Y-98289706D01*
X153055814Y-98289898D01*
X153259506Y-98205735D01*
X153415485Y-98050028D01*
X153500004Y-97846483D01*
X153500196Y-97626088D01*
X153416033Y-97422396D01*
X153260326Y-97266417D01*
X153056781Y-97181898D01*
X152836386Y-97181706D01*
X152632694Y-97265869D01*
X152476715Y-97421576D01*
X152392196Y-97625121D01*
X152392004Y-97845516D01*
X142988430Y-97845516D01*
X143121674Y-97712505D01*
X143229077Y-97453849D01*
X143229322Y-97173780D01*
X143122370Y-96914937D01*
X142924505Y-96716726D01*
X142665849Y-96609323D01*
X142385780Y-96609078D01*
X142126937Y-96716030D01*
X141928726Y-96913895D01*
X141821323Y-97172551D01*
X141821078Y-97452620D01*
X136888407Y-97452620D01*
X136888596Y-97235786D01*
X136804433Y-97032094D01*
X136648726Y-96876115D01*
X136445181Y-96791596D01*
X136224786Y-96791404D01*
X136021094Y-96875567D01*
X135865115Y-97031274D01*
X135780596Y-97234819D01*
X135780404Y-97455214D01*
X132409000Y-97455214D01*
X132409000Y-94927914D01*
X155173304Y-94927914D01*
X155257467Y-95131606D01*
X155413174Y-95287585D01*
X155616719Y-95372104D01*
X155837114Y-95372296D01*
X156040806Y-95288133D01*
X156196785Y-95132426D01*
X156281304Y-94928881D01*
X156281496Y-94708486D01*
X156197333Y-94504794D01*
X156041626Y-94348815D01*
X155838081Y-94264296D01*
X155617686Y-94264104D01*
X155413994Y-94348267D01*
X155258015Y-94503974D01*
X155173496Y-94707519D01*
X155173304Y-94927914D01*
X132409000Y-94927914D01*
X132409000Y-91930714D01*
X153877904Y-91930714D01*
X153962067Y-92134406D01*
X154117774Y-92290385D01*
X154321319Y-92374904D01*
X154541714Y-92375096D01*
X154745406Y-92290933D01*
X154901385Y-92135226D01*
X154985904Y-91931681D01*
X154986096Y-91711286D01*
X154901933Y-91507594D01*
X154746226Y-91351615D01*
X154542681Y-91267096D01*
X154322286Y-91266904D01*
X154118594Y-91351067D01*
X153962615Y-91506774D01*
X153878096Y-91710319D01*
X153877904Y-91930714D01*
X132409000Y-91930714D01*
X132409000Y-90377867D01*
X134080549Y-90377867D01*
X134164712Y-90581559D01*
X134320419Y-90737538D01*
X134523964Y-90822057D01*
X134744359Y-90822249D01*
X134948051Y-90738086D01*
X135104030Y-90582379D01*
X135188549Y-90378834D01*
X135188741Y-90158439D01*
X135175881Y-90127314D01*
X151044102Y-90127314D01*
X151128265Y-90331006D01*
X151283972Y-90486985D01*
X151487517Y-90571504D01*
X151707912Y-90571696D01*
X151911604Y-90487533D01*
X152067583Y-90331826D01*
X152152102Y-90128281D01*
X152152294Y-89907886D01*
X152068131Y-89704194D01*
X151912424Y-89548215D01*
X151708879Y-89463696D01*
X151488484Y-89463504D01*
X151284792Y-89547667D01*
X151128813Y-89703374D01*
X151044294Y-89906919D01*
X151044102Y-90127314D01*
X135175881Y-90127314D01*
X135104578Y-89954747D01*
X134948871Y-89798768D01*
X134745326Y-89714249D01*
X134524931Y-89714057D01*
X134321239Y-89798220D01*
X134165260Y-89953927D01*
X134080741Y-90157472D01*
X134080549Y-90377867D01*
X132409000Y-90377867D01*
X132409000Y-89141794D01*
X133611244Y-89141794D01*
X133695407Y-89345486D01*
X133851114Y-89501465D01*
X134054659Y-89585984D01*
X134275054Y-89586176D01*
X134478746Y-89502013D01*
X134634725Y-89346306D01*
X134718369Y-89144869D01*
X134718271Y-89257041D01*
X134802434Y-89460733D01*
X134958141Y-89616712D01*
X135161686Y-89701231D01*
X135382081Y-89701423D01*
X135585773Y-89617260D01*
X135741752Y-89461553D01*
X135826271Y-89258008D01*
X135826463Y-89037613D01*
X135823331Y-89030032D01*
X135948044Y-89030032D01*
X136032207Y-89233724D01*
X136187914Y-89389703D01*
X136391459Y-89474222D01*
X136611854Y-89474414D01*
X136815546Y-89390251D01*
X136971525Y-89234544D01*
X137056044Y-89030999D01*
X137056236Y-88810604D01*
X136972073Y-88606912D01*
X136816366Y-88450933D01*
X136772736Y-88432816D01*
X150221095Y-88432816D01*
X150312855Y-88654892D01*
X150482615Y-88824948D01*
X150704530Y-88917095D01*
X150944816Y-88917305D01*
X151166892Y-88825545D01*
X151185956Y-88806514D01*
X153141304Y-88806514D01*
X153225467Y-89010206D01*
X153381174Y-89166185D01*
X153584719Y-89250704D01*
X153805114Y-89250896D01*
X154008806Y-89166733D01*
X154164785Y-89011026D01*
X154249304Y-88807481D01*
X154249496Y-88587086D01*
X154235212Y-88552514D01*
X154284304Y-88552514D01*
X154368467Y-88756206D01*
X154524174Y-88912185D01*
X154727719Y-88996704D01*
X154948114Y-88996896D01*
X155151806Y-88912733D01*
X155307785Y-88757026D01*
X155392304Y-88553481D01*
X155392496Y-88333086D01*
X155308333Y-88129394D01*
X155152626Y-87973415D01*
X154949081Y-87888896D01*
X154728686Y-87888704D01*
X154524994Y-87972867D01*
X154369015Y-88128574D01*
X154284496Y-88332119D01*
X154284304Y-88552514D01*
X154235212Y-88552514D01*
X154165333Y-88383394D01*
X154009626Y-88227415D01*
X153806081Y-88142896D01*
X153585686Y-88142704D01*
X153381994Y-88226867D01*
X153226015Y-88382574D01*
X153141496Y-88586119D01*
X153141304Y-88806514D01*
X151185956Y-88806514D01*
X151336948Y-88655785D01*
X151429095Y-88433870D01*
X151429305Y-88193584D01*
X151337545Y-87971508D01*
X151167785Y-87801452D01*
X150945870Y-87709305D01*
X150705584Y-87709095D01*
X150483508Y-87800855D01*
X150313452Y-87970615D01*
X150221305Y-88192530D01*
X150221095Y-88432816D01*
X136772736Y-88432816D01*
X136612821Y-88366414D01*
X136392426Y-88366222D01*
X136188734Y-88450385D01*
X136032755Y-88606092D01*
X135948236Y-88809637D01*
X135948044Y-89030032D01*
X135823331Y-89030032D01*
X135742300Y-88833921D01*
X135586593Y-88677942D01*
X135383048Y-88593423D01*
X135162653Y-88593231D01*
X134958961Y-88677394D01*
X134802982Y-88833101D01*
X134719338Y-89034538D01*
X134719436Y-88922366D01*
X134635273Y-88718674D01*
X134479566Y-88562695D01*
X134276021Y-88478176D01*
X134055626Y-88477984D01*
X133851934Y-88562147D01*
X133695955Y-88717854D01*
X133611436Y-88921399D01*
X133611244Y-89141794D01*
X132409000Y-89141794D01*
X132409000Y-88179001D01*
X132604319Y-88260104D01*
X132824714Y-88260296D01*
X133028406Y-88176133D01*
X133184385Y-88020426D01*
X133268904Y-87816881D01*
X133269096Y-87596486D01*
X133184933Y-87392794D01*
X133029226Y-87236815D01*
X132825681Y-87152296D01*
X132605286Y-87152104D01*
X132409000Y-87233207D01*
X132409000Y-86689000D01*
X149811261Y-86689000D01*
X149780307Y-86763545D01*
M02*
