G04 #@! TF.FileFunction,Soldermask,Bot*
%FSLAX46Y46*%
G04 Gerber Fmt 4.6, Leading zero omitted, Abs format (unit mm)*
G04 Created by KiCad (PCBNEW 4.0.6) date 01/21/18 22:34:32*
%MOMM*%
%LPD*%
G01*
G04 APERTURE LIST*
%ADD10C,0.100000*%
%ADD11C,1.676400*%
%ADD12R,0.752400X0.652400*%
%ADD13C,0.852400*%
%ADD14R,1.252400X1.152400*%
%ADD15R,3.152400X1.152400*%
%ADD16C,1.052400*%
%ADD17R,0.552400X0.752400*%
%ADD18R,0.752400X0.552400*%
G04 APERTURE END LIST*
D10*
D11*
X157480000Y-116840000D03*
X157480000Y-114300000D03*
X157480000Y-111760000D03*
X157480000Y-109220000D03*
X157480000Y-106680000D03*
X132080000Y-116840000D03*
X134620000Y-119380000D03*
X137160000Y-119380000D03*
X139700000Y-119380000D03*
X142240000Y-119380000D03*
X144780000Y-119380000D03*
X147320000Y-119380000D03*
X149860000Y-119380000D03*
X152400000Y-119380000D03*
X154940000Y-119380000D03*
X157480000Y-88900000D03*
X132080000Y-88900000D03*
X157480000Y-104140000D03*
X157480000Y-101600000D03*
X157480000Y-99060000D03*
X157480000Y-96520000D03*
X157480000Y-93980000D03*
X157480000Y-91440000D03*
D12*
X152180380Y-98252280D03*
X151080380Y-98252280D03*
D13*
X150825200Y-88313200D03*
D14*
X140775200Y-90373200D03*
X140725200Y-92913200D03*
X140775200Y-95453200D03*
X152575200Y-95453200D03*
X152575200Y-92913200D03*
X152575200Y-90373200D03*
D15*
X146675200Y-87613200D03*
X146675200Y-98213200D03*
D16*
X142525200Y-97313200D03*
D12*
X151145240Y-87421720D03*
X152245240Y-87421720D03*
X138388000Y-89535000D03*
X139488000Y-89535000D03*
X138134000Y-94488000D03*
X139234000Y-94488000D03*
X138261000Y-92011500D03*
X139361000Y-92011500D03*
D17*
X139070500Y-93154500D03*
X138170500Y-93154500D03*
X139070500Y-95631000D03*
X138170500Y-95631000D03*
X151271820Y-99514660D03*
X152171820Y-99514660D03*
X139197500Y-90678000D03*
X138297500Y-90678000D03*
X135757500Y-98996500D03*
X136657500Y-98996500D03*
X135757500Y-101155500D03*
X136657500Y-101155500D03*
X135757500Y-102235000D03*
X136657500Y-102235000D03*
X135757500Y-100076000D03*
X136657500Y-100076000D03*
D18*
X134823200Y-112630800D03*
X134823200Y-113530800D03*
X142849600Y-116566100D03*
X142849600Y-115666100D03*
X141643100Y-116571600D03*
X141643100Y-115671600D03*
M02*
